<svg xmlns="http://www.w3.org/2000/svg" viewBox="0 0 2730 1536" preserveAspectRatio="none"><g fill="#fff5a0" fill-rule="evenodd"><path d="M2371,1503L2370,1505L2371,1508L2375,1509L2381,1509L2386,1511L2391,1512L2403,1512L2404,1510L2404,1507L2401,1505L2394,1504L2374,1503Z"/><path d="M354,1503L350,1504L347,1506L344,1507L325,1507L320,1509L321,1512L335,1511L345,1511L367,1512L368,1511L383,1511L384,1509L386,1509L388,1508L388,1505L378,1505L372,1503Z"/><path d="M1500,1469L1497,1470L1495,1472L1494,1478L1493,1481L1492,1483L1491,1485L1488,1489L1487,1490L1483,1493L1481,1494L1478,1495L1475,1496L1469,1496L1464,1498L1462,1499L1460,1501L1460,1505L1461,1508L1463,1511L1465,1511L1466,1509L1469,1508L1475,1508L1476,1510L1478,1510L1480,1509L1485,1506L1493,1498L1500,1489L1502,1486L1504,1482L1506,1479L1505,1470L1503,1469Z"/><path d="M2610,1462L2607,1463L2605,1464L2601,1467L2598,1468L2596,1469L2595,1470L2594,1472L2594,1474L2600,1474L2604,1472L2613,1472L2615,1471L2615,1465L2614,1463Z"/><path d="M2648,1460L2645,1461L2642,1463L2639,1466L2636,1467L2629,1475L2623,1480L2622,1480L2618,1484L2618,1486L2620,1488L2620,1489L2627,1490L2631,1489L2633,1487L2636,1486L2644,1484L2646,1483L2648,1482L2653,1479L2656,1476L2658,1476L2659,1474L2659,1472L2657,1472L2650,1475L2646,1478L2643,1478L2642,1480L2639,1479L2640,1476L2645,1469L2650,1463L2650,1460Z"/><path d="M134,1460L135,1463L139,1466L141,1466L143,1468L147,1469L150,1470L155,1471L161,1470L161,1467L159,1466L156,1466L153,1463L149,1462L143,1460Z"/><path d="M86,1457L84,1459L84,1465L82,1467L78,1468L74,1468L70,1470L71,1474L76,1478L80,1478L84,1480L86,1480L87,1477L95,1478L94,1482L94,1484L96,1485L101,1486L108,1490L114,1491L118,1492L119,1494L124,1494L125,1495L131,1495L136,1496L143,1498L146,1500L150,1500L157,1502L160,1503L165,1507L178,1507L181,1509L184,1509L185,1507L191,1507L191,1505L182,1504L181,1502L178,1501L175,1501L163,1497L158,1494L155,1493L153,1493L152,1494L149,1494L146,1493L140,1490L137,1487L137,1485L132,1485L130,1483L128,1481L126,1481L125,1480L123,1480L122,1482L119,1482L114,1479L112,1477L111,1473L108,1472L104,1467L102,1467L98,1463L95,1463L88,1457Z"/><path d="M1694,1453L1692,1455L1692,1457L1694,1459L1696,1460L1700,1461L1706,1462L1709,1461L1708,1458L1703,1457L1699,1454L1697,1453Z"/><path d="M1867,1451L1860,1454L1856,1454L1854,1455L1851,1458L1844,1461L1841,1463L1838,1466L1832,1469L1827,1474L1818,1478L1816,1480L1816,1482L1817,1487L1819,1487L1820,1488L1822,1488L1833,1487L1849,1487L1851,1487L1859,1489L1870,1490L1886,1490L1887,1489L1890,1489L1890,1487L1887,1487L1885,1485L1881,1484L1875,1484L1871,1482L1866,1481L1855,1480L1850,1479L1847,1478L1844,1475L1844,1473L1846,1471L1846,1470L1847,1469L1848,1469L1850,1467L1852,1467L1854,1466L1856,1464L1858,1463L1860,1462L1864,1461L1870,1458L1872,1456L1872,1453L1870,1453L1869,1451Z"/><path d="M1159,1449L1159,1452L1164,1458L1166,1458L1166,1452L1164,1449L1162,1448Z"/><path d="M104,1445L103,1447L103,1449L108,1454L110,1454L111,1456L117,1457L120,1459L123,1460L130,1460L130,1457L128,1456L125,1455L120,1451L116,1450L112,1447L108,1445Z"/><path d="M1426,1441L1423,1444L1421,1447L1417,1454L1416,1456L1415,1461L1412,1463L1411,1467L1411,1469L1412,1480L1413,1483L1414,1485L1417,1488L1418,1491L1428,1502L1430,1503L1432,1504L1434,1504L1436,1505L1440,1508L1443,1509L1451,1509L1453,1508L1456,1505L1456,1501L1454,1501L1453,1500L1450,1500L1445,1498L1444,1496L1442,1495L1438,1493L1433,1492L1429,1489L1428,1488L1424,1483L1423,1481L1422,1479L1421,1476L1421,1471L1422,1465L1423,1462L1424,1460L1427,1456L1429,1452L1430,1449L1429,1441Z"/><path d="M1945,1440L1945,1442L1946,1444L1951,1448L1951,1449L1954,1450L1958,1454L1961,1455L1966,1460L1970,1461L1972,1463L1974,1464L1979,1465L1984,1468L1989,1469L1998,1474L2007,1478L2010,1478L2015,1481L2020,1482L2026,1483L2033,1483L2039,1485L2045,1485L2050,1486L2054,1487L2058,1489L2057,1493L2045,1494L2043,1494L2030,1492L2014,1491L1995,1490L1993,1490L1982,1492L1977,1492L1972,1490L1964,1489L1945,1489L1931,1487L1925,1487L1921,1488L1916,1489L1916,1491L1922,1491L1923,1492L1933,1492L1943,1494L1958,1494L1964,1495L1965,1496L1969,1496L1975,1494L1979,1494L1982,1495L1986,1496L1988,1498L2009,1498L2034,1497L2055,1498L2062,1500L2071,1500L2073,1502L2075,1502L2076,1501L2078,1501L2079,1502L2081,1502L2084,1500L2135,1500L2150,1502L2161,1502L2163,1501L2165,1499L2167,1498L2170,1498L2172,1497L2173,1493L2175,1492L2190,1492L2199,1491L2204,1489L2228,1490L2243,1490L2247,1489L2251,1488L2256,1484L2261,1484L2263,1482L2267,1482L2268,1480L2271,1479L2274,1478L2278,1478L2281,1476L2285,1475L2295,1475L2297,1476L2299,1478L2299,1481L2302,1487L2309,1494L2312,1496L2314,1496L2316,1498L2315,1501L2313,1501L2310,1503L2304,1504L2299,1504L2279,1503L2275,1502L2271,1501L2267,1497L2267,1489L2265,1489L2262,1490L2253,1494L2251,1496L2245,1498L2244,1503L2244,1505L2247,1508L2266,1509L2276,1509L2297,1507L2301,1508L2301,1510L2317,1509L2324,1508L2328,1510L2340,1511L2349,1511L2355,1510L2358,1509L2361,1507L2361,1503L2358,1501L2357,1501L2357,1497L2359,1496L2372,1496L2376,1495L2384,1492L2392,1491L2401,1491L2408,1490L2413,1489L2420,1486L2424,1486L2427,1484L2433,1483L2440,1483L2443,1486L2443,1489L2444,1491L2446,1494L2449,1496L2453,1497L2464,1497L2473,1496L2480,1495L2485,1494L2490,1492L2495,1491L2500,1490L2527,1489L2533,1490L2532,1493L2527,1494L2522,1496L2518,1499L2515,1499L2509,1502L2507,1504L2507,1507L2508,1508L2508,1510L2510,1510L2518,1506L2522,1506L2524,1504L2528,1503L2532,1503L2540,1500L2544,1499L2546,1499L2547,1500L2549,1500L2551,1499L2552,1496L2554,1494L2557,1493L2561,1492L2570,1492L2574,1491L2578,1490L2581,1489L2583,1488L2583,1485L2585,1483L2587,1483L2589,1482L2589,1480L2587,1480L2586,1481L2582,1480L2582,1478L2579,1478L2578,1483L2575,1483L2565,1482L2562,1479L2558,1478L2554,1478L2538,1479L2524,1481L2516,1480L2513,1480L2509,1482L2501,1483L2494,1483L2485,1484L2481,1485L2479,1487L2470,1489L2466,1488L2466,1483L2462,1482L2462,1480L2464,1478L2465,1478L2468,1475L2472,1473L2476,1470L2480,1466L2479,1463L2474,1463L2468,1465L2456,1469L2449,1473L2445,1473L2434,1478L2430,1479L2426,1480L2408,1483L2401,1483L2395,1485L2387,1486L2380,1487L2371,1487L2359,1490L2345,1490L2320,1489L2310,1486L2308,1485L2306,1483L2306,1481L2307,1479L2315,1471L2321,1468L2324,1466L2327,1463L2327,1460L2326,1458L2323,1458L2319,1459L2315,1461L2308,1462L2304,1463L2302,1465L2297,1466L2295,1468L2292,1469L2281,1468L2279,1468L2273,1470L2268,1470L2264,1472L2259,1473L2252,1473L2247,1474L2245,1476L2242,1477L2233,1479L2226,1480L2215,1481L2201,1482L2188,1483L2159,1484L2153,1483L2150,1483L2148,1485L2139,1486L2120,1486L2108,1485L2100,1483L2092,1483L2089,1481L2078,1481L2071,1479L2054,1479L2051,1477L2049,1477L2048,1478L2046,1478L2040,1477L2034,1476L2029,1475L2018,1471L2014,1471L1999,1467L1995,1466L1991,1464L1987,1461L1983,1460L1981,1459L1978,1456L1973,1453L1967,1450L1962,1449L1959,1448L1953,1443L1948,1440Z"/><path d="M915,1440L915,1443L917,1444L918,1447L920,1448L921,1448L923,1449L925,1460L927,1460L938,1466L944,1471L947,1473L955,1477L958,1480L961,1482L969,1486L982,1490L987,1493L993,1495L1002,1498L1006,1499L1014,1500L1017,1502L1034,1506L1039,1506L1043,1507L1057,1512L1086,1512L1093,1509L1097,1509L1098,1508L1101,1508L1102,1509L1105,1509L1108,1508L1110,1507L1112,1506L1114,1504L1115,1504L1116,1503L1117,1501L1118,1499L1119,1495L1119,1488L1115,1484L1107,1479L1101,1476L1096,1474L1092,1473L1082,1472L1066,1472L1059,1471L1056,1470L1052,1469L1050,1467L1046,1467L1037,1467L1037,1465L1031,1465L1026,1463L1022,1463L1016,1464L1017,1470L1019,1471L1021,1472L1024,1473L1032,1474L1039,1477L1043,1478L1048,1478L1052,1481L1055,1482L1059,1481L1060,1479L1067,1478L1074,1478L1081,1479L1086,1481L1090,1483L1096,1486L1101,1491L1101,1493L1098,1496L1093,1499L1091,1500L1087,1501L1077,1501L1075,1499L1074,1498L1073,1495L1074,1494L1074,1491L1072,1489L1069,1488L1065,1488L1064,1492L1057,1491L1054,1491L1045,1492L1042,1491L1039,1489L1028,1489L1012,1486L1003,1484L994,1481L986,1477L983,1477L980,1476L975,1474L973,1473L971,1471L971,1469L974,1466L977,1465L976,1462L974,1461L966,1461L966,1463L965,1464L964,1469L953,1469L943,1464L940,1461L937,1458L937,1456L939,1454L943,1454L942,1451L941,1451L938,1449L934,1445L932,1445L925,1440L921,1439Z"/><path d="M1517,1424L1512,1425L1510,1427L1509,1430L1503,1438L1501,1443L1499,1446L1497,1449L1493,1454L1487,1460L1486,1462L1487,1465L1491,1465L1494,1462L1496,1462L1501,1457L1502,1457L1506,1453L1514,1444L1515,1442L1516,1440L1516,1438L1517,1436L1519,1434L1520,1432L1519,1424Z"/><path d="M628,1420L626,1422L624,1423L621,1424L598,1424L598,1426L603,1426L608,1428L608,1430L610,1431L613,1432L619,1433L626,1434L640,1434L641,1431L643,1431L643,1429L637,1429L635,1428L632,1424L630,1423L630,1420Z"/><path d="M803,1419L801,1420L800,1421L799,1424L796,1429L793,1433L791,1435L786,1437L783,1439L777,1444L772,1447L765,1451L759,1453L753,1457L751,1457L737,1465L732,1467L729,1467L726,1468L721,1471L718,1472L715,1473L708,1474L704,1475L701,1477L694,1479L689,1480L678,1481L660,1481L653,1483L631,1483L620,1484L616,1485L611,1487L609,1489L603,1489L587,1488L580,1486L570,1485L559,1485L551,1483L516,1484L513,1484L484,1483L480,1481L471,1480L451,1479L432,1477L424,1476L420,1474L409,1473L399,1473L390,1472L382,1469L377,1469L372,1467L364,1467L358,1466L351,1463L338,1463L338,1465L337,1466L337,1468L341,1469L341,1471L344,1473L347,1475L352,1478L354,1478L355,1480L361,1481L361,1485L359,1487L354,1487L350,1489L348,1489L347,1488L344,1488L342,1490L335,1490L327,1489L319,1487L295,1484L285,1484L274,1483L268,1482L263,1480L261,1480L257,1481L248,1480L242,1478L220,1478L213,1477L207,1475L199,1475L192,1474L188,1472L186,1472L180,1474L179,1479L178,1479L176,1481L175,1481L175,1487L180,1488L183,1491L185,1491L186,1492L189,1492L196,1495L203,1496L216,1501L220,1500L222,1500L225,1502L231,1502L235,1504L244,1504L251,1506L255,1507L257,1509L262,1509L267,1511L275,1511L276,1510L279,1510L279,1507L275,1503L272,1501L269,1499L263,1498L256,1497L248,1497L245,1495L242,1494L243,1490L261,1490L269,1492L279,1492L287,1493L292,1495L299,1495L306,1497L321,1498L348,1498L355,1496L359,1495L361,1494L364,1491L364,1482L366,1480L368,1479L371,1478L380,1478L385,1480L387,1482L392,1484L395,1485L395,1494L396,1496L401,1501L402,1503L402,1507L404,1508L411,1509L427,1509L430,1507L433,1506L432,1503L430,1502L428,1501L419,1498L415,1496L413,1495L413,1491L415,1490L418,1490L427,1492L437,1492L441,1494L450,1494L453,1496L492,1496L500,1498L508,1498L514,1500L562,1500L569,1499L574,1497L574,1495L576,1493L583,1493L589,1495L590,1498L592,1498L593,1493L597,1494L597,1498L600,1498L601,1492L604,1491L607,1491L609,1492L611,1493L611,1497L608,1497L608,1499L622,1500L626,1500L638,1499L659,1499L675,1499L681,1501L690,1501L691,1499L693,1499L715,1500L733,1499L750,1497L769,1497L781,1496L805,1493L821,1492L839,1492L851,1490L865,1490L875,1488L895,1487L923,1487L927,1486L929,1485L931,1483L931,1481L930,1479L928,1477L922,1474L917,1472L903,1468L899,1466L896,1463L894,1462L883,1457L880,1457L879,1455L877,1454L875,1453L870,1451L867,1450L863,1449L860,1449L860,1451L861,1452L861,1455L863,1455L866,1456L868,1458L873,1458L876,1460L880,1463L884,1467L891,1471L894,1474L894,1477L892,1479L890,1480L886,1481L876,1481L867,1483L853,1483L844,1485L834,1486L808,1486L792,1488L773,1488L760,1490L735,1491L702,1492L677,1492L671,1490L672,1487L675,1486L683,1486L698,1484L705,1483L711,1482L715,1481L724,1478L749,1470L755,1467L760,1463L770,1459L775,1456L781,1451L787,1445L790,1444L792,1442L794,1439L796,1436L798,1431L800,1431L802,1430L806,1425L806,1419Z"/><path d="M1570,1419L1570,1427L1572,1431L1573,1433L1574,1434L1576,1435L1581,1435L1583,1434L1585,1430L1585,1425L1582,1422L1582,1421L1580,1419L1577,1418Z"/><path d="M556,1417L550,1418L546,1420L544,1420L544,1422L543,1423L543,1430L545,1432L549,1432L552,1428L554,1427L556,1426L561,1425L572,1425L575,1421L574,1418L571,1417Z"/><path d="M2676,1416L2675,1420L2673,1422L2672,1425L2668,1425L2664,1428L2662,1428L2661,1426L2658,1426L2650,1430L2643,1437L2640,1438L2637,1440L2630,1447L2627,1451L2625,1454L2622,1460L2621,1463L2621,1465L2623,1465L2626,1461L2627,1460L2633,1456L2633,1454L2632,1453L2632,1450L2634,1448L2636,1447L2639,1446L2645,1446L2646,1448L2648,1448L2651,1446L2655,1446L2655,1443L2657,1441L2660,1439L2664,1439L2669,1435L2671,1434L2674,1434L2675,1432L2675,1425L2676,1423L2677,1421L2681,1420L2681,1418L2679,1418L2678,1416Z"/><path d="M2661,1411L2659,1412L2658,1413L2656,1417L2657,1420L2659,1421L2663,1421L2664,1417L2665,1414L2665,1411Z"/><path d="M44,1411L44,1414L45,1415L45,1419L47,1422L46,1425L43,1424L42,1421L40,1421L40,1424L41,1428L43,1432L45,1433L52,1434L56,1437L59,1437L61,1438L65,1442L67,1442L69,1444L72,1444L75,1441L81,1441L91,1441L91,1438L89,1435L89,1432L88,1430L84,1429L82,1427L81,1421L79,1421L75,1416L73,1415L70,1414L68,1414L68,1416L69,1419L71,1423L72,1427L71,1434L66,1433L65,1431L65,1430L64,1428L59,1427L57,1425L57,1423L55,1420L51,1415L47,1411Z"/><path d="M1161,1410L1159,1411L1152,1418L1150,1421L1150,1423L1152,1425L1152,1426L1156,1427L1162,1426L1164,1425L1166,1423L1167,1421L1167,1410Z"/><path d="M1694,1405L1695,1409L1698,1410L1707,1413L1711,1414L1716,1414L1716,1412L1715,1410L1713,1409L1710,1409L1704,1406L1699,1405Z"/><path d="M1750,1404L1751,1408L1752,1408L1754,1410L1756,1410L1758,1412L1763,1414L1766,1415L1772,1416L1775,1417L1780,1420L1784,1421L1790,1422L1802,1422L1806,1423L1809,1424L1815,1427L1817,1427L1821,1429L1821,1432L1819,1434L1812,1437L1802,1445L1796,1448L1792,1452L1788,1453L1784,1453L1781,1455L1775,1456L1772,1457L1770,1459L1767,1460L1768,1464L1771,1464L1772,1463L1776,1463L1777,1462L1781,1463L1781,1466L1779,1468L1776,1470L1771,1473L1767,1474L1757,1477L1752,1477L1749,1478L1734,1484L1718,1488L1712,1489L1706,1490L1696,1490L1686,1492L1676,1492L1670,1494L1668,1494L1667,1493L1664,1494L1664,1496L1673,1497L1674,1499L1674,1503L1671,1504L1660,1504L1653,1503L1647,1502L1640,1499L1636,1499L1632,1498L1629,1496L1626,1493L1626,1491L1628,1489L1634,1486L1639,1485L1644,1482L1647,1481L1650,1480L1657,1478L1661,1477L1666,1476L1690,1476L1692,1478L1695,1478L1701,1475L1704,1474L1713,1473L1717,1472L1719,1471L1721,1470L1722,1467L1720,1466L1715,1466L1702,1468L1678,1468L1669,1469L1655,1472L1644,1472L1640,1474L1637,1478L1634,1480L1632,1481L1630,1482L1619,1482L1619,1484L1617,1488L1617,1491L1615,1495L1616,1498L1617,1498L1619,1500L1623,1506L1626,1506L1631,1508L1635,1508L1639,1509L1641,1511L1668,1511L1677,1510L1682,1508L1689,1507L1703,1506L1708,1505L1712,1504L1719,1502L1722,1501L1725,1500L1727,1499L1728,1496L1730,1494L1735,1493L1744,1493L1752,1492L1755,1490L1758,1490L1764,1487L1767,1484L1770,1483L1771,1481L1774,1480L1780,1479L1787,1476L1795,1471L1798,1469L1801,1466L1802,1466L1804,1464L1804,1463L1807,1460L1808,1458L1808,1456L1807,1455L1807,1453L1811,1449L1814,1447L1817,1445L1820,1444L1826,1439L1830,1439L1830,1441L1831,1443L1838,1443L1838,1441L1834,1440L1833,1438L1833,1436L1834,1434L1838,1432L1846,1433L1848,1433L1859,1431L1869,1431L1868,1428L1866,1427L1862,1425L1859,1424L1854,1423L1837,1423L1822,1421L1807,1421L1803,1420L1800,1419L1797,1417L1791,1416L1787,1413L1781,1413L1779,1411L1774,1411L1772,1409L1768,1409L1762,1406L1755,1404Z"/><path d="M2564,1403L2563,1404L2560,1404L2558,1405L2557,1407L2556,1414L2556,1416L2558,1416L2560,1413L2564,1412L2564,1408L2566,1406L2566,1403Z"/><path d="M2261,1401L2261,1404L2260,1405L2260,1407L2263,1409L2263,1412L2263,1420L2265,1420L2272,1416L2279,1415L2284,1414L2284,1408L2286,1407L2287,1405L2287,1403L2284,1403L2281,1404L2278,1406L2271,1406L2268,1405L2263,1401Z"/><path d="M2320,1399L2318,1401L2318,1405L2322,1406L2325,1405L2325,1403L2324,1399Z"/><path d="M2127,1397L2123,1401L2118,1403L2116,1405L2115,1405L2114,1406L2112,1408L2112,1412L2110,1414L2110,1417L2112,1421L2114,1421L2118,1418L2124,1412L2128,1407L2128,1405L2130,1403L2131,1401L2131,1399L2129,1397Z"/><path d="M1941,1395L1940,1397L1940,1399L1944,1403L1946,1403L1949,1402L1951,1401L1951,1399L1948,1396L1946,1395Z"/><path d="M2543,1393L2541,1395L2537,1395L2537,1401L2541,1406L2546,1406L2548,1405L2549,1404L2550,1402L2550,1399L2549,1397L2547,1394L2545,1393Z"/><path d="M2242,1390L2242,1393L2244,1395L2245,1395L2248,1398L2252,1398L2254,1395L2256,1395L2256,1393L2253,1393L2252,1391L2250,1391L2249,1392L2247,1392L2244,1390Z"/><path d="M1661,1387L1661,1391L1662,1393L1664,1395L1665,1395L1667,1398L1669,1399L1672,1400L1678,1402L1681,1402L1680,1398L1676,1395L1671,1393L1663,1387Z"/><path d="M1996,1386L1996,1389L1997,1391L2001,1394L2008,1396L2017,1404L2020,1407L2022,1410L2022,1412L2026,1415L2030,1418L2035,1418L2035,1415L2034,1409L2033,1407L2032,1406L2027,1403L2024,1400L2024,1397L2022,1395L2017,1394L2010,1393L2009,1391L2007,1389L2003,1388L2000,1386Z"/><path d="M1001,1386L1000,1387L996,1387L994,1389L993,1389L991,1392L989,1392L989,1394L982,1401L980,1401L976,1405L974,1406L971,1406L964,1409L962,1411L957,1413L954,1414L945,1415L941,1417L936,1417L932,1419L919,1419L916,1421L914,1421L909,1420L901,1422L888,1422L886,1424L878,1424L871,1422L871,1419L867,1419L866,1424L865,1424L862,1426L862,1428L863,1429L862,1432L860,1432L860,1434L862,1435L863,1439L866,1440L872,1441L880,1441L879,1437L877,1437L875,1435L875,1432L879,1428L881,1427L888,1427L893,1429L907,1429L912,1428L916,1426L921,1425L934,1424L940,1422L946,1421L954,1421L959,1420L962,1419L967,1417L972,1414L977,1413L988,1407L991,1405L995,1402L1000,1397L1002,1394L1003,1392L1004,1390L1004,1386Z"/><path d="M1863,1384L1840,1385L1833,1386L1830,1387L1827,1388L1823,1390L1823,1393L1825,1394L1839,1394L1848,1395L1852,1397L1857,1400L1871,1406L1878,1405L1878,1403L1876,1400L1873,1397L1874,1393L1886,1393L1893,1395L1898,1398L1902,1399L1922,1399L1922,1397L1923,1396L1923,1392L1920,1389L1917,1388L1908,1386L1900,1385L1892,1384Z"/><path d="M852,1383L845,1385L829,1385L823,1387L817,1387L812,1389L807,1389L803,1390L798,1392L794,1395L791,1395L790,1397L787,1398L784,1398L783,1400L783,1404L788,1404L794,1403L806,1400L810,1399L813,1397L820,1397L823,1395L827,1394L833,1394L836,1393L840,1390L850,1390L852,1391L854,1393L855,1393L855,1397L854,1397L853,1398L850,1402L850,1404L851,1405L851,1407L854,1407L861,1406L862,1404L866,1405L866,1407L868,1407L871,1406L876,1404L881,1401L886,1399L889,1398L892,1397L897,1396L902,1395L910,1395L911,1394L917,1394L917,1392L915,1390L913,1389L909,1389L904,1387L899,1387L894,1385L888,1385L884,1383Z"/><path d="M2633,1382L2629,1383L2623,1386L2623,1390L2624,1392L2626,1394L2628,1394L2630,1393L2642,1385L2642,1383L2640,1382Z"/><path d="M2366,1380L2358,1387L2357,1387L2355,1389L2354,1392L2353,1392L2350,1394L2350,1399L2359,1399L2362,1400L2364,1401L2364,1405L2358,1405L2354,1406L2350,1408L2350,1414L2348,1418L2348,1420L2350,1422L2353,1422L2357,1419L2362,1413L2365,1412L2365,1410L2369,1405L2371,1403L2375,1403L2377,1401L2386,1395L2389,1392L2390,1388L2395,1387L2396,1384L2397,1384L2398,1381L2395,1381L2394,1382L2390,1382L2386,1384L2378,1388L2373,1392L2371,1393L2368,1392L2368,1390L2369,1388L2371,1386L2372,1384L2372,1381L2370,1380Z"/><path d="M2128,1380L2125,1381L2123,1383L2123,1384L2120,1385L2115,1390L2108,1398L2105,1400L2099,1401L2100,1406L2107,1406L2109,1405L2110,1403L2114,1401L2116,1399L2120,1394L2127,1393L2127,1391L2128,1390L2129,1386L2132,1385L2132,1380Z"/><path d="M1726,1379L1725,1381L1725,1385L1726,1388L1727,1390L1730,1394L1732,1396L1736,1400L1741,1401L1743,1403L1746,1403L1746,1400L1743,1398L1742,1395L1736,1388L1734,1386L1731,1384L1730,1381L1728,1379Z"/><path d="M1376,1376L1373,1378L1371,1380L1371,1386L1370,1390L1369,1392L1367,1394L1367,1395L1363,1396L1361,1394L1359,1391L1359,1388L1357,1386L1356,1383L1354,1383L1353,1385L1350,1385L1348,1382L1344,1383L1343,1387L1344,1406L1344,1409L1343,1413L1341,1417L1336,1427L1332,1430L1331,1433L1328,1435L1327,1436L1326,1438L1326,1442L1328,1444L1331,1445L1336,1445L1339,1443L1341,1441L1341,1440L1344,1437L1345,1435L1346,1433L1348,1428L1348,1424L1350,1421L1350,1416L1351,1411L1353,1409L1356,1410L1357,1429L1356,1433L1354,1433L1354,1436L1357,1437L1357,1455L1356,1461L1355,1464L1353,1466L1350,1466L1344,1460L1342,1460L1341,1462L1339,1462L1337,1463L1335,1468L1335,1475L1336,1478L1339,1484L1340,1488L1340,1496L1339,1504L1337,1508L1332,1508L1330,1510L1325,1511L1321,1514L1317,1515L1315,1517L1314,1517L1313,1518L1313,1519L1308,1522L1306,1524L1302,1527L1300,1530L1299,1533L1299,1535L1414,1535L1414,1533L1415,1532L1415,1528L1412,1525L1412,1521L1410,1519L1410,1516L1406,1513L1398,1510L1396,1508L1394,1505L1394,1503L1390,1502L1390,1493L1393,1484L1394,1479L1395,1473L1395,1464L1393,1464L1387,1466L1379,1465L1378,1461L1378,1455L1376,1452L1377,1432L1377,1425L1374,1424L1374,1416L1376,1407L1378,1407L1380,1409L1381,1412L1382,1416L1383,1420L1383,1426L1384,1429L1385,1432L1388,1438L1390,1441L1393,1444L1395,1445L1397,1446L1409,1446L1413,1445L1415,1444L1419,1440L1419,1437L1407,1438L1403,1438L1401,1437L1396,1432L1395,1430L1395,1427L1391,1422L1388,1416L1388,1411L1386,1406L1386,1387L1382,1386L1382,1379L1381,1377L1379,1377L1378,1376Z"/><path d="M794,1375L792,1376L790,1378L783,1380L780,1383L778,1383L776,1385L774,1386L771,1387L768,1387L766,1388L766,1390L763,1394L762,1395L761,1395L759,1397L756,1398L749,1403L738,1413L737,1414L730,1421L728,1424L726,1427L726,1432L728,1432L731,1430L741,1424L743,1423L752,1420L767,1417L772,1416L772,1414L771,1413L771,1411L772,1404L774,1399L777,1397L780,1396L783,1394L784,1390L785,1390L789,1385L794,1381L797,1379L798,1379L799,1375Z"/><path d="M503,1359L502,1361L500,1361L500,1363L501,1365L502,1366L503,1366L505,1368L516,1367L516,1364L517,1363L517,1361L515,1361L514,1362L511,1362L510,1363L508,1363L506,1360Z"/><path d="M474,1359L474,1362L475,1364L477,1366L479,1367L482,1367L489,1371L492,1371L493,1363L493,1360L491,1360L490,1363L488,1363L483,1362L481,1360L476,1359Z"/><path d="M1707,1351L1706,1352L1702,1353L1691,1354L1688,1355L1685,1356L1675,1360L1668,1364L1660,1372L1657,1378L1657,1380L1658,1382L1662,1383L1663,1379L1667,1374L1668,1373L1670,1371L1672,1369L1676,1366L1679,1364L1682,1362L1685,1361L1692,1359L1697,1359L1700,1357L1703,1357L1706,1355L1709,1354L1709,1351Z"/><path d="M603,1346L603,1348L613,1349L613,1352L615,1354L615,1359L614,1361L611,1364L608,1365L603,1364L603,1360L601,1360L601,1365L603,1367L606,1367L607,1368L613,1368L614,1366L617,1366L620,1363L620,1358L621,1357L621,1353L620,1350L618,1348L616,1347L612,1346Z"/><path d="M485,1346L484,1348L485,1352L486,1352L488,1354L492,1355L492,1357L494,1357L494,1353L493,1351L492,1349L491,1348L487,1346Z"/><path d="M353,1339L349,1344L348,1346L348,1352L346,1358L346,1370L348,1374L348,1377L347,1379L344,1382L343,1384L343,1386L337,1397L336,1399L333,1400L330,1403L328,1403L320,1408L312,1411L310,1412L305,1417L302,1420L302,1422L304,1422L306,1421L308,1419L310,1418L320,1415L322,1414L325,1412L328,1410L333,1406L344,1396L348,1393L350,1392L353,1392L359,1395L361,1395L361,1390L355,1384L353,1379L352,1369L352,1365L353,1360L355,1356L356,1351L355,1339Z"/><path d="M384,1324L384,1328L385,1335L386,1341L387,1344L390,1350L391,1353L391,1357L393,1364L394,1367L395,1370L398,1375L400,1380L400,1386L398,1389L393,1394L390,1395L390,1397L391,1398L391,1400L404,1400L407,1401L409,1402L416,1409L418,1413L422,1417L427,1417L427,1415L427,1410L429,1410L431,1411L437,1415L443,1418L451,1421L454,1421L457,1423L460,1424L460,1426L458,1428L456,1429L454,1430L451,1431L448,1431L448,1433L450,1435L461,1435L469,1434L475,1433L479,1432L481,1430L485,1429L488,1429L489,1428L491,1428L491,1426L484,1427L482,1427L479,1424L476,1423L475,1422L474,1419L472,1419L471,1423L465,1422L464,1418L463,1412L448,1412L444,1411L441,1410L433,1405L430,1404L426,1404L420,1400L414,1398L411,1395L410,1392L407,1391L403,1388L403,1383L406,1383L408,1381L408,1373L405,1367L402,1362L397,1356L395,1353L395,1350L396,1343L397,1341L400,1340L400,1337L398,1335L396,1333L393,1333L391,1331L390,1329L390,1327L389,1325L387,1325L386,1324Z"/><path d="M1789,1319L1778,1323L1773,1325L1764,1329L1758,1332L1753,1336L1751,1337L1747,1337L1744,1338L1739,1341L1736,1341L1731,1343L1724,1346L1724,1349L1728,1349L1736,1349L1736,1351L1731,1357L1728,1362L1727,1364L1727,1371L1730,1371L1731,1370L1733,1370L1734,1367L1745,1356L1748,1355L1750,1350L1753,1347L1756,1345L1761,1342L1764,1341L1766,1341L1769,1340L1774,1337L1777,1335L1780,1333L1783,1330L1792,1324L1793,1324L1794,1321L1793,1319Z"/><path d="M694,1318L692,1319L690,1321L689,1323L688,1325L687,1328L687,1330L688,1335L687,1336L687,1340L689,1341L691,1341L692,1340L695,1341L695,1347L694,1350L693,1353L690,1358L687,1367L687,1372L685,1375L685,1383L684,1390L683,1393L680,1396L674,1399L671,1400L669,1400L668,1399L665,1399L662,1402L662,1403L660,1405L656,1406L652,1406L650,1407L647,1410L644,1411L641,1413L637,1417L635,1417L635,1421L641,1421L644,1420L656,1413L658,1412L661,1413L661,1418L663,1418L664,1413L670,1413L671,1410L676,1405L678,1404L680,1403L685,1401L689,1400L700,1400L702,1398L702,1396L698,1391L694,1390L692,1388L691,1386L690,1384L690,1378L693,1373L696,1362L698,1357L701,1352L703,1347L704,1344L705,1341L707,1334L708,1329L708,1325L706,1323L704,1323L703,1325L702,1328L700,1330L698,1330L696,1328L696,1318Z"/><path d="M924,1310L923,1311L921,1311L921,1313L926,1317L931,1321L935,1324L942,1329L945,1331L948,1333L952,1334L952,1336L954,1336L955,1335L957,1335L960,1337L963,1340L969,1343L976,1350L976,1352L978,1352L979,1354L982,1355L989,1361L992,1361L995,1364L997,1365L999,1366L1002,1366L1002,1363L1001,1360L1000,1358L996,1354L997,1351L1006,1351L1010,1353L1014,1353L1018,1354L1024,1357L1035,1359L1039,1360L1042,1362L1045,1362L1053,1366L1058,1369L1061,1371L1067,1377L1068,1379L1068,1383L1067,1385L1065,1387L1064,1387L1057,1393L1052,1396L1046,1399L1041,1401L1038,1401L1026,1407L1023,1408L1020,1409L1012,1410L1007,1411L1004,1413L1001,1413L998,1414L996,1415L995,1418L1003,1418L1012,1417L1016,1416L1019,1414L1023,1413L1031,1412L1038,1409L1045,1408L1051,1406L1052,1404L1055,1404L1060,1402L1062,1399L1065,1397L1072,1394L1074,1392L1080,1385L1080,1374L1078,1371L1076,1369L1072,1367L1069,1364L1066,1362L1064,1361L1051,1355L1047,1355L1043,1353L1035,1352L1025,1349L1022,1347L1016,1346L1010,1343L1007,1343L1004,1341L998,1340L992,1337L988,1336L985,1336L981,1335L976,1333L974,1332L970,1329L963,1327L961,1325L956,1323L949,1321L932,1313L930,1311L927,1310Z"/><path d="M2682,1294L2681,1298L2680,1303L2677,1306L2677,1313L2678,1315L2680,1315L2680,1312L2682,1307L2682,1302L2684,1297L2684,1294Z"/><path d="M2215,1288L2214,1290L2213,1292L2211,1299L2210,1301L2203,1308L2203,1310L2200,1312L2200,1314L2203,1315L2206,1318L2209,1323L2211,1328L2213,1329L2213,1330L2215,1333L2218,1337L2221,1340L2224,1339L2224,1332L2223,1327L2222,1321L2219,1318L2218,1318L2214,1314L2214,1311L2215,1309L2218,1306L2221,1300L2222,1294L2222,1289L2219,1289L2218,1287Z"/><path d="M1983,1285L1980,1288L1979,1291L1974,1297L1973,1300L1970,1303L1968,1303L1964,1307L1964,1310L1963,1311L1963,1313L1964,1315L1966,1318L1968,1320L1971,1321L1971,1325L1973,1328L1975,1330L1976,1331L1980,1334L1980,1339L1981,1341L1984,1342L1986,1344L1990,1345L1991,1347L1991,1351L1993,1354L1995,1356L2000,1360L2003,1360L2003,1358L2002,1355L2001,1353L1999,1350L1995,1347L1994,1346L1991,1341L1989,1340L1989,1333L1988,1332L1988,1327L1986,1326L1986,1322L1984,1322L1981,1319L1978,1316L1975,1312L1976,1309L1980,1308L1982,1306L1983,1302L1983,1295L1985,1293L1986,1290L1986,1287L1985,1285Z"/><path d="M81,1285L81,1288L80,1289L79,1298L79,1311L78,1316L77,1317L77,1320L78,1324L80,1327L81,1330L82,1335L83,1346L83,1359L85,1370L84,1381L80,1382L79,1384L79,1388L77,1389L77,1391L78,1393L84,1393L86,1394L90,1398L95,1400L98,1403L98,1405L101,1406L105,1410L108,1412L114,1412L116,1414L116,1416L119,1416L120,1417L124,1417L131,1420L134,1420L139,1422L139,1424L134,1428L134,1433L139,1433L144,1432L149,1430L156,1429L162,1428L169,1427L266,1427L271,1425L278,1426L283,1425L285,1425L288,1428L288,1430L290,1430L297,1433L299,1433L300,1429L300,1427L299,1425L297,1423L297,1421L295,1421L281,1422L276,1419L274,1419L268,1421L220,1421L214,1419L205,1419L175,1420L165,1421L161,1422L158,1424L149,1424L147,1422L146,1419L143,1418L142,1415L137,1415L136,1414L126,1414L120,1412L119,1409L114,1405L111,1404L107,1401L103,1398L96,1391L94,1388L92,1385L91,1383L90,1381L90,1375L88,1373L88,1371L86,1369L87,1364L89,1364L89,1356L87,1346L87,1342L89,1334L89,1332L88,1325L87,1322L86,1319L84,1317L84,1304L82,1297L83,1288L83,1285Z"/><path d="M2163,1284L2163,1288L2165,1292L2165,1296L2166,1297L2166,1299L2173,1300L2173,1307L2175,1309L2175,1312L2174,1314L2173,1315L2171,1316L2169,1316L2167,1318L2167,1321L2165,1323L2165,1326L2164,1328L2163,1329L2162,1329L2161,1333L2159,1337L2159,1341L2162,1342L2162,1344L2161,1348L2163,1348L2164,1349L2166,1349L2168,1346L2172,1338L2174,1330L2175,1327L2180,1321L2184,1315L2184,1312L2186,1311L2186,1309L2180,1304L2177,1300L2175,1297L2174,1295L2173,1293L2172,1288L2170,1284Z"/><path d="M2645,1280L2642,1282L2638,1282L2638,1284L2639,1287L2640,1289L2645,1290L2645,1294L2646,1295L2646,1298L2645,1299L2645,1301L2648,1302L2651,1305L2654,1309L2654,1312L2652,1314L2648,1315L2641,1322L2640,1324L2639,1327L2637,1328L2637,1329L2635,1331L2632,1339L2632,1344L2635,1345L2635,1348L2633,1350L2630,1352L2627,1352L2624,1354L2623,1357L2622,1358L2616,1363L2612,1369L2608,1373L2604,1376L2603,1376L2601,1378L2601,1380L2599,1381L2598,1383L2597,1385L2596,1389L2594,1389L2591,1392L2591,1394L2594,1394L2595,1396L2599,1397L2602,1400L2605,1400L2608,1397L2610,1394L2610,1390L2612,1385L2613,1381L2617,1376L2626,1367L2629,1363L2631,1360L2634,1355L2637,1349L2638,1346L2641,1347L2641,1349L2643,1349L2645,1347L2646,1345L2651,1334L2654,1325L2655,1323L2659,1320L2660,1317L2663,1314L2666,1313L2666,1311L2665,1309L2661,1308L2658,1305L2657,1301L2655,1299L2654,1297L2652,1290L2647,1280Z"/><path d="M530,1281L529,1288L527,1288L526,1286L524,1286L518,1287L517,1286L512,1286L511,1291L508,1290L507,1287L505,1285L498,1285L498,1287L497,1288L497,1291L494,1294L494,1298L496,1302L508,1302L509,1300L513,1300L514,1302L516,1303L521,1303L526,1301L526,1300L530,1300L531,1302L536,1302L537,1300L540,1300L542,1302L549,1302L549,1297L547,1295L547,1291L549,1289L549,1286L546,1283L541,1283L540,1285L536,1284L535,1280Z"/><path d="M2401,1278L2401,1280L2400,1281L2400,1284L2403,1289L2406,1298L2406,1300L2408,1300L2411,1303L2412,1307L2416,1310L2417,1313L2417,1316L2415,1318L2405,1318L2405,1321L2403,1326L2400,1330L2401,1334L2400,1337L2396,1337L2396,1339L2400,1340L2400,1342L2402,1343L2406,1343L2407,1338L2409,1337L2410,1335L2410,1333L2414,1325L2418,1321L2418,1319L2419,1317L2421,1315L2423,1314L2425,1314L2427,1313L2428,1309L2425,1309L2423,1308L2421,1306L2420,1306L2419,1305L2419,1304L2417,1301L2414,1298L2410,1290L2410,1288L2405,1278Z"/><path d="M489,1278L486,1279L483,1282L481,1287L479,1287L477,1285L468,1286L462,1286L460,1283L460,1281L458,1280L454,1279L447,1279L445,1280L445,1282L449,1283L449,1286L454,1286L456,1288L456,1293L454,1295L451,1294L451,1292L449,1292L449,1294L449,1300L446,1300L446,1302L455,1302L458,1301L460,1300L461,1298L465,1298L465,1299L467,1301L469,1302L478,1301L479,1295L483,1296L484,1302L489,1301L489,1292L492,1289L493,1284L494,1284L494,1279L491,1278Z"/><path d="M2112,1255L2112,1258L2114,1260L2117,1261L2117,1263L2122,1271L2123,1274L2122,1280L2122,1282L2123,1289L2121,1292L2120,1299L2118,1301L2117,1307L2117,1312L2116,1314L2113,1315L2113,1323L2111,1324L2111,1329L2110,1333L2107,1335L2106,1339L2105,1340L2099,1341L2097,1343L2095,1346L2079,1346L2079,1342L2077,1342L2076,1344L2073,1344L2072,1349L2069,1349L2068,1347L2064,1348L2060,1348L2060,1343L2057,1343L2056,1345L2053,1344L2053,1341L2051,1341L2050,1339L2048,1339L2048,1343L2046,1347L2042,1346L2038,1344L2038,1341L2033,1341L2029,1340L2027,1338L2027,1335L2022,1334L2021,1333L2020,1319L2018,1318L2017,1315L2015,1310L2015,1307L2012,1306L2012,1297L2008,1298L2007,1300L2006,1309L2006,1323L2007,1326L2009,1328L2011,1333L2013,1341L2014,1343L2015,1345L2018,1350L2024,1358L2031,1364L2033,1367L2034,1368L2037,1370L2038,1370L2039,1372L2043,1374L2049,1377L2052,1377L2054,1379L2060,1379L2061,1377L2065,1378L2067,1378L2069,1376L2071,1374L2072,1374L2074,1368L2076,1368L2078,1370L2079,1372L2079,1375L2080,1377L2083,1381L2090,1381L2094,1380L2097,1379L2102,1377L2107,1374L2116,1368L2120,1365L2129,1356L2133,1351L2136,1346L2137,1344L2138,1340L2140,1338L2142,1333L2143,1329L2143,1323L2145,1318L2145,1307L2144,1300L2143,1295L2142,1291L2141,1288L2139,1284L2136,1278L2131,1273L2131,1271L2130,1269L2126,1266L2124,1264L2124,1262L2122,1260L2122,1258L2121,1256L2119,1255L2117,1254Z"/><path d="M2020,1241L2017,1243L2015,1245L2011,1249L2009,1256L2007,1258L2006,1260L2006,1263L2008,1263L2016,1254L2018,1252L2023,1249L2023,1247L2024,1246L2024,1243L2022,1241Z"/><path d="M2126,1239L2124,1241L2124,1243L2125,1245L2128,1249L2135,1256L2140,1264L2146,1269L2148,1271L2148,1272L2152,1273L2152,1268L2150,1264L2145,1254L2142,1249L2140,1246L2134,1241L2131,1239Z"/><path d="M623,1234L623,1236L624,1239L625,1243L627,1243L628,1237L630,1237L635,1238L637,1239L639,1241L639,1250L640,1252L646,1252L648,1250L648,1242L646,1242L645,1250L642,1249L641,1245L641,1239L639,1237L635,1236L631,1235L625,1234Z"/><path d="M591,1231L590,1236L588,1237L584,1238L584,1240L585,1244L587,1244L587,1240L589,1238L592,1238L593,1237L596,1238L596,1250L598,1252L604,1251L605,1249L605,1241L607,1239L615,1240L617,1240L617,1238L615,1237L607,1237L606,1238L604,1238L603,1240L602,1248L598,1247L598,1235L600,1233L600,1231L598,1231L597,1232L594,1232L593,1231Z"/><path d="M98,1227L98,1232L97,1233L97,1242L99,1242L99,1238L101,1237L101,1229L100,1227Z"/><path d="M2378,1223L2377,1225L2373,1225L2357,1224L2357,1229L2360,1233L2360,1237L2359,1244L2361,1244L2362,1240L2365,1241L2365,1246L2366,1248L2375,1256L2380,1262L2382,1264L2385,1266L2387,1266L2387,1264L2386,1261L2382,1257L2380,1254L2379,1250L2376,1245L2371,1240L2369,1240L2368,1241L2365,1240L2364,1238L2363,1235L2364,1234L2365,1230L2368,1230L2371,1231L2376,1234L2382,1235L2388,1238L2390,1239L2391,1242L2395,1242L2396,1243L2402,1243L2409,1245L2415,1244L2415,1242L2414,1240L2410,1240L2401,1237L2397,1235L2391,1232L2388,1230L2384,1227L2380,1223Z"/><path d="M397,1209L395,1210L394,1232L397,1233L398,1239L398,1244L396,1245L396,1252L397,1254L400,1254L399,1236L399,1234L401,1217L401,1213L399,1209Z"/><path d="M2247,1208L2247,1210L2250,1213L2250,1215L2253,1217L2253,1219L2250,1222L2245,1225L2241,1228L2240,1234L2241,1236L2243,1236L2245,1235L2252,1231L2256,1228L2259,1229L2260,1235L2260,1237L2252,1244L2251,1245L2251,1246L2249,1248L2246,1253L2245,1255L2244,1258L2244,1260L2246,1260L2250,1255L2252,1253L2253,1252L2254,1252L2256,1250L2259,1249L2262,1247L2266,1244L2269,1241L2270,1239L2271,1230L2271,1225L2269,1225L2266,1224L2264,1222L2261,1221L2261,1219L2262,1218L2262,1215L2261,1213L2259,1211L2257,1210L2255,1209L2252,1208Z"/><path d="M2101,1207L2099,1208L2098,1213L2091,1213L2086,1214L2085,1215L2082,1215L2080,1213L2078,1213L2075,1215L2075,1217L2074,1218L2074,1221L2071,1224L2069,1225L2060,1225L2058,1226L2057,1228L2055,1228L2055,1230L2074,1230L2093,1231L2104,1233L2106,1233L2106,1230L2101,1225L2099,1224L2097,1223L2088,1222L2088,1220L2090,1218L2092,1218L2094,1216L2101,1216L2105,1218L2122,1219L2121,1222L2119,1223L2116,1223L2116,1229L2117,1231L2121,1235L2123,1236L2127,1236L2126,1232L2127,1229L2130,1229L2133,1230L2138,1232L2145,1236L2148,1236L2150,1234L2150,1232L2148,1230L2147,1230L2140,1224L2136,1222L2133,1219L2134,1216L2137,1215L2137,1212L2138,1211L2138,1209L2136,1208L2131,1208L2121,1212L2118,1212L2113,1209L2110,1208L2107,1207Z"/><path d="M2039,1207L2035,1208L2032,1210L2028,1211L2024,1211L2015,1209L2012,1209L2012,1214L2015,1215L2015,1220L2010,1224L2005,1227L2001,1230L2001,1232L2000,1233L2000,1235L2001,1237L2003,1237L2005,1236L2019,1228L2023,1229L2023,1231L2022,1232L2022,1235L2024,1237L2026,1237L2028,1236L2030,1235L2033,1232L2034,1232L2036,1230L2037,1228L2037,1224L2034,1224L2030,1223L2028,1222L2025,1219L2026,1216L2035,1217L2041,1218L2042,1219L2050,1220L2062,1220L2062,1213L2049,1212L2049,1207Z"/><path d="M2378,1205L2373,1208L2370,1209L2362,1211L2359,1211L2356,1210L2354,1208L2351,1207L2348,1206L2341,1206L2340,1207L2337,1207L2337,1209L2340,1211L2339,1214L2323,1214L2318,1209L2315,1209L2313,1210L2310,1213L2303,1214L2301,1216L2301,1220L2300,1222L2298,1223L2297,1225L2297,1229L2299,1229L2302,1228L2307,1224L2309,1223L2314,1223L2318,1225L2322,1225L2325,1227L2330,1227L2331,1228L2336,1227L2336,1222L2338,1218L2340,1218L2342,1217L2343,1215L2345,1214L2348,1214L2351,1217L2369,1218L2372,1218L2376,1213L2380,1211L2382,1209L2383,1207L2383,1205Z"/><path d="M1531,1205L1530,1206L1527,1206L1527,1208L1526,1209L1526,1211L1531,1211L1538,1213L1544,1212L1544,1209L1540,1205Z"/><path d="M2288,1204L2287,1205L2282,1205L2278,1206L2275,1208L2273,1208L2271,1209L2272,1214L2274,1214L2279,1217L2283,1218L2290,1219L2292,1219L2293,1218L2295,1218L2295,1214L2291,1213L2291,1211L2295,1208L2294,1205L2292,1204Z"/><path d="M2600,1195L2599,1196L2597,1196L2597,1202L2598,1203L2597,1210L2595,1210L2590,1207L2587,1206L2580,1206L2579,1210L2577,1212L2573,1214L2564,1214L2562,1213L2561,1210L2557,1205L2557,1204L2554,1203L2552,1206L2549,1208L2547,1209L2543,1210L2543,1211L2541,1213L2535,1214L2532,1213L2532,1210L2534,1209L2534,1207L2529,1205L2526,1205L2525,1206L2521,1206L2516,1209L2513,1210L2507,1209L2508,1204L2508,1201L2504,1201L2501,1203L2497,1207L2494,1212L2489,1214L2482,1220L2480,1220L2476,1223L2471,1229L2468,1230L2464,1234L2457,1237L2454,1241L2451,1242L2451,1244L2461,1244L2466,1243L2471,1242L2475,1241L2477,1240L2479,1239L2480,1238L2484,1233L2490,1230L2493,1229L2497,1230L2497,1233L2496,1235L2493,1239L2491,1243L2491,1247L2490,1250L2489,1252L2488,1254L2487,1255L2482,1259L2480,1261L2478,1264L2473,1274L2472,1277L2469,1276L2469,1272L2467,1272L2461,1274L2460,1276L2458,1280L2455,1288L2454,1290L2448,1301L2441,1308L2438,1309L2438,1311L2439,1312L2439,1314L2443,1316L2444,1317L2444,1318L2449,1326L2452,1329L2453,1331L2454,1336L2455,1338L2456,1340L2458,1341L2458,1344L2461,1344L2465,1347L2468,1350L2470,1353L2471,1355L2471,1358L2474,1360L2478,1365L2487,1378L2492,1383L2495,1387L2496,1389L2495,1392L2490,1392L2485,1388L2476,1383L2470,1380L2468,1380L2464,1383L2465,1386L2471,1391L2476,1395L2480,1398L2484,1400L2493,1408L2497,1410L2503,1415L2510,1422L2515,1422L2515,1419L2512,1414L2513,1411L2518,1411L2518,1409L2516,1409L2512,1406L2508,1402L2508,1400L2510,1398L2511,1397L2514,1396L2517,1399L2518,1403L2520,1406L2522,1406L2525,1405L2527,1404L2529,1400L2529,1398L2525,1394L2523,1394L2521,1392L2519,1392L2517,1391L2511,1385L2507,1382L2504,1381L2502,1380L2501,1379L2500,1378L2499,1377L2498,1375L2498,1373L2497,1371L2496,1369L2494,1366L2490,1362L2490,1360L2487,1356L2482,1349L2479,1347L2476,1346L2474,1344L2470,1342L2469,1339L2469,1337L2465,1336L2465,1331L2464,1326L2462,1323L2462,1320L2459,1319L2457,1317L2454,1317L2451,1319L2449,1319L2446,1316L2447,1313L2452,1309L2456,1308L2459,1305L2461,1300L2465,1295L2466,1293L2466,1290L2468,1285L2471,1286L2471,1291L2474,1290L2475,1287L2475,1284L2477,1279L2480,1273L2483,1268L2485,1265L2489,1260L2494,1255L2497,1251L2498,1249L2498,1246L2500,1244L2501,1244L2502,1243L2505,1239L2506,1237L2509,1230L2510,1227L2510,1223L2508,1221L2501,1220L2502,1217L2509,1217L2513,1216L2514,1215L2516,1215L2524,1216L2527,1219L2529,1219L2531,1221L2532,1221L2533,1225L2530,1228L2531,1231L2536,1231L2541,1230L2543,1229L2544,1228L2545,1226L2545,1223L2546,1221L2550,1220L2555,1224L2559,1225L2562,1225L2563,1224L2568,1225L2568,1227L2567,1228L2567,1230L2569,1231L2571,1232L2588,1232L2588,1230L2586,1228L2583,1226L2582,1226L2579,1224L2577,1222L2578,1218L2580,1217L2598,1217L2604,1218L2606,1219L2606,1223L2601,1223L2597,1224L2595,1225L2595,1228L2596,1230L2599,1233L2600,1233L2602,1235L2602,1238L2600,1239L2600,1244L2603,1247L2617,1260L2620,1264L2621,1267L2622,1267L2625,1269L2630,1274L2636,1274L2636,1272L2635,1270L2634,1269L2633,1269L2632,1265L2630,1262L2628,1259L2623,1252L2620,1248L2616,1244L2616,1243L2613,1240L2611,1239L2608,1239L2606,1238L2606,1229L2610,1229L2613,1230L2615,1231L2623,1237L2631,1241L2634,1242L2638,1243L2643,1244L2647,1244L2648,1242L2652,1242L2651,1239L2649,1239L2644,1237L2642,1236L2639,1234L2636,1232L2632,1229L2621,1220L2616,1215L2611,1209L2609,1205L2605,1201L2604,1198L2603,1196Z"/><path d="M348,1189L348,1194L346,1195L346,1202L347,1203L347,1205L349,1205L349,1203L348,1197L350,1196L350,1189Z"/><path d="M1160,1183L1158,1184L1155,1187L1153,1187L1153,1189L1155,1189L1170,1187L1169,1184L1166,1183Z"/><path d="M1486,1172L1484,1173L1484,1175L1486,1177L1491,1177L1497,1179L1503,1179L1507,1181L1509,1183L1510,1186L1513,1186L1515,1184L1514,1178L1513,1178L1511,1176L1507,1176L1502,1173L1489,1172Z"/><path d="M84,1170L85,1177L85,1180L84,1182L82,1184L78,1184L78,1235L80,1235L81,1227L83,1227L85,1230L88,1231L90,1237L90,1242L92,1242L92,1232L90,1231L90,1225L89,1223L87,1223L86,1221L84,1221L83,1222L80,1221L81,1201L84,1200L86,1200L87,1190L90,1189L90,1187L91,1186L91,1183L87,1182L87,1179L88,1171L86,1170Z"/><path d="M49,1168L48,1185L47,1215L47,1221L49,1233L49,1246L51,1256L51,1259L51,1285L50,1297L48,1297L46,1295L44,1289L44,1287L42,1287L41,1286L37,1287L37,1298L35,1302L32,1303L30,1305L29,1307L27,1313L25,1313L25,1315L27,1316L27,1318L26,1319L25,1323L25,1325L26,1329L25,1354L23,1369L23,1373L25,1374L25,1386L26,1393L27,1398L28,1402L29,1404L32,1405L32,1407L34,1409L36,1409L39,1406L41,1406L42,1407L44,1407L44,1402L46,1401L46,1399L43,1393L42,1389L41,1385L40,1380L40,1372L38,1365L38,1344L40,1336L40,1328L41,1323L42,1320L43,1317L46,1312L46,1305L48,1303L48,1302L52,1302L53,1304L53,1315L51,1316L51,1318L55,1325L56,1329L57,1332L59,1332L59,1330L61,1329L62,1312L62,1299L59,1290L58,1282L57,1271L57,1249L55,1248L56,1239L55,1232L55,1228L56,1184L55,1175L53,1173L53,1169L52,1167Z"/><path d="M1498,1158L1496,1159L1495,1162L1499,1166L1503,1167L1508,1166L1508,1163L1507,1160L1505,1158Z"/><path d="M2684,1132L2684,1139L2683,1145L2681,1147L2679,1147L2679,1162L2677,1169L2676,1193L2676,1200L2677,1201L2677,1208L2675,1259L2675,1262L2676,1270L2678,1275L2680,1276L2684,1276L2684,1274L2687,1270L2691,1270L2691,1273L2689,1278L2686,1278L2685,1283L2685,1285L2690,1289L2689,1302L2687,1302L2687,1304L2686,1305L2686,1309L2688,1313L2694,1314L2694,1318L2697,1320L2696,1323L2695,1338L2698,1340L2698,1348L2696,1352L2694,1352L2694,1357L2693,1362L2692,1367L2689,1375L2689,1377L2692,1378L2692,1386L2690,1389L2689,1392L2689,1401L2691,1401L2692,1400L2696,1399L2700,1399L2702,1394L2702,1390L2703,1386L2704,1384L2707,1383L2707,1379L2708,1378L2709,1370L2710,1359L2710,1347L2708,1346L2707,1343L2707,1340L2708,1328L2710,1327L2710,1322L2707,1319L2708,1313L2710,1313L2710,1310L2706,1309L2707,1304L2709,1304L2709,1301L2708,1300L2708,1298L2706,1298L2705,1299L2702,1299L2700,1297L2699,1291L2699,1284L2702,1281L2704,1281L2704,1279L2700,1279L2698,1277L2697,1275L2696,1271L2694,1268L2691,1268L2689,1267L2687,1263L2686,1262L2685,1260L2683,1249L2683,1245L2684,1240L2687,1235L2687,1232L2693,1226L2697,1224L2697,1221L2696,1220L2694,1210L2693,1201L2693,1180L2692,1171L2690,1163L2689,1155L2689,1146L2687,1141L2687,1136L2686,1135L2686,1132Z"/><path d="M2704,1130L2704,1132L2703,1133L2704,1144L2704,1147L2703,1154L2706,1155L2706,1161L2705,1170L2706,1181L2705,1182L2705,1193L2703,1206L2702,1207L2702,1211L2703,1219L2705,1219L2705,1217L2706,1216L2707,1205L2712,1195L2714,1184L2714,1179L2713,1178L2712,1171L2712,1164L2711,1158L2709,1155L2709,1146L2708,1142L2706,1140L2706,1130Z"/><path d="M396,1126L394,1128L392,1128L390,1130L389,1133L390,1142L391,1142L393,1144L396,1145L399,1145L399,1141L401,1139L404,1139L406,1137L407,1129L405,1127L403,1126Z"/><path d="M696,1125L695,1132L689,1133L689,1138L691,1140L696,1140L698,1141L699,1146L701,1146L702,1144L705,1145L705,1147L707,1147L707,1142L706,1137L705,1134L704,1132L701,1127L699,1125Z"/><path d="M351,1124L350,1127L349,1131L348,1135L347,1150L348,1159L348,1162L347,1163L347,1166L348,1173L350,1174L349,1178L347,1178L347,1185L349,1187L351,1187L351,1183L352,1180L354,1178L355,1176L356,1172L357,1164L357,1124L355,1124L354,1123Z"/><path d="M44,1111L43,1121L43,1126L44,1127L44,1130L46,1130L46,1125L48,1123L48,1119L46,1118L46,1111Z"/><path d="M1366,1101L1363,1103L1363,1106L1360,1113L1360,1117L1359,1119L1357,1121L1355,1123L1355,1125L1351,1130L1350,1133L1350,1135L1353,1138L1355,1141L1357,1147L1357,1151L1354,1160L1351,1165L1351,1168L1350,1171L1344,1177L1338,1182L1331,1188L1322,1188L1319,1190L1313,1191L1310,1192L1305,1194L1300,1196L1292,1200L1285,1204L1280,1207L1277,1209L1267,1216L1262,1222L1260,1223L1258,1223L1247,1233L1244,1236L1243,1239L1239,1242L1237,1245L1224,1265L1223,1267L1223,1270L1221,1272L1219,1277L1215,1287L1214,1290L1212,1301L1211,1304L1208,1309L1207,1317L1205,1321L1204,1325L1204,1333L1203,1337L1202,1341L1200,1344L1199,1349L1199,1378L1200,1392L1202,1397L1203,1409L1204,1414L1205,1418L1207,1425L1209,1429L1213,1437L1219,1446L1223,1451L1231,1460L1231,1461L1234,1464L1235,1464L1237,1466L1236,1469L1233,1470L1228,1470L1226,1472L1226,1474L1227,1475L1227,1478L1229,1483L1232,1488L1234,1491L1246,1503L1249,1505L1253,1508L1256,1509L1259,1511L1268,1512L1272,1512L1274,1511L1275,1508L1278,1507L1281,1510L1286,1510L1291,1508L1295,1507L1299,1503L1306,1499L1310,1495L1313,1491L1315,1488L1317,1485L1318,1483L1319,1479L1320,1467L1320,1464L1319,1461L1318,1458L1316,1455L1312,1451L1312,1450L1309,1447L1306,1445L1304,1444L1302,1444L1302,1446L1305,1452L1306,1456L1306,1461L1307,1462L1307,1466L1306,1475L1305,1479L1304,1483L1301,1487L1296,1492L1294,1493L1290,1494L1285,1499L1279,1502L1278,1503L1275,1504L1268,1503L1264,1501L1254,1496L1245,1486L1243,1485L1242,1483L1242,1478L1243,1471L1242,1459L1240,1455L1238,1454L1237,1454L1235,1453L1234,1452L1232,1448L1226,1443L1224,1439L1222,1436L1222,1432L1220,1428L1220,1424L1217,1421L1216,1416L1214,1414L1213,1412L1210,1403L1210,1390L1207,1383L1206,1375L1206,1368L1207,1363L1209,1360L1210,1353L1210,1351L1209,1350L1208,1346L1209,1333L1210,1333L1213,1331L1217,1327L1218,1324L1220,1319L1219,1307L1219,1300L1221,1297L1226,1292L1227,1289L1233,1283L1235,1280L1237,1275L1244,1268L1246,1264L1249,1262L1250,1259L1253,1254L1254,1253L1258,1249L1262,1247L1263,1244L1266,1243L1269,1241L1270,1239L1272,1239L1275,1237L1278,1236L1281,1236L1283,1238L1283,1239L1290,1241L1292,1241L1293,1240L1296,1240L1301,1237L1304,1237L1305,1236L1307,1235L1310,1234L1312,1236L1320,1236L1322,1234L1324,1234L1326,1236L1330,1237L1331,1240L1334,1240L1336,1242L1336,1244L1339,1246L1340,1250L1347,1256L1348,1260L1352,1261L1352,1264L1356,1267L1364,1268L1366,1268L1366,1265L1365,1264L1366,1260L1370,1261L1371,1265L1372,1266L1374,1267L1376,1267L1378,1266L1379,1265L1380,1263L1380,1260L1382,1258L1383,1252L1384,1250L1388,1246L1391,1246L1394,1244L1395,1241L1398,1241L1399,1236L1404,1236L1405,1237L1410,1237L1418,1235L1429,1235L1436,1238L1442,1238L1444,1240L1448,1245L1448,1248L1450,1250L1454,1250L1456,1247L1460,1245L1461,1242L1462,1241L1467,1241L1467,1242L1468,1243L1473,1247L1475,1250L1475,1251L1476,1252L1477,1252L1479,1254L1480,1256L1481,1257L1482,1258L1483,1261L1487,1265L1489,1268L1491,1271L1499,1285L1506,1293L1507,1295L1508,1297L1508,1300L1510,1303L1511,1306L1515,1321L1516,1323L1519,1327L1521,1332L1521,1343L1523,1354L1523,1384L1521,1396L1521,1415L1522,1416L1522,1418L1526,1418L1528,1415L1530,1410L1534,1396L1534,1394L1533,1393L1533,1391L1535,1385L1535,1349L1534,1342L1531,1327L1527,1311L1524,1300L1523,1297L1520,1290L1519,1288L1517,1286L1516,1284L1515,1282L1514,1277L1508,1265L1505,1260L1501,1255L1499,1250L1492,1242L1482,1231L1478,1227L1477,1227L1474,1223L1472,1221L1466,1215L1464,1213L1463,1212L1461,1211L1456,1208L1449,1204L1437,1198L1424,1192L1414,1188L1411,1187L1408,1187L1406,1189L1406,1192L1407,1194L1409,1196L1418,1205L1417,1208L1415,1208L1411,1206L1403,1202L1399,1201L1395,1201L1391,1202L1389,1203L1387,1204L1381,1210L1379,1210L1377,1208L1376,1204L1376,1197L1378,1192L1382,1192L1386,1194L1390,1194L1391,1196L1393,1196L1400,1194L1400,1189L1397,1183L1394,1182L1386,1174L1383,1170L1381,1167L1378,1161L1375,1153L1375,1144L1378,1138L1383,1133L1383,1130L1379,1125L1378,1124L1377,1124L1376,1123L1375,1121L1375,1120L1372,1116L1370,1111L1369,1108L1368,1104L1368,1101Z"/><path d="M340,1085L340,1089L343,1095L345,1098L349,1102L349,1108L351,1113L353,1113L354,1109L358,1110L360,1110L359,1104L359,1100L361,1098L362,1096L362,1094L360,1092L351,1092L348,1091L342,1085Z"/><path d="M94,1084L94,1086L92,1087L91,1088L90,1090L90,1092L88,1094L84,1095L78,1094L78,1091L75,1091L75,1094L77,1095L78,1099L79,1102L80,1118L81,1126L79,1133L78,1142L78,1145L80,1145L81,1142L83,1142L86,1145L85,1148L83,1148L84,1152L86,1152L87,1147L90,1147L90,1144L91,1143L90,1120L90,1118L90,1107L90,1104L92,1102L93,1100L95,1093L95,1087L97,1085L97,1083Z"/><path d="M701,1067L694,1068L693,1069L691,1069L691,1074L686,1080L685,1082L685,1091L682,1094L681,1097L682,1100L684,1100L686,1101L688,1102L690,1105L695,1105L698,1109L701,1110L704,1111L706,1111L706,1109L704,1108L704,1105L703,1103L691,1086L691,1084L692,1082L694,1080L696,1079L699,1079L700,1078L702,1078L705,1074L708,1073L709,1070L707,1067Z"/><path d="M399,1067L386,1068L384,1073L384,1075L386,1076L388,1077L391,1078L395,1078L399,1080L402,1084L402,1086L404,1086L405,1084L405,1080L404,1079L404,1075L405,1074L405,1069L404,1067Z"/><path d="M118,1064L115,1067L113,1067L110,1069L106,1072L106,1076L104,1078L104,1081L107,1081L112,1078L114,1076L115,1076L116,1075L116,1074L120,1074L120,1076L122,1076L121,1072L122,1069L125,1067L125,1064Z"/><path d="M422,1055L420,1056L411,1061L409,1062L408,1067L415,1067L417,1069L422,1069L422,1065L423,1063L426,1059L426,1057L425,1055Z"/><path d="M147,1055L144,1057L144,1059L143,1060L143,1063L144,1069L146,1069L152,1066L156,1062L159,1061L159,1056L157,1055Z"/><path d="M637,1054L637,1056L639,1061L641,1062L645,1062L648,1063L651,1064L653,1066L656,1066L655,1062L653,1061L651,1060L649,1060L645,1058L642,1055L640,1054Z"/><path d="M462,1053L457,1056L455,1056L454,1054L452,1054L451,1055L449,1055L448,1057L445,1057L442,1058L438,1061L436,1061L434,1063L433,1065L434,1068L442,1068L444,1066L446,1066L448,1064L451,1063L452,1060L454,1059L457,1058L463,1057L464,1056L466,1056L466,1054L464,1053Z"/><path d="M208,1051L208,1056L211,1059L217,1058L220,1059L220,1061L219,1062L220,1065L222,1066L227,1065L227,1062L222,1061L222,1059L219,1058L219,1053L215,1053L214,1051Z"/><path d="M296,1047L294,1048L294,1053L292,1055L288,1056L283,1056L281,1058L280,1062L284,1065L288,1065L289,1066L292,1066L294,1065L295,1062L294,1061L294,1058L296,1056L296,1055L297,1054L298,1054L300,1052L301,1050L301,1047Z"/><path d="M604,1045L604,1048L607,1050L609,1051L613,1051L615,1050L615,1047L613,1045L611,1044Z"/><path d="M622,1037L620,1038L618,1040L619,1045L620,1045L622,1047L624,1047L626,1046L628,1044L630,1043L633,1042L636,1042L637,1041L639,1041L639,1038L637,1038L636,1037Z"/><path d="M476,1036L475,1038L471,1038L461,1037L456,1038L454,1039L452,1041L452,1043L462,1043L465,1045L467,1045L472,1042L477,1042L477,1040L478,1039L478,1036Z"/><path d="M119,1028L119,1032L123,1035L123,1038L125,1040L127,1040L129,1038L130,1036L130,1034L129,1033L129,1031L122,1030L122,1027Z"/><path d="M78,997L78,1000L79,1002L81,1003L81,1006L82,1007L82,1009L85,1009L90,1014L92,1015L94,1015L94,1013L93,1012L93,1010L89,1009L89,1005L86,1001L82,997Z"/><path d="M170,977L168,979L168,987L167,992L164,998L162,1001L151,1012L147,1015L139,1019L136,1021L133,1024L134,1028L136,1028L139,1027L145,1025L153,1021L156,1019L161,1015L163,1013L167,1008L169,1005L171,1002L172,1000L174,995L177,986L177,984L175,983L175,978L173,978L172,977Z"/><path d="M2711,878L2710,881L2709,885L2710,902L2710,905L2709,923L2707,927L2706,934L2706,942L2708,949L2708,952L2707,980L2705,986L2705,1022L2707,1057L2707,1059L2705,1066L2705,1068L2706,1070L2708,1070L2709,1068L2709,1055L2710,1047L2712,1039L2713,1030L2713,1019L2715,1010L2716,999L2717,976L2716,958L2716,947L2718,927L2718,925L2717,883L2716,879L2714,877Z"/><path d="M84,795L84,800L83,801L83,807L81,808L81,852L83,882L83,943L82,963L81,965L77,967L77,969L79,971L79,977L83,977L83,974L84,973L84,969L87,963L87,958L89,953L90,948L90,946L89,942L90,941L91,936L91,934L91,920L91,917L90,916L90,914L91,913L91,911L89,895L89,870L90,865L92,862L93,858L94,853L94,846L93,813L91,809L91,802L88,799L88,796L86,795Z"/><path d="M2711,702L2711,704L2709,706L2708,718L2708,730L2711,756L2711,770L2713,780L2713,791L2714,793L2717,793L2717,758L2715,748L2715,746L2716,741L2715,729L2716,706L2715,703L2714,701Z"/><path d="M169,699L168,701L166,702L157,703L157,705L163,706L163,708L161,710L161,711L159,712L158,714L157,717L156,724L156,727L160,728L160,730L156,734L155,736L155,754L153,770L153,781L154,794L153,895L154,903L155,911L157,917L157,930L158,936L160,941L164,941L166,940L166,798L167,767L168,737L169,711L171,701L171,699Z"/><path d="M81,697L80,699L79,703L79,713L80,747L81,770L84,777L84,779L87,779L89,772L93,772L93,769L89,768L88,762L88,744L86,731L86,704L85,699L84,697Z"/><path d="M21,576L19,578L18,581L19,610L19,628L19,670L18,687L18,689L18,709L18,726L19,750L17,841L17,844L18,887L16,918L16,920L18,943L18,964L16,977L15,990L15,998L17,1008L17,1025L16,1068L18,1074L17,1086L17,1088L17,1100L17,1109L18,1115L19,1122L20,1126L21,1127L21,1129L20,1147L18,1151L18,1154L19,1157L22,1160L21,1169L21,1174L21,1191L21,1204L22,1208L23,1210L29,1211L29,1191L28,1190L27,1184L26,1178L28,1177L28,1175L26,1174L25,1167L25,1159L27,1154L27,1150L25,1134L25,1125L27,1110L27,1069L26,1040L24,1033L24,1031L25,1030L25,1028L23,970L23,968L24,967L24,965L22,956L22,951L24,936L25,923L25,920L23,911L23,894L25,877L25,869L25,857L25,855L24,842L24,826L25,821L25,819L25,769L25,761L23,747L23,741L23,696L24,688L24,684L23,576Z"/><path d="M2709,545L2707,548L2707,551L2708,582L2709,583L2709,586L2712,585L2713,579L2713,568L2713,550L2718,549L2717,545Z"/><path d="M87,515L86,516L84,516L83,518L82,521L82,570L81,593L78,611L77,621L77,661L78,684L80,687L80,690L83,690L83,678L84,677L84,659L86,658L86,645L82,644L83,640L85,638L86,636L86,626L87,620L88,619L88,615L86,614L87,610L90,610L90,608L91,607L92,603L92,591L94,579L94,527L92,518L91,516Z"/><path d="M2706,490L2705,492L2704,500L2704,504L2705,522L2707,528L2713,529L2712,533L2707,533L2707,536L2708,537L2708,540L2710,540L2711,537L2714,538L2714,540L2716,540L2716,537L2718,536L2718,533L2716,530L2716,528L2718,524L2718,521L2713,520L2714,516L2716,516L2718,513L2718,511L2716,501L2712,500L2711,498L2711,493L2710,491Z"/><path d="M71,425L71,436L73,436L74,435L77,436L76,444L76,447L79,447L81,449L81,466L83,466L85,465L86,463L87,456L90,455L89,451L87,451L85,449L85,439L84,436L82,434L82,432L79,429L78,429L74,425Z"/><path d="M2483,399L2475,400L2473,401L2474,404L2490,404L2489,400L2487,399Z"/><path d="M2556,396L2542,401L2536,401L2535,405L2534,405L2533,408L2534,410L2541,410L2542,403L2544,403L2550,404L2553,407L2552,411L2552,413L2554,413L2555,412L2558,412L2559,408L2560,408L2562,404L2562,400L2560,396Z"/><path d="M2592,388L2591,394L2587,394L2582,397L2579,398L2580,407L2581,407L2583,409L2588,408L2589,396L2592,395L2594,395L2597,398L2602,398L2602,394L2601,391L2599,387Z"/><path d="M165,382L163,384L162,386L162,392L163,394L169,400L170,402L173,410L174,413L175,417L175,420L174,423L168,434L168,438L165,445L163,447L163,448L158,449L156,451L156,481L154,484L155,560L155,565L154,593L155,607L157,611L158,619L158,621L157,624L155,629L155,641L159,642L160,644L160,647L159,654L157,655L157,660L159,661L159,663L156,665L156,668L156,675L156,678L158,678L159,674L163,675L164,677L163,680L159,680L159,682L163,683L163,686L161,687L161,689L164,692L164,697L166,697L167,692L171,692L171,687L170,686L171,680L170,676L170,674L171,656L170,655L170,651L167,650L167,640L169,636L169,633L167,630L166,621L167,607L169,607L171,604L171,595L170,586L168,579L167,571L166,562L165,543L165,511L166,501L168,500L168,497L166,496L166,473L167,466L168,460L170,458L171,450L172,447L173,445L177,440L177,437L180,435L180,431L181,430L181,421L180,414L179,407L178,401L177,398L175,396L172,389L172,385L169,382Z"/><path d="M2382,363L2381,366L2377,369L2378,373L2380,373L2381,372L2383,372L2385,374L2385,375L2387,377L2390,378L2395,379L2395,381L2395,387L2397,389L2402,391L2404,392L2411,397L2414,398L2414,401L2412,402L2412,404L2419,404L2420,406L2425,406L2429,408L2429,411L2432,415L2432,419L2436,419L2439,418L2441,417L2442,413L2448,411L2448,409L2444,405L2442,405L2437,405L2435,405L2434,407L2430,406L2430,404L2431,403L2431,401L2429,399L2427,399L2425,397L2421,397L2419,394L2414,392L2412,391L2411,390L2408,386L2407,386L2405,384L2405,380L2401,379L2400,376L2400,374L2398,374L2396,372L2395,370L2388,364L2386,363Z"/><path d="M155,361L152,363L149,363L149,370L150,372L158,373L160,373L162,369L166,365L166,363L164,361Z"/><path d="M2655,350L2655,354L2654,356L2651,357L2651,361L2650,362L2650,371L2651,372L2651,382L2652,387L2653,391L2654,395L2655,396L2655,398L2658,397L2660,395L2660,392L2658,387L2657,380L2656,373L2657,356L2657,350Z"/><path d="M1185,326L1185,329L1190,335L1191,338L1194,341L1197,341L1197,339L1191,333L1187,326Z"/><path d="M63,324L62,326L62,328L63,329L63,332L65,335L68,336L68,347L70,347L70,324L68,324L67,323Z"/><path d="M1473,322L1470,324L1470,326L1472,327L1478,329L1480,331L1482,331L1482,329L1484,328L1484,325L1482,323L1480,322Z"/><path d="M137,317L137,322L135,323L135,335L138,336L138,348L140,350L142,351L142,352L145,353L144,349L144,347L146,345L146,343L149,339L150,335L149,331L146,330L145,327L144,322L141,318Z"/><path d="M2388,312L2386,315L2382,315L2379,318L2378,321L2377,321L2371,327L2370,329L2369,330L2368,331L2363,334L2361,334L2359,336L2355,336L2353,338L2347,340L2347,342L2349,344L2349,348L2353,348L2363,347L2367,348L2369,349L2376,357L2380,361L2382,361L2382,357L2380,355L2380,353L2378,350L2376,348L2374,346L2372,346L2370,344L2368,344L2365,341L2366,338L2368,338L2373,334L2377,331L2382,326L2385,322L2386,317L2389,317L2391,315L2390,312Z"/><path d="M1525,298L1521,299L1518,300L1511,304L1506,306L1503,306L1498,309L1486,309L1484,310L1484,317L1488,318L1490,318L1493,316L1503,315L1506,314L1509,313L1512,311L1524,308L1526,306L1529,303L1528,298Z"/><path d="M1398,297L1398,299L1400,300L1404,300L1406,302L1408,302L1409,304L1412,304L1417,306L1421,306L1434,310L1439,310L1443,312L1447,313L1452,312L1452,310L1450,308L1446,306L1440,303L1437,302L1433,301L1429,301L1425,299L1420,298L1413,297Z"/><path d="M2592,297L2592,300L2593,327L2597,335L2600,338L2601,340L2600,345L2598,346L2597,346L2595,347L2594,348L2592,350L2592,353L2595,354L2595,359L2597,360L2596,363L2593,362L2593,359L2589,360L2589,366L2587,368L2587,373L2589,379L2591,381L2595,381L2596,383L2598,383L2598,376L2595,375L2596,372L2599,372L2599,369L2596,368L2597,365L2599,365L2600,356L2603,356L2603,350L2605,346L2606,346L2611,343L2612,340L2611,338L2608,337L2603,332L2601,329L2600,327L2599,309L2600,299L2600,297L2597,297L2596,296Z"/><path d="M1325,295L1319,296L1313,297L1309,298L1305,299L1298,301L1290,304L1283,307L1281,309L1279,309L1266,317L1264,318L1262,319L1259,320L1251,319L1251,316L1253,314L1253,312L1252,310L1250,309L1247,308L1232,308L1229,311L1230,314L1232,315L1238,316L1241,316L1242,315L1247,316L1248,319L1249,323L1244,331L1244,334L1246,336L1248,336L1250,335L1254,332L1256,332L1262,327L1269,323L1281,317L1288,314L1297,311L1301,311L1308,308L1317,306L1328,304L1335,304L1342,302L1348,302L1349,301L1355,302L1357,302L1358,300L1363,300L1364,299L1368,299L1374,300L1375,299L1382,298L1382,296L1375,296L1374,295Z"/><path d="M2387,295L2387,297L2387,304L2387,307L2389,307L2390,309L2392,309L2397,308L2400,306L2400,303L2402,301L2404,299L2404,297L2400,297L2397,300L2392,299L2391,298L2390,294Z"/><path d="M96,292L96,296L95,297L95,301L96,302L96,306L94,310L93,325L92,341L92,344L93,357L92,359L90,361L88,363L88,366L90,369L90,372L91,373L91,375L90,376L89,380L87,380L85,381L83,382L82,385L77,391L76,393L76,396L77,398L80,398L82,397L92,390L97,385L98,383L99,380L99,375L101,373L102,370L102,368L100,367L101,364L103,364L107,358L108,357L110,356L112,354L112,351L110,350L109,344L110,335L112,335L113,331L112,328L109,328L108,331L103,330L104,323L110,323L115,320L116,319L117,317L117,315L114,315L112,317L109,316L108,313L108,307L106,305L104,299L104,297L102,297L99,293Z"/><path d="M1191,280L1191,283L1195,289L1199,293L1202,295L1204,295L1206,297L1209,298L1211,298L1211,296L1209,295L1209,293L1207,291L1203,287L1201,283L1199,280L1197,279Z"/><path d="M87,269L87,273L88,276L89,278L93,278L93,276L91,271L89,269Z"/><path d="M1174,267L1174,269L1173,270L1173,275L1171,281L1168,281L1168,284L1171,285L1171,287L1170,288L1170,290L1172,292L1173,296L1173,304L1176,304L1177,305L1179,305L1179,303L1180,302L1181,295L1181,282L1183,277L1183,271L1181,270L1178,270L1176,267Z"/><path d="M2424,261L2424,263L2423,264L2423,266L2426,267L2430,268L2432,270L2433,270L2433,274L2431,275L2427,277L2424,278L2420,279L2416,280L2411,279L2411,276L2410,274L2403,274L2401,277L2401,279L2402,281L2405,283L2406,291L2410,291L2417,288L2421,288L2425,287L2429,285L2429,284L2430,283L2432,282L2441,277L2446,277L2456,279L2467,278L2471,278L2472,280L2475,281L2481,282L2490,283L2498,284L2500,284L2521,282L2525,282L2535,283L2538,280L2547,279L2549,279L2553,280L2554,278L2559,278L2563,279L2567,280L2570,282L2576,282L2583,285L2585,287L2590,288L2592,288L2593,287L2595,287L2596,285L2597,282L2597,280L2594,279L2594,277L2592,277L2590,275L2584,275L2583,277L2581,278L2575,279L2573,277L2573,275L2568,275L2564,274L2561,271L2562,265L2562,263L2560,263L2559,262L2556,262L2554,264L2552,264L2552,266L2548,270L2543,271L2535,271L2533,273L2530,273L2528,275L2515,275L2514,274L2501,275L2493,274L2490,274L2486,276L2475,276L2467,274L2467,271L2459,270L2458,268L2456,268L2455,269L2453,269L2451,268L2449,265L2447,263L2439,263L2431,261Z"/><path d="M123,260L123,276L122,284L120,290L119,297L119,300L121,303L124,305L125,308L126,308L128,310L129,310L130,311L131,314L134,314L135,315L137,315L137,309L135,309L133,307L132,304L131,299L130,283L128,276L127,269L127,262L126,260Z"/><path d="M1565,248L1564,250L1563,256L1563,267L1561,275L1558,275L1557,274L1555,274L1554,275L1552,275L1552,277L1553,278L1554,285L1557,295L1558,308L1558,311L1556,313L1555,316L1555,321L1556,322L1556,327L1558,327L1560,325L1560,322L1562,320L1564,320L1564,316L1567,311L1567,309L1563,308L1563,298L1566,293L1567,290L1568,286L1568,273L1570,267L1570,260L1569,254L1567,248Z"/><path d="M69,232L67,234L67,236L68,237L68,240L69,242L73,246L74,249L77,252L78,254L78,256L81,261L83,263L83,264L84,265L86,266L88,266L88,259L86,254L84,254L82,252L81,251L80,245L77,242L76,240L76,235L73,235L71,232Z"/><path d="M2445,211L2437,212L2434,214L2429,214L2428,215L2424,215L2424,217L2426,217L2427,218L2430,218L2433,221L2435,222L2438,223L2451,224L2451,227L2453,227L2457,225L2462,224L2467,224L2469,226L2472,226L2474,228L2474,230L2495,230L2508,229L2510,228L2510,226L2499,227L2497,227L2489,225L2489,222L2487,218L2481,219L2479,219L2478,218L2475,218L2470,216L2468,214L2465,213L2457,212L2447,211Z"/><path d="M2587,195L2586,197L2584,197L2582,199L2582,200L2579,202L2579,207L2577,208L2577,210L2579,210L2580,207L2585,208L2585,210L2587,210L2587,208L2584,207L2584,205L2587,202L2589,202L2592,204L2595,203L2596,201L2596,198L2591,198L2590,196Z"/><path d="M2338,194L2338,196L2339,201L2340,205L2341,207L2345,211L2350,214L2353,215L2357,216L2363,217L2370,217L2377,220L2386,221L2390,222L2398,225L2402,225L2403,222L2405,221L2410,221L2410,216L2408,215L2405,215L2402,213L2399,213L2398,212L2396,212L2389,213L2384,212L2368,208L2363,207L2361,206L2359,205L2354,202L2349,198L2346,196L2340,194Z"/><path d="M1189,191L1188,193L1185,200L1181,205L1180,208L1179,211L1178,215L1177,219L1176,225L1175,233L1175,241L1179,240L1180,237L1180,234L1183,225L1185,222L1188,213L1189,209L1190,201L1193,197L1194,192L1194,190Z"/><path d="M1599,187L1597,189L1598,198L1598,202L1597,203L1597,207L1600,206L1600,201L1602,197L1602,195L1601,187Z"/><path d="M2688,179L2677,180L2675,181L2673,183L2672,186L2667,191L2665,195L2663,197L2660,199L2657,201L2654,202L2651,201L2650,199L2650,196L2648,194L2649,189L2649,187L2648,185L2645,185L2645,188L2643,191L2642,194L2641,198L2640,210L2640,213L2642,218L2642,223L2646,223L2648,219L2653,213L2657,212L2660,210L2662,208L2662,207L2665,204L2665,201L2669,197L2673,198L2673,208L2671,212L2672,218L2674,218L2676,216L2678,213L2680,208L2683,205L2684,202L2686,199L2687,194L2687,188L2688,184L2690,181L2690,179Z"/><path d="M2601,177L2598,180L2597,185L2597,189L2599,190L2602,190L2603,188L2605,182L2605,180L2604,178Z"/><path d="M1220,172L1218,174L1216,174L1214,175L1214,181L1218,181L1220,180L1225,176L1226,174L1226,172Z"/><path d="M1497,157L1495,158L1495,160L1498,164L1498,167L1497,168L1497,171L1500,171L1504,173L1507,176L1509,176L1511,175L1511,172L1510,170L1507,168L1505,168L1503,166L1504,161L1504,159L1502,157Z"/><path d="M2326,156L2325,158L2324,165L2324,168L2325,171L2326,173L2329,178L2332,178L2332,176L2331,175L2329,167L2329,155Z"/><path d="M1507,148L1507,150L1506,151L1506,154L1507,155L1507,157L1510,157L1513,159L1515,159L1515,155L1512,152L1510,148Z"/><path d="M381,148L381,154L380,161L379,168L377,173L376,175L372,179L371,181L371,184L367,189L366,192L362,193L362,197L365,197L370,195L370,193L372,191L374,191L377,187L379,184L380,180L381,177L381,171L383,165L383,162L382,161L382,159L383,148Z"/><path d="M1287,141L1287,143L1286,144L1286,146L1290,145L1292,145L1296,147L1301,147L1300,144L1294,143L1292,141Z"/><path d="M2510,133L2507,134L2505,135L2502,138L2501,142L2500,147L2500,156L2501,171L2503,175L2507,175L2508,176L2512,176L2556,175L2559,172L2560,168L2560,146L2559,141L2558,137L2556,135L2552,134L2538,133L2532,133L2518,133Z"/><path d="M2657,132L2655,134L2653,141L2649,141L2646,138L2641,138L2641,146L2645,147L2646,149L2647,154L2647,160L2649,161L2650,167L2649,170L2647,170L2647,174L2649,175L2650,178L2652,178L2652,176L2654,175L2656,170L2659,165L2659,157L2662,155L2662,151L2663,150L2663,144L2662,143L2662,136L2661,135L2661,133L2659,132Z"/><path d="M1448,132L1439,135L1437,136L1433,139L1428,143L1419,151L1418,152L1418,153L1416,155L1416,159L1417,160L1418,166L1422,166L1425,162L1428,161L1429,159L1430,157L1430,155L1431,153L1433,151L1433,150L1436,149L1437,145L1439,143L1441,142L1443,142L1447,139L1449,138L1452,138L1452,132Z"/><path d="M335,132L308,133L306,134L304,136L302,139L301,142L300,145L300,173L301,175L304,178L306,179L325,178L335,178L357,179L359,178L360,177L360,176L362,174L363,170L363,160L363,147L363,143L362,139L361,137L359,135L357,134L355,133L346,132Z"/><path d="M2328,131L2328,134L2326,136L2325,138L2326,141L2327,141L2328,144L2327,148L2329,148L2330,146L2330,139L2331,138L2330,131Z"/><path d="M1551,129L1551,133L1555,144L1555,150L1559,155L1562,155L1567,159L1576,168L1577,170L1577,172L1578,174L1580,176L1580,177L1581,178L1582,178L1583,179L1583,180L1585,182L1585,186L1588,193L1592,193L1592,187L1590,184L1590,178L1589,175L1588,173L1586,171L1585,169L1584,167L1583,164L1584,160L1586,160L1586,158L1585,155L1582,149L1574,148L1573,143L1572,143L1571,142L1571,141L1569,138L1563,132L1557,129Z"/><path d="M1174,126L1168,132L1165,136L1165,144L1169,145L1169,147L1165,154L1161,159L1161,160L1159,161L1157,166L1155,168L1152,169L1150,171L1143,171L1140,168L1139,165L1138,153L1136,153L1134,155L1134,158L1136,159L1136,161L1134,162L1134,164L1136,165L1135,169L1134,181L1131,184L1132,189L1132,192L1131,193L1131,195L1134,196L1135,198L1135,201L1137,203L1137,212L1139,214L1141,214L1141,212L1143,208L1146,198L1149,192L1156,179L1157,175L1159,175L1161,173L1161,171L1163,170L1163,167L1166,164L1172,158L1173,157L1177,156L1177,154L1179,153L1180,151L1180,145L1179,143L1175,142L1175,140L1176,135L1177,131L1178,130L1178,128L1177,126Z"/><path d="M2593,117L2592,118L2589,118L2589,123L2591,126L2593,128L2597,128L2597,124L2596,120L2595,119L2595,117Z"/><path d="M1728,115L1726,116L1724,118L1721,119L1722,125L1722,127L1720,128L1720,130L1724,131L1724,135L1726,136L1728,136L1730,135L1732,131L1734,128L1734,121L1733,119L1730,118L1730,115Z"/><path d="M1646,113L1645,115L1645,118L1647,120L1651,122L1657,124L1663,127L1666,130L1665,133L1660,133L1656,134L1654,136L1651,137L1643,137L1641,138L1640,139L1640,140L1635,141L1632,142L1625,146L1623,146L1620,145L1618,143L1618,142L1616,140L1613,138L1611,136L1607,136L1607,138L1609,140L1609,146L1610,148L1615,152L1616,155L1620,156L1623,154L1626,154L1628,151L1630,151L1635,147L1637,146L1647,142L1651,141L1665,141L1669,142L1673,143L1676,144L1681,146L1683,147L1685,148L1686,151L1691,151L1694,152L1700,155L1712,161L1714,163L1717,164L1718,165L1728,176L1735,184L1735,185L1742,193L1743,194L1751,202L1754,204L1757,205L1759,205L1763,202L1768,196L1770,196L1770,194L1769,192L1764,192L1759,195L1757,195L1755,194L1753,192L1752,190L1751,188L1749,180L1745,172L1741,161L1739,154L1739,150L1738,147L1737,143L1735,143L1735,147L1733,151L1733,161L1735,165L1734,168L1732,168L1729,165L1724,158L1717,152L1717,145L1717,142L1716,140L1714,138L1713,136L1713,134L1714,128L1709,124L1707,124L1701,125L1695,122L1688,122L1684,119L1680,118L1678,117L1676,116L1675,113L1673,113L1664,114L1660,116L1656,116L1649,113Z"/><path d="M1605,114L1605,121L1606,122L1606,124L1608,126L1612,131L1612,134L1617,134L1618,129L1622,129L1623,131L1626,133L1628,134L1630,134L1631,133L1633,133L1633,131L1631,129L1630,121L1627,121L1624,120L1621,117L1615,117L1611,114L1608,113Z"/><path d="M1200,113L1198,114L1196,116L1197,120L1201,120L1203,118L1202,113Z"/><path d="M2340,111L2337,114L2335,117L2335,124L2337,125L2339,125L2341,124L2346,119L2347,117L2347,113L2345,113L2343,111Z"/><path d="M1127,109L1119,110L1118,111L1115,111L1114,113L1114,115L1115,117L1116,118L1117,118L1118,119L1119,121L1120,123L1120,126L1118,131L1118,135L1120,135L1120,133L1122,131L1126,131L1126,126L1128,123L1130,121L1132,118L1133,115L1132,110L1129,109Z"/><path d="M1698,105L1698,108L1697,109L1698,113L1704,112L1705,110L1705,107L1703,107L1702,105Z"/><path d="M1292,105L1288,106L1285,107L1282,108L1274,111L1272,112L1270,113L1269,114L1268,117L1266,119L1262,122L1257,123L1252,123L1248,125L1246,126L1245,131L1244,133L1240,134L1239,132L1237,132L1232,136L1225,142L1218,149L1214,151L1213,156L1213,158L1214,160L1218,161L1221,160L1226,156L1230,152L1234,150L1240,144L1241,142L1243,136L1244,135L1245,134L1247,133L1252,131L1255,128L1259,125L1263,126L1263,130L1264,132L1270,133L1272,135L1275,135L1276,134L1279,134L1282,138L1285,137L1285,134L1283,130L1281,129L1277,129L1271,127L1271,124L1273,122L1275,121L1281,118L1284,117L1289,116L1294,116L1297,120L1300,122L1305,123L1307,124L1316,133L1318,136L1319,138L1320,144L1320,149L1319,151L1310,152L1310,155L1311,157L1314,160L1315,163L1319,165L1327,164L1327,162L1325,161L1325,159L1322,158L1321,152L1322,149L1325,149L1326,147L1326,141L1327,136L1329,135L1329,131L1328,129L1325,125L1321,120L1319,118L1318,118L1315,115L1313,114L1311,113L1306,112L1305,106L1300,105Z"/><path d="M1431,104L1429,105L1427,106L1426,107L1425,109L1425,112L1423,114L1420,115L1415,122L1411,125L1411,127L1409,128L1407,131L1406,134L1406,137L1404,140L1404,144L1406,148L1408,149L1411,149L1412,150L1415,149L1416,140L1418,140L1417,136L1417,134L1419,130L1420,129L1423,128L1426,124L1427,121L1431,118L1437,118L1438,116L1440,116L1442,117L1449,124L1452,125L1456,125L1458,127L1461,127L1465,130L1467,131L1473,131L1474,133L1476,134L1479,135L1482,135L1488,138L1493,137L1493,134L1491,132L1490,132L1487,129L1487,128L1483,124L1482,120L1480,119L1475,117L1469,113L1460,109L1457,108L1453,107L1449,106L1438,106L1434,105L1433,104Z"/><path d="M1748,103L1746,104L1745,105L1744,107L1744,109L1745,114L1738,125L1738,129L1740,129L1741,125L1743,121L1745,119L1745,118L1751,117L1751,112L1753,111L1752,103Z"/><path d="M115,103L109,104L109,110L95,124L93,129L91,131L88,133L84,135L81,137L77,137L76,136L73,136L71,138L71,142L72,147L75,150L76,152L76,155L78,158L79,170L78,174L78,176L80,179L80,181L78,182L78,184L84,190L87,191L89,193L89,195L87,201L87,206L85,208L83,209L76,209L75,207L73,207L72,206L65,205L65,190L64,189L64,187L60,187L56,189L54,190L53,192L49,193L49,195L50,200L52,204L54,206L56,208L56,210L58,212L59,217L64,227L66,229L68,229L68,223L67,221L65,219L64,215L61,212L62,208L65,208L67,209L68,210L68,211L69,212L71,213L76,214L82,222L84,228L89,233L91,233L93,231L93,225L91,222L90,218L91,214L93,209L94,205L94,199L93,192L92,188L91,183L89,180L88,177L87,172L86,157L86,149L87,147L89,145L94,144L94,140L95,137L96,134L100,129L107,123L108,121L113,118L114,117L116,114L116,113L120,111L120,108L121,107L121,104L119,104L118,103Z"/><path d="M1017,101L1018,106L1020,107L1021,107L1025,110L1027,110L1029,109L1029,106L1027,104L1025,103L1023,102L1020,102L1019,101Z"/><path d="M1008,93L1008,96L1011,98L1013,99L1016,99L1016,97L1015,95L1013,93Z"/><path d="M194,90L187,91L179,95L174,98L171,100L167,103L157,112L154,116L150,118L147,121L143,121L143,124L145,125L144,129L145,132L150,135L151,138L150,140L147,141L146,139L144,138L141,138L141,142L143,144L146,144L147,143L151,144L151,145L153,147L154,151L154,155L157,155L157,149L159,143L160,140L162,138L162,136L163,134L167,127L169,124L176,117L180,114L184,112L190,109L196,107L202,106L205,104L210,103L221,102L231,102L232,103L243,103L253,105L263,105L271,104L272,103L275,103L275,101L274,100L274,98L264,98L256,96L256,94L249,94L248,93L235,92L202,92L201,90Z"/><path d="M342,89L340,90L338,92L330,93L327,95L325,95L323,94L322,91L319,91L316,94L310,94L307,96L295,96L294,97L289,97L289,99L287,101L284,102L284,104L289,104L290,105L306,105L313,106L315,108L320,108L321,107L328,106L337,106L343,107L349,108L352,109L354,111L356,111L365,117L366,120L367,122L369,124L371,126L373,127L375,127L375,125L374,124L374,121L372,119L372,117L374,115L378,115L380,117L381,117L382,118L382,119L384,122L388,126L390,130L391,134L392,136L394,138L395,140L395,146L398,153L398,162L396,164L395,168L395,174L394,177L391,182L390,183L387,184L386,186L386,190L388,191L388,193L386,195L384,196L380,197L378,195L376,195L372,197L369,201L365,202L364,205L363,206L359,208L356,209L347,209L340,210L339,211L337,211L336,213L332,213L331,214L328,214L325,213L320,210L309,209L282,209L282,212L282,218L277,217L276,216L275,215L268,216L264,216L258,210L250,209L248,209L226,211L204,211L195,213L193,213L191,212L188,209L186,208L184,207L181,206L177,206L174,205L171,202L168,201L165,199L159,193L156,188L155,186L155,180L151,177L149,174L142,161L142,159L140,157L138,157L137,160L135,160L135,167L136,174L137,177L138,179L142,180L142,186L145,192L147,195L151,199L154,200L157,203L157,206L159,208L162,210L167,213L169,213L173,216L177,218L180,219L183,220L189,220L196,221L197,223L199,224L202,225L207,225L211,222L213,221L217,221L221,219L226,218L235,217L241,218L241,221L254,221L262,222L266,224L279,223L279,222L280,221L282,220L284,220L294,222L335,221L337,221L339,223L346,223L347,222L349,222L351,219L361,218L365,216L369,217L369,219L361,228L350,238L349,243L353,243L356,241L364,234L376,227L398,205L401,201L401,194L404,189L404,187L401,186L401,183L405,176L408,166L409,161L409,145L406,144L405,141L405,134L407,133L407,131L406,129L404,127L404,124L400,116L395,116L391,112L386,112L376,102L373,100L362,94L356,91L354,91L353,92L351,92L348,90L345,90L344,89Z"/><path d="M2455,85L2450,89L2446,88L2446,86L2431,86L2425,87L2419,89L2418,92L2405,93L2402,93L2401,92L2398,92L2397,93L2394,93L2393,92L2389,92L2385,94L2373,100L2372,102L2367,104L2365,108L2366,111L2369,111L2372,110L2375,109L2379,106L2383,105L2387,105L2390,104L2393,102L2400,101L2402,100L2404,98L2407,98L2419,100L2421,100L2426,99L2435,101L2446,102L2459,103L2473,103L2495,103L2509,103L2513,101L2515,101L2516,94L2521,94L2521,92L2508,92L2505,90L2500,90L2494,89L2493,87L2487,87L2479,85L2470,86L2469,91L2459,90L2459,85Z"/><path d="M861,73L862,76L865,77L869,80L872,83L872,85L874,86L876,87L879,87L881,86L881,84L878,82L873,79L865,74L863,73Z"/><path d="M930,72L928,73L929,78L931,79L940,83L943,85L947,89L951,91L955,95L958,96L958,98L957,99L957,101L960,103L962,107L963,111L965,114L968,117L971,124L972,126L973,127L975,128L978,128L979,126L983,125L983,113L985,111L989,112L989,114L992,117L994,120L994,127L996,131L997,135L997,145L996,148L991,158L989,165L987,171L985,181L984,184L981,190L980,192L979,193L977,194L974,194L972,193L970,192L968,189L967,186L965,183L963,182L963,181L961,179L961,178L957,177L957,181L958,184L961,190L963,193L966,195L967,198L972,204L975,210L980,210L982,208L983,205L986,202L988,199L990,194L993,190L1001,182L1002,179L1005,175L1006,174L1009,173L1014,170L1019,165L1026,160L1031,157L1036,155L1039,152L1045,149L1050,147L1053,146L1057,145L1062,144L1070,143L1084,143L1088,144L1098,147L1101,148L1104,151L1111,154L1117,159L1119,160L1121,160L1121,156L1122,153L1124,150L1125,147L1125,143L1123,143L1121,145L1114,145L1112,144L1109,141L1104,138L1099,136L1092,133L1088,133L1086,132L1086,128L1091,127L1096,127L1101,126L1104,125L1106,123L1107,123L1108,122L1111,118L1111,116L1110,114L1108,113L1106,113L1100,116L1081,116L1069,117L1065,119L1057,123L1054,125L1051,128L1050,134L1048,135L1042,138L1039,137L1040,134L1043,133L1043,131L1041,131L1035,132L1034,135L1029,139L1029,141L1031,142L1031,144L1025,150L1023,151L1020,151L1020,153L1017,156L1014,157L1011,157L1006,162L1003,161L1003,154L1004,146L1005,144L1008,142L1009,140L1012,137L1014,134L1014,131L1012,129L1010,122L1009,120L1006,116L1002,114L1002,108L999,108L999,114L997,116L993,115L993,114L991,112L988,111L987,108L985,106L977,105L976,102L971,97L970,94L969,92L968,91L966,90L964,89L960,88L957,85L957,83L960,79L959,76L957,76L954,74L941,74L939,72Z"/><path d="M1792,71L1792,73L1790,75L1783,75L1782,78L1780,78L1778,79L1777,84L1776,84L1775,87L1769,93L1769,98L1765,102L1763,106L1758,111L1758,114L1757,116L1754,119L1751,119L1751,128L1753,134L1753,139L1751,144L1751,149L1750,150L1750,154L1755,154L1755,151L1756,148L1758,145L1758,140L1759,136L1762,130L1764,125L1765,123L1770,116L1771,112L1773,110L1773,108L1776,104L1780,100L1781,96L1787,90L1792,87L1798,81L1802,79L1805,78L1808,77L1810,75L1812,73L1812,71Z"/><path d="M275,70L275,72L276,73L276,75L278,76L282,77L287,77L287,75L286,74L286,72L282,71L279,70Z"/><path d="M1765,69L1761,73L1761,78L1769,77L1769,75L1772,73L1772,71L1768,71L1767,69Z"/><path d="M2514,64L2508,65L2504,66L2494,70L2491,70L2482,69L2475,70L2471,72L2465,72L2464,70L2462,70L2460,72L2458,72L2457,73L2456,75L2454,76L2454,78L2473,78L2474,77L2476,77L2479,74L2490,74L2492,72L2503,72L2508,74L2525,74L2537,75L2546,76L2554,78L2564,78L2571,81L2577,81L2578,80L2584,80L2584,78L2582,76L2580,75L2578,75L2577,73L2568,73L2567,71L2560,70L2554,69L2546,68L2535,68L2529,67L2528,65L2523,65L2522,64Z"/><path d="M236,62L209,63L197,64L189,65L182,66L176,67L171,68L162,70L158,71L152,73L143,76L133,80L131,81L130,83L127,83L126,87L125,87L124,88L123,90L123,92L127,95L128,99L132,99L133,98L136,98L137,100L139,100L140,98L142,98L143,95L147,95L151,92L153,91L159,89L167,87L176,83L178,83L179,80L182,79L187,79L189,78L191,76L194,75L202,75L204,73L209,72L211,72L212,73L214,73L221,71L227,72L229,72L232,71L236,69L253,70L253,72L259,72L259,70L254,69L254,67L252,65L249,64L246,63L238,62Z"/><path d="M2610,56L2608,57L2607,59L2607,61L2610,62L2614,66L2617,66L2620,65L2622,63L2622,61L2620,59L2614,56Z"/><path d="M1982,52L1980,55L1977,56L1975,59L1971,61L1969,64L1970,67L1972,68L1976,68L1981,66L1990,67L1990,69L1989,72L1987,74L1985,74L1984,78L1983,80L1979,84L1975,85L1975,87L1970,91L1967,95L1965,98L1963,101L1962,103L1962,106L1963,108L1965,108L1969,105L1982,92L1985,90L1988,90L1991,88L1996,83L2000,80L2008,75L2018,70L2022,65L2027,64L2038,58L2041,56L2042,54L2042,52L2033,52L2031,54L2028,55L2024,56L2019,57L2015,57L2008,56L1998,58L1994,57L1993,53L1990,52Z"/><path d="M909,50L908,51L906,51L906,54L905,56L898,56L897,53L895,53L890,54L882,58L876,58L873,55L870,55L869,54L863,54L859,55L855,57L854,60L851,61L846,61L845,62L842,62L842,65L843,66L843,68L846,70L850,70L854,71L856,73L859,73L860,68L864,67L869,66L871,66L872,67L874,67L887,66L887,64L889,62L893,63L893,68L891,71L891,74L888,77L887,79L888,83L890,83L891,82L894,82L900,77L902,76L904,75L909,74L914,71L922,68L925,68L931,65L937,63L941,63L942,62L944,62L945,60L950,58L953,57L958,58L958,61L957,69L959,69L960,61L962,61L965,59L966,57L966,54L964,53L952,53L918,54L913,53L911,50Z"/><path d="M753,47L754,51L753,54L744,54L742,56L741,60L736,59L736,57L730,56L728,56L725,58L721,58L717,57L712,54L706,53L699,52L697,52L695,54L694,54L693,57L696,60L700,63L703,63L707,66L709,66L711,67L718,71L733,80L741,85L745,88L748,92L749,93L750,93L755,97L761,100L764,103L766,103L767,101L767,98L765,95L762,91L759,87L751,78L743,70L744,67L751,67L760,70L770,70L770,67L766,63L761,60L757,56L757,50L756,48Z"/><path d="M1835,46L1834,48L1833,51L1831,53L1820,54L1801,55L1791,55L1790,54L1780,54L1780,60L1784,59L1786,59L1787,60L1790,60L1793,62L1796,63L1801,64L1806,64L1813,67L1822,69L1831,70L1839,70L1842,68L1842,66L1843,64L1846,63L1849,66L1851,66L1853,67L1854,71L1853,73L1852,74L1847,78L1845,82L1840,87L1840,90L1839,91L1839,93L1842,93L1847,90L1850,88L1850,86L1856,80L1859,78L1861,78L1874,71L1879,67L1881,66L1883,66L1885,65L1887,64L1888,63L1889,61L1889,59L1886,59L1885,58L1880,58L1877,60L1871,60L1867,62L1862,63L1854,62L1854,58L1852,58L1851,60L1849,60L1847,59L1844,56L1844,53L1842,49L1840,47L1837,46Z"/><path d="M162,43L152,44L148,45L146,46L143,50L142,52L142,54L139,56L138,59L140,61L146,61L148,61L153,62L154,61L158,61L159,59L161,59L163,58L164,57L165,55L165,53L154,52L155,49L161,48L166,48L167,45L170,45L171,47L173,47L173,45L172,43Z"/><path d="M1660,41L1659,44L1655,44L1655,46L1657,47L1657,49L1660,49L1662,48L1663,45L1665,45L1668,47L1670,47L1670,44L1667,41Z"/><path d="M1091,34L1085,35L1078,37L1079,40L1081,41L1087,41L1089,43L1089,46L1092,46L1093,44L1095,44L1096,45L1104,47L1110,47L1112,46L1113,40L1109,36L1107,35L1096,34Z"/><path d="M1873,33L1867,35L1867,37L1870,37L1871,38L1875,38L1877,37L1879,35L1879,33Z"/><path d="M858,32L858,35L866,36L868,36L870,35L870,33L868,32Z"/><path d="M1588,31L1586,34L1584,34L1583,37L1581,37L1574,36L1574,38L1578,38L1579,39L1585,40L1585,44L1583,46L1583,49L1587,49L1588,42L1590,42L1592,44L1591,49L1591,51L1595,51L1597,49L1600,49L1602,50L1604,52L1608,52L1614,55L1619,60L1621,61L1625,61L1625,59L1623,55L1623,51L1620,48L1610,39L1607,37L1603,34L1601,34L1599,32L1594,31Z"/><path d="M1144,28L1142,29L1141,31L1139,32L1137,32L1132,35L1123,45L1122,46L1119,47L1113,54L1113,60L1115,62L1115,66L1118,66L1119,62L1122,62L1123,59L1126,59L1127,60L1129,60L1131,59L1131,55L1135,51L1137,50L1139,50L1141,52L1144,52L1146,51L1147,43L1149,43L1151,41L1156,39L1159,39L1162,36L1162,34L1161,32L1157,31L1154,29L1151,28Z"/><path d="M819,28L818,29L807,29L804,31L799,31L796,33L788,33L786,35L784,35L782,38L779,39L778,38L776,38L776,41L778,41L779,42L783,42L785,40L790,38L792,37L797,36L799,34L803,33L813,32L824,32L825,31L832,31L832,29L830,29L829,28Z"/><path d="M251,23L251,25L254,25L257,28L260,29L265,29L267,28L268,24L266,23Z"/><path d="M390,20L381,22L342,22L337,23L332,24L328,26L327,28L326,28L324,30L317,31L310,31L296,36L293,36L292,35L287,34L285,34L285,36L287,37L286,41L284,42L280,42L276,40L276,39L269,38L265,36L260,36L257,34L247,34L239,32L231,32L223,30L214,29L212,29L211,31L206,31L197,30L195,31L193,33L193,38L192,41L189,43L189,45L204,45L209,44L216,41L221,41L224,42L227,44L241,45L253,45L259,46L264,48L269,48L273,50L278,50L282,52L287,52L291,53L295,54L298,55L304,58L308,61L310,62L314,63L318,66L320,67L323,68L323,70L325,70L326,69L329,69L328,66L325,65L324,64L311,52L304,45L305,42L308,42L315,46L320,47L323,50L327,50L330,52L334,53L343,54L349,54L349,51L344,48L339,46L333,42L330,40L328,38L329,35L332,35L335,33L344,32L355,32L359,30L374,30L375,29L389,29L390,30L406,31L431,31L451,33L471,33L476,35L487,35L496,36L511,41L524,42L533,44L549,48L560,52L564,52L568,53L575,55L578,56L581,57L588,60L590,62L592,62L594,63L597,66L602,67L610,72L613,73L616,74L620,74L623,75L630,78L639,83L644,88L647,90L650,92L655,95L658,96L663,97L665,98L672,104L679,107L683,110L694,121L699,124L707,132L712,136L714,136L715,138L718,139L718,136L714,132L714,129L711,125L708,121L703,115L697,108L688,99L684,96L681,95L679,94L678,93L674,88L674,86L669,83L659,74L654,70L648,66L639,60L637,59L631,58L630,57L628,55L628,53L626,51L625,49L626,44L629,42L635,40L637,40L640,44L642,45L645,45L649,47L652,47L653,48L655,48L656,46L656,44L653,40L652,39L647,35L646,35L643,32L644,29L645,28L647,26L652,26L652,23L653,22L653,20L649,20L648,23L640,24L638,26L636,27L629,27L621,25L613,22L608,21L602,20L593,20L588,22L589,25L591,25L597,28L601,32L602,32L605,35L604,39L596,39L591,37L591,35L585,35L586,38L591,39L591,42L596,46L599,48L609,52L612,55L619,58L622,61L630,64L633,67L635,67L637,68L639,70L638,73L634,73L632,72L630,71L626,68L618,65L617,63L615,62L611,61L609,59L604,58L597,54L594,53L584,51L581,50L575,47L572,46L565,44L550,40L546,39L541,39L532,36L527,35L520,34L506,32L495,32L492,30L485,30L466,27L461,25L449,25L440,24L433,22L424,21L414,20Z"/><path d="M2135,18L2128,20L2125,21L2123,22L2118,26L2116,27L2102,27L2100,25L2090,25L2088,26L2088,28L2091,31L2090,34L2089,34L2088,35L2081,43L2081,45L2083,46L2085,46L2086,45L2094,43L2099,42L2103,42L2104,39L2106,38L2109,37L2118,36L2123,33L2126,33L2127,30L2129,30L2134,27L2137,26L2141,25L2147,26L2147,28L2143,32L2139,34L2129,40L2123,43L2118,43L2117,45L2115,45L2112,48L2107,50L2102,53L2095,60L2090,64L2087,65L2085,67L2085,68L2082,71L2080,72L2076,73L2071,78L2069,79L2066,79L2063,81L2049,94L2038,106L2035,108L2035,110L2032,114L2028,118L2026,118L2026,120L2023,124L2021,124L2021,127L2020,129L2015,134L2014,136L2014,139L2012,142L2010,145L2009,146L2007,148L2005,149L2003,151L2002,156L2000,156L2000,158L2002,158L2003,155L2006,154L2006,152L2007,150L2011,148L2014,143L2037,120L2046,112L2047,111L2051,108L2055,105L2061,101L2064,99L2066,99L2069,97L2077,91L2085,86L2092,82L2096,81L2098,80L2109,74L2112,71L2120,67L2125,65L2134,62L2138,62L2141,61L2144,60L2149,57L2156,56L2164,52L2168,51L2175,51L2179,50L2183,49L2190,46L2194,45L2198,44L2204,44L2207,42L2210,42L2215,39L2229,39L2234,38L2238,37L2240,35L2244,34L2255,33L2266,32L2281,32L2291,30L2312,29L2326,29L2354,31L2388,31L2395,32L2401,33L2403,34L2405,36L2404,41L2404,43L2406,44L2406,46L2405,50L2409,50L2415,47L2418,47L2421,46L2429,42L2432,42L2433,41L2436,42L2436,45L2434,47L2428,52L2422,56L2418,59L2418,61L2417,62L2417,65L2421,65L2424,64L2429,62L2434,60L2436,58L2439,57L2442,56L2448,55L2451,54L2457,51L2460,50L2464,49L2478,46L2485,45L2494,44L2505,44L2512,43L2520,39L2527,39L2531,38L2534,36L2537,36L2540,35L2542,34L2542,31L2528,31L2519,33L2510,32L2508,32L2499,33L2491,35L2478,35L2473,36L2456,41L2452,40L2453,35L2453,33L2447,33L2443,35L2439,35L2438,36L2435,36L2428,35L2424,34L2421,31L2419,30L2417,29L2414,29L2407,25L2404,25L2401,23L2398,22L2394,21L2390,20L2379,19L2364,18L2338,18L2326,19L2304,22L2293,22L2282,23L2272,26L2266,27L2251,27L2243,28L2237,29L2232,31L2225,31L2222,33L2217,34L2211,34L2207,36L2202,37L2195,37L2191,39L2183,39L2174,42L2169,43L2164,43L2159,44L2155,45L2150,48L2147,48L2144,49L2139,52L2133,53L2131,55L2124,58L2121,57L2122,54L2123,54L2125,52L2134,48L2141,44L2144,42L2149,38L2155,33L2157,31L2157,26L2146,25L2146,22L2145,20L2143,19L2140,18Z"/><path d="M1460,14L1458,15L1457,17L1453,18L1453,19L1452,20L1447,24L1446,27L1444,27L1444,29L1446,29L1447,27L1450,27L1452,26L1453,24L1455,23L1458,22L1459,18L1460,18L1462,16L1462,14Z"/><path d="M1593,13L1590,14L1588,15L1588,18L1589,20L1591,20L1593,22L1596,22L1599,24L1604,23L1606,23L1607,24L1610,24L1612,25L1613,26L1614,28L1614,35L1617,35L1618,36L1621,36L1633,33L1637,31L1641,31L1642,30L1645,30L1645,26L1644,24L1641,23L1638,21L1634,21L1627,18L1618,16L1607,16L1599,15L1595,13Z"/><path d="M1547,0L1547,4L1548,5L1548,9L1556,10L1558,10L1559,8L1562,7L1571,7L1571,9L1573,9L1573,7L1570,6L1569,0Z"/><path d="M1120,0L1118,3L1111,3L1109,5L1106,5L1103,7L1099,7L1096,8L1091,10L1083,15L1080,16L1075,16L1070,17L1066,19L1066,23L1064,24L1064,26L1066,26L1067,25L1071,24L1075,25L1085,26L1092,22L1095,21L1102,21L1107,19L1113,18L1116,18L1117,20L1126,20L1130,19L1133,18L1138,15L1142,16L1158,17L1159,16L1166,16L1166,13L1164,12L1162,11L1160,11L1158,10L1157,9L1157,8L1156,7L1153,5L1150,3L1147,3L1145,0Z"/></g></svg>