<svg xmlns="http://www.w3.org/2000/svg" viewBox="0 0 1090 260" preserveAspectRatio="none"><g fill="#fff5a0" fill-rule="evenodd"><path d="M745,248L744,250L743,256L743,267L741,275L738,275L737,274L735,274L734,275L732,275L732,277L733,278L734,285L737,295L738,308L738,311L736,313L735,316L735,321L736,322L736,327L738,327L740,325L740,322L742,320L744,320L744,316L747,311L747,309L743,308L743,298L746,293L747,290L748,286L748,273L750,267L750,260L749,254L747,248Z"/><path d="M369,191L368,193L365,200L361,205L360,208L359,211L358,215L357,219L356,225L355,233L355,241L359,240L360,237L360,234L363,225L365,222L368,213L369,209L370,201L373,197L374,192L374,190Z"/><path d="M779,187L777,189L778,198L778,202L777,203L777,207L780,206L780,201L782,197L782,195L781,187Z"/><path d="M400,172L398,174L396,174L394,175L394,181L398,181L400,180L405,176L406,174L406,172Z"/><path d="M677,157L675,158L675,160L678,164L678,167L677,168L677,171L680,171L684,173L687,176L689,176L691,175L691,172L690,170L687,168L685,168L683,166L684,161L684,159L682,157Z"/><path d="M687,148L687,150L686,151L686,154L687,155L687,157L690,157L693,159L695,159L695,155L692,152L690,148Z"/><path d="M467,141L467,143L466,144L466,146L470,145L472,145L476,147L481,147L480,144L474,143L472,141Z"/><path d="M628,132L619,135L617,136L613,139L608,143L599,151L598,152L598,153L596,155L596,159L597,160L598,166L602,166L605,162L608,161L609,159L610,157L610,155L611,153L613,151L613,150L616,149L617,145L619,143L621,142L623,142L627,139L629,138L632,138L632,132Z"/><path d="M731,129L731,133L735,144L735,150L739,155L742,155L747,159L756,168L757,170L757,172L758,174L760,176L760,177L761,178L762,178L763,179L763,180L765,182L765,186L768,193L772,193L772,187L770,184L770,178L769,175L768,173L766,171L765,169L764,167L763,164L764,160L766,160L766,158L765,155L762,149L754,148L753,143L752,143L751,142L751,141L749,138L743,132L737,129Z"/><path d="M354,126L348,132L345,136L345,144L349,145L349,147L345,154L341,159L341,160L339,161L337,166L335,168L332,169L330,171L323,171L320,168L319,165L318,153L316,153L314,155L314,158L316,159L316,161L314,162L314,164L316,165L315,169L314,181L311,184L312,189L312,192L311,193L311,195L314,196L315,198L315,201L317,203L317,212L319,214L321,214L321,212L323,208L326,198L329,192L336,179L337,175L339,175L341,173L341,171L343,170L343,167L346,164L352,158L353,157L357,156L357,154L359,153L360,151L360,145L359,143L355,142L355,140L356,135L357,131L358,130L358,128L357,126Z"/><path d="M908,115L906,116L904,118L901,119L902,125L902,127L900,128L900,130L904,131L904,135L906,136L908,136L910,135L912,131L914,128L914,121L913,119L910,118L910,115Z"/><path d="M826,113L825,115L825,118L827,120L831,122L837,124L843,127L846,130L845,133L840,133L836,134L834,136L831,137L823,137L821,138L820,139L820,140L815,141L812,142L805,146L803,146L800,145L798,143L798,142L796,140L793,138L791,136L787,136L787,138L789,140L789,146L790,148L795,152L796,155L800,156L803,154L806,154L808,151L810,151L815,147L817,146L827,142L831,141L845,141L849,142L853,143L856,144L861,146L863,147L865,148L866,151L871,151L874,152L880,155L892,161L894,163L897,164L898,165L908,176L915,184L915,185L922,193L923,194L931,202L934,204L937,205L939,205L943,202L948,196L950,196L950,194L949,192L944,192L939,195L937,195L935,194L933,192L932,190L931,188L929,180L925,172L921,161L919,154L919,150L918,147L917,143L915,143L915,147L913,151L913,161L915,165L914,168L912,168L909,165L904,158L897,152L897,145L897,142L896,140L894,138L893,136L893,134L894,128L889,124L887,124L881,125L875,122L868,122L864,119L860,118L858,117L856,116L855,113L853,113L844,114L840,116L836,116L829,113Z"/><path d="M785,114L785,121L786,122L786,124L788,126L792,131L792,134L797,134L798,129L802,129L803,131L806,133L808,134L810,134L811,133L813,133L813,131L811,129L810,121L807,121L804,120L801,117L795,117L791,114L788,113Z"/><path d="M380,113L378,114L376,116L377,120L381,120L383,118L382,113Z"/><path d="M307,109L299,110L298,111L295,111L294,113L294,115L295,117L296,118L297,118L298,119L299,121L300,123L300,126L298,131L298,135L300,135L300,133L302,131L306,131L306,126L308,123L310,121L312,118L313,115L312,110L309,109Z"/><path d="M878,105L878,108L877,109L878,113L884,112L885,110L885,107L883,107L882,105Z"/><path d="M472,105L468,106L465,107L462,108L454,111L452,112L450,113L449,114L448,117L446,119L442,122L437,123L432,123L428,125L426,126L425,131L424,133L420,134L419,132L417,132L412,136L405,142L398,149L394,151L393,156L393,158L394,160L398,161L401,160L406,156L410,152L414,150L420,144L421,142L423,136L424,135L425,134L427,133L432,131L435,128L439,125L443,126L443,130L444,132L450,133L452,135L455,135L456,134L459,134L462,138L465,137L465,134L463,130L461,129L457,129L451,127L451,124L453,122L455,121L461,118L464,117L469,116L474,116L477,120L480,122L485,123L487,124L496,133L498,136L499,138L500,144L500,149L499,151L490,152L490,155L491,157L494,160L495,163L499,165L507,164L507,162L505,161L505,159L502,158L501,152L502,149L505,149L506,147L506,141L507,136L509,135L509,131L508,129L505,125L501,120L499,118L498,118L495,115L493,114L491,113L486,112L485,106L480,105Z"/><path d="M611,104L609,105L607,106L606,107L605,109L605,112L603,114L600,115L595,122L591,125L591,127L589,128L587,131L586,134L586,137L584,140L584,144L586,148L588,149L591,149L592,150L595,149L596,140L598,140L597,136L597,134L599,130L600,129L603,128L606,124L607,121L611,118L617,118L618,116L620,116L622,117L629,124L632,125L636,125L638,127L641,127L645,130L647,131L653,131L654,133L656,134L659,135L662,135L668,138L673,137L673,134L671,132L670,132L667,129L667,128L663,124L662,120L660,119L655,117L649,113L640,109L637,108L633,107L629,106L618,106L614,105L613,104Z"/><path d="M928,103L926,104L925,105L924,107L924,109L925,114L918,125L918,129L920,129L921,125L923,121L925,119L925,118L931,117L931,112L933,111L932,103Z"/><path d="M197,101L198,106L200,107L201,107L205,110L207,110L209,109L209,106L207,104L205,103L203,102L200,102L199,101Z"/><path d="M188,93L188,96L191,98L193,99L196,99L196,97L195,95L193,93Z"/><path d="M41,73L42,76L45,77L49,80L52,83L52,85L54,86L56,87L59,87L61,86L61,84L58,82L53,79L45,74L43,73Z"/><path d="M110,72L108,73L109,78L111,79L120,83L123,85L127,89L131,91L135,95L138,96L138,98L137,99L137,101L140,103L142,107L143,111L145,114L148,117L151,124L152,126L153,127L155,128L158,128L159,126L163,125L163,113L165,111L169,112L169,114L172,117L174,120L174,127L176,131L177,135L177,145L176,148L171,158L169,165L167,171L165,181L164,184L161,190L160,192L159,193L157,194L154,194L152,193L150,192L148,189L147,186L145,183L143,182L143,181L141,179L141,178L137,177L137,181L138,184L141,190L143,193L146,195L147,198L152,204L155,210L160,210L162,208L163,205L166,202L168,199L170,194L173,190L181,182L182,179L185,175L186,174L189,173L194,170L199,165L206,160L211,157L216,155L219,152L225,149L230,147L233,146L237,145L242,144L250,143L264,143L268,144L278,147L281,148L284,151L291,154L297,159L299,160L301,160L301,156L302,153L304,150L305,147L305,143L303,143L301,145L294,145L292,144L289,141L284,138L279,136L272,133L268,133L266,132L266,128L271,127L276,127L281,126L284,125L286,123L287,123L288,122L291,118L291,116L290,114L288,113L286,113L280,116L261,116L249,117L245,119L237,123L234,125L231,128L230,134L228,135L222,138L219,137L220,134L223,133L223,131L221,131L215,132L214,135L209,139L209,141L211,142L211,144L205,150L203,151L200,151L200,153L197,156L194,157L191,157L186,162L183,161L183,154L184,146L185,144L188,142L189,140L192,137L194,134L194,131L192,129L190,122L189,120L186,116L182,114L182,108L179,108L179,114L177,116L173,115L173,114L171,112L168,111L167,108L165,106L157,105L156,102L151,97L150,94L149,92L148,91L146,90L144,89L140,88L137,85L137,83L140,79L139,76L137,76L134,74L121,74L119,72Z"/><path d="M972,71L972,73L970,75L963,75L962,78L960,78L958,79L957,84L956,84L955,87L949,93L949,98L945,102L943,106L938,111L938,114L937,116L934,119L931,119L931,128L933,134L933,139L931,144L931,149L930,150L930,154L935,154L935,151L936,148L938,145L938,140L939,136L942,130L944,125L945,123L950,116L951,112L953,110L953,108L956,104L960,100L961,96L967,90L972,87L978,81L982,79L985,78L988,77L990,75L992,73L992,71Z"/><path d="M945,69L941,73L941,78L949,77L949,75L952,73L952,71L948,71L947,69Z"/><path d="M89,50L88,51L86,51L86,54L85,56L78,56L77,53L75,53L70,54L62,58L56,58L53,55L50,55L49,54L43,54L39,55L35,57L34,60L31,61L26,61L25,62L22,62L22,65L23,66L23,68L26,70L30,70L34,71L36,73L39,73L40,68L44,67L49,66L51,66L52,67L54,67L67,66L67,64L69,62L73,63L73,68L71,71L71,74L68,77L67,79L68,83L70,83L71,82L74,82L80,77L82,76L84,75L89,74L94,71L102,68L105,68L111,65L117,63L121,63L122,62L124,62L125,60L130,58L133,57L138,58L138,61L137,69L139,69L140,61L142,61L145,59L146,57L146,54L144,53L132,53L98,54L93,53L91,50Z"/><path d="M1015,46L1014,48L1013,51L1011,53L1000,54L981,55L971,55L970,54L960,54L960,60L964,59L966,59L967,60L970,60L973,62L976,63L981,64L986,64L993,67L1002,69L1011,70L1019,70L1022,68L1022,66L1023,64L1026,63L1029,66L1031,66L1033,67L1034,71L1033,73L1032,74L1027,78L1025,82L1020,87L1020,90L1019,91L1019,93L1022,93L1027,90L1030,88L1030,86L1036,80L1039,78L1041,78L1054,71L1059,67L1061,66L1063,66L1065,65L1067,64L1068,63L1069,61L1069,59L1066,59L1065,58L1060,58L1057,60L1051,60L1047,62L1042,63L1034,62L1034,58L1032,58L1031,60L1029,60L1027,59L1024,56L1024,53L1022,49L1020,47L1017,46Z"/><path d="M840,41L839,44L835,44L835,46L837,47L837,49L840,49L842,48L843,45L845,45L848,47L850,47L850,44L847,41Z"/><path d="M271,34L265,35L258,37L259,40L261,41L267,41L269,43L269,46L272,46L273,44L275,44L276,45L284,47L290,47L292,46L293,40L289,36L287,35L276,34Z"/><path d="M1053,33L1047,35L1047,37L1050,37L1051,38L1055,38L1057,37L1059,35L1059,33Z"/><path d="M38,32L38,35L46,36L48,36L50,35L50,33L48,32Z"/><path d="M768,31L766,34L764,34L763,37L761,37L754,36L754,38L758,38L759,39L765,40L765,44L763,46L763,49L767,49L768,42L770,42L772,44L771,49L771,51L775,51L777,49L780,49L782,50L784,52L788,52L794,55L799,60L801,61L805,61L805,59L803,55L803,51L800,48L790,39L787,37L783,34L781,34L779,32L774,31Z"/><path d="M324,28L322,29L321,31L319,32L317,32L312,35L303,45L302,46L299,47L293,54L293,60L295,62L295,66L298,66L299,62L302,62L303,59L306,59L307,60L309,60L311,59L311,55L315,51L317,50L319,50L321,52L324,52L326,51L327,43L329,43L331,41L336,39L339,39L342,36L342,34L341,32L337,31L334,29L331,28Z"/><path d="M-1,28L-2,29L-13,29L-16,31L-21,31L-24,33L-32,33L-34,35L-36,35L-38,38L-41,39L-42,38L-44,38L-44,41L-42,41L-41,42L-37,42L-35,40L-30,38L-28,37L-23,36L-21,34L-17,33L-7,32L4,32L5,31L12,31L12,29L10,29L9,28Z"/><path d="M640,14L638,15L637,17L633,18L633,19L632,20L627,24L626,27L624,27L624,29L626,29L627,27L630,27L632,26L633,24L635,23L638,22L639,18L640,18L642,16L642,14Z"/><path d="M773,13L770,14L768,15L768,18L769,20L771,20L773,22L776,22L779,24L784,23L786,23L787,24L790,24L792,25L793,26L794,28L794,35L797,35L798,36L801,36L813,33L817,31L821,31L822,30L825,30L825,26L824,24L821,23L818,21L814,21L807,18L798,16L787,16L779,15L775,13Z"/><path d="M727,0L727,4L728,5L728,9L736,10L738,10L739,8L742,7L751,7L751,9L753,9L753,7L750,6L749,0Z"/><path d="M300,0L298,3L291,3L289,5L286,5L283,7L279,7L276,8L271,10L263,15L260,16L255,16L250,17L246,19L246,23L244,24L244,26L246,26L247,25L251,24L255,25L265,26L272,22L275,21L282,21L287,19L293,18L296,18L297,20L306,20L310,19L313,18L318,15L322,16L338,17L339,16L346,16L346,13L344,12L342,11L340,11L338,10L337,9L337,8L336,7L333,5L330,3L327,3L325,0Z"/></g></svg>