<svg xmlns="http://www.w3.org/2000/svg" viewBox="0 0 390 210" preserveAspectRatio="none"><g fill="#fff5a0" fill-rule="evenodd"><path d="M143,199L135,200L133,201L134,204L150,204L149,200L147,199Z"/><path d="M216,196L202,201L196,201L195,205L194,205L193,208L194,210L201,210L202,203L204,203L210,204L213,207L212,211L212,213L214,213L215,212L218,212L219,208L220,208L222,204L222,200L220,196Z"/><path d="M252,188L251,194L247,194L242,197L239,198L240,207L241,207L243,209L248,208L249,196L252,195L254,195L257,198L262,198L262,194L261,191L259,187Z"/><path d="M42,163L41,166L37,169L38,173L40,173L41,172L43,172L45,174L45,175L47,177L50,178L55,179L55,181L55,187L57,189L62,191L64,192L71,197L74,198L74,201L72,202L72,204L79,204L80,206L85,206L89,208L89,211L92,215L92,219L96,219L99,218L101,217L102,213L108,211L108,209L104,205L102,205L97,205L95,205L94,207L90,206L90,204L91,203L91,201L89,199L87,199L85,197L81,197L79,194L74,192L72,191L71,190L68,186L67,186L65,184L65,180L61,179L60,176L60,174L58,174L56,172L55,170L48,164L46,163Z"/><path d="M315,150L315,154L314,156L311,157L311,161L310,162L310,171L311,172L311,182L312,187L313,191L314,195L315,196L315,198L318,197L320,195L320,192L318,187L317,180L316,173L317,156L317,150Z"/><path d="M48,112L46,115L42,115L39,118L38,121L37,121L31,127L30,129L29,130L28,131L23,134L21,134L19,136L15,136L13,138L7,140L7,142L9,144L9,148L13,148L23,147L27,148L29,149L36,157L40,161L42,161L42,157L40,155L40,153L38,150L36,148L34,146L32,146L30,144L28,144L25,141L26,138L28,138L33,134L37,131L42,126L45,122L46,117L49,117L51,115L50,112Z"/><path d="M252,97L252,100L253,127L257,135L260,138L261,140L260,145L258,146L257,146L255,147L254,148L252,150L252,153L255,154L255,159L257,160L256,163L253,162L253,159L249,160L249,166L247,168L247,173L249,179L251,181L255,181L256,183L258,183L258,176L255,175L256,172L259,172L259,169L256,168L257,165L259,165L260,156L263,156L263,150L265,146L266,146L271,143L272,140L271,138L268,137L263,132L261,129L260,127L259,109L260,99L260,97L257,97L256,96Z"/><path d="M47,95L47,97L47,104L47,107L49,107L50,109L52,109L57,108L60,106L60,103L62,101L64,99L64,97L60,97L57,100L52,99L51,98L50,94Z"/><path d="M84,61L84,63L83,64L83,66L86,67L90,68L92,70L93,70L93,74L91,75L87,77L84,78L80,79L76,80L71,79L71,76L70,74L63,74L61,77L61,79L62,81L65,83L66,91L70,91L77,88L81,88L85,87L89,85L89,84L90,83L92,82L101,77L106,77L116,79L127,78L131,78L132,80L135,81L141,82L150,83L158,84L160,84L181,82L185,82L195,83L198,80L207,79L209,79L213,80L214,78L219,78L223,79L227,80L230,82L236,82L243,85L245,87L250,88L252,88L253,87L255,87L256,85L257,82L257,80L254,79L254,77L252,77L250,75L244,75L243,77L241,78L235,79L233,77L233,75L228,75L224,74L221,71L222,65L222,63L220,63L219,62L216,62L214,64L212,64L212,66L208,70L203,71L195,71L193,73L190,73L188,75L175,75L174,74L161,75L153,74L150,74L146,76L135,76L127,74L127,71L119,70L118,68L116,68L115,69L113,69L111,68L109,65L107,63L99,63L91,61Z"/><path d="M105,11L97,12L94,14L89,14L88,15L84,15L84,17L86,17L87,18L90,18L93,21L95,22L98,23L111,24L111,27L113,27L117,25L122,24L127,24L129,26L132,26L134,28L134,30L155,30L168,29L170,28L170,26L159,27L157,27L149,25L149,22L147,18L141,19L139,19L138,18L135,18L130,16L128,14L125,13L117,12L107,11Z"/><path d="M247,-5L246,-3L244,-3L242,-1L242,0L239,2L239,7L237,8L237,10L239,10L240,7L245,8L245,10L247,10L247,8L244,7L244,5L247,2L249,2L252,4L255,3L256,1L256,-2L251,-2L250,-4Z"/><path d="M-2,-6L-2,-4L-1,1L0,5L1,7L5,11L10,14L13,15L17,16L23,17L30,17L37,20L46,21L50,22L58,25L62,25L63,22L65,21L70,21L70,16L68,15L65,15L62,13L59,13L58,12L56,12L49,13L44,12L28,8L23,7L21,6L19,5L14,2L9,-2L6,-4L0,-6Z"/><path d="M348,-21L337,-20L335,-19L333,-17L332,-14L327,-9L325,-5L323,-3L320,-1L317,1L314,2L311,1L310,-1L310,-4L308,-6L309,-11L309,-13L308,-15L305,-15L305,-12L303,-9L302,-6L301,-2L300,10L300,13L302,18L302,23L306,23L308,19L313,13L317,12L320,10L322,8L322,7L325,4L325,1L329,-3L333,-2L333,8L331,12L332,18L334,18L336,16L338,13L340,8L343,5L344,2L346,-1L347,-6L347,-12L348,-16L350,-19L350,-21Z"/></g></svg>