<svg xmlns="http://www.w3.org/2000/svg" viewBox="0 0 220 960" preserveAspectRatio="none"><g fill="#fff5a0" fill-rule="evenodd"><path d="M94,944L94,946L92,947L91,948L90,950L90,952L88,954L84,955L78,954L78,951L75,951L75,954L77,955L78,959L79,962L80,978L81,986L79,993L78,1002L78,1005L80,1005L81,1002L83,1002L86,1005L85,1008L83,1008L84,1012L86,1012L87,1007L90,1007L90,1004L91,1003L90,980L90,978L90,967L90,964L92,962L93,960L95,953L95,947L97,945L97,943Z"/><path d="M118,924L115,927L113,927L110,929L106,932L106,936L104,938L104,941L107,941L112,938L114,936L115,936L116,935L116,934L120,934L120,936L122,936L121,932L122,929L125,927L125,924Z"/><path d="M147,915L144,917L144,919L143,920L143,923L144,929L146,929L152,926L156,922L159,921L159,916L157,915Z"/><path d="M208,911L208,916L211,919L217,918L220,919L220,921L219,922L220,925L222,926L227,925L227,922L222,921L222,919L219,918L219,913L215,913L214,911Z"/><path d="M119,888L119,892L123,895L123,898L125,900L127,900L129,898L130,896L130,894L129,893L129,891L122,890L122,887Z"/><path d="M78,857L78,860L79,862L81,863L81,866L82,867L82,869L85,869L90,874L92,875L94,875L94,873L93,872L93,870L89,869L89,865L86,861L82,857Z"/><path d="M170,837L168,839L168,847L167,852L164,858L162,861L151,872L147,875L139,879L136,881L133,884L134,888L136,888L139,887L145,885L153,881L156,879L161,875L163,873L167,868L169,865L171,862L172,860L174,855L177,846L177,844L175,843L175,838L173,838L172,837Z"/><path d="M84,655L84,660L83,661L83,667L81,668L81,712L83,742L83,803L82,823L81,825L77,827L77,829L79,831L79,837L83,837L83,834L84,833L84,829L87,823L87,818L89,813L90,808L90,806L89,802L90,801L91,796L91,794L91,780L91,777L90,776L90,774L91,773L91,771L89,755L89,730L90,725L92,722L93,718L94,713L94,706L93,673L91,669L91,662L88,659L88,656L86,655Z"/><path d="M169,559L168,561L166,562L157,563L157,565L163,566L163,568L161,570L161,571L159,572L158,574L157,577L156,584L156,587L160,588L160,590L156,594L155,596L155,614L153,630L153,641L154,654L153,755L154,763L155,771L157,777L157,790L158,796L160,801L164,801L166,800L166,658L167,627L168,597L169,571L171,561L171,559Z"/><path d="M81,557L80,559L79,563L79,573L80,607L81,630L84,637L84,639L87,639L89,632L93,632L93,629L89,628L88,622L88,604L86,591L86,564L85,559L84,557Z"/><path d="M21,436L19,438L18,441L19,470L19,488L19,530L18,547L18,549L18,569L18,586L19,610L17,701L17,704L18,747L16,778L16,780L18,803L18,824L16,837L15,850L15,858L17,868L17,885L16,928L18,934L17,946L17,948L17,960L17,969L18,975L19,982L20,986L21,987L21,989L20,1007L18,1011L18,1014L19,1017L22,1020L21,1029L21,1034L21,1051L21,1064L22,1068L23,1070L29,1071L29,1051L28,1050L27,1044L26,1038L28,1037L28,1035L26,1034L25,1027L25,1019L27,1014L27,1010L25,994L25,985L27,970L27,929L26,900L24,893L24,891L25,890L25,888L23,830L23,828L24,827L24,825L22,816L22,811L24,796L25,783L25,780L23,771L23,754L25,737L25,729L25,717L25,715L24,702L24,686L25,681L25,679L25,629L25,621L23,607L23,601L23,556L24,548L24,544L23,436Z"/><path d="M87,375L86,376L84,376L83,378L82,381L82,430L81,453L78,471L77,481L77,521L78,544L80,547L80,550L83,550L83,538L84,537L84,519L86,518L86,505L82,504L83,500L85,498L86,496L86,486L87,480L88,479L88,475L86,474L87,470L90,470L90,468L91,467L92,463L92,451L94,439L94,387L92,378L91,376Z"/><path d="M71,285L71,296L73,296L74,295L77,296L76,304L76,307L79,307L81,309L81,326L83,326L85,325L86,323L87,316L90,315L89,311L87,311L85,309L85,299L84,296L82,294L82,292L79,289L78,289L74,285Z"/><path d="M165,242L163,244L162,246L162,252L163,254L169,260L170,262L173,270L174,273L175,277L175,280L174,283L168,294L168,298L165,305L163,307L163,308L158,309L156,311L156,341L154,344L155,420L155,425L154,453L155,467L157,471L158,479L158,481L157,484L155,489L155,501L159,502L160,504L160,507L159,514L157,515L157,520L159,521L159,523L156,525L156,528L156,535L156,538L158,538L159,534L163,535L164,537L163,540L159,540L159,542L163,543L163,546L161,547L161,549L164,552L164,557L166,557L167,552L171,552L171,547L170,546L171,540L170,536L170,534L171,516L170,515L170,511L167,510L167,500L169,496L169,493L167,490L166,481L167,467L169,467L171,464L171,455L170,446L168,439L167,431L166,422L165,403L165,371L166,361L168,360L168,357L166,356L166,333L167,326L168,320L170,318L171,310L172,307L173,305L177,300L177,297L180,295L180,291L181,290L181,281L180,274L179,267L178,261L177,258L175,256L172,249L172,245L169,242Z"/><path d="M155,221L152,223L149,223L149,230L150,232L158,233L160,233L162,229L166,225L166,223L164,221Z"/><path d="M63,184L62,186L62,188L63,189L63,192L65,195L68,196L68,207L70,207L70,184L68,184L67,183Z"/><path d="M137,177L137,182L135,183L135,195L138,196L138,208L140,210L142,211L142,212L145,213L144,209L144,207L146,205L146,203L149,199L150,195L149,191L146,190L145,187L144,182L141,178Z"/><path d="M96,152L96,156L95,157L95,161L96,162L96,166L94,170L93,185L92,201L92,204L93,217L92,219L90,221L88,223L88,226L90,229L90,232L91,233L91,235L90,236L89,240L87,240L85,241L83,242L82,245L77,251L76,253L76,256L77,258L80,258L82,257L92,250L97,245L98,243L99,240L99,235L101,233L102,230L102,228L100,227L101,224L103,224L107,218L108,217L110,216L112,214L112,211L110,210L109,204L110,195L112,195L113,191L112,188L109,188L108,191L103,190L104,183L110,183L115,180L116,179L117,177L117,175L114,175L112,177L109,176L108,173L108,167L106,165L104,159L104,157L102,157L99,153Z"/><path d="M87,129L87,133L88,136L89,138L93,138L93,136L91,131L89,129Z"/><path d="M123,120L123,136L122,144L120,150L119,157L119,160L121,163L124,165L125,168L126,168L128,170L129,170L130,171L131,174L134,174L135,175L137,175L137,169L135,169L133,167L132,164L131,159L130,143L128,136L127,129L127,122L126,120Z"/><path d="M69,92L67,94L67,96L68,97L68,100L69,102L73,106L74,109L77,112L78,114L78,116L81,121L83,123L83,124L84,125L86,126L88,126L88,119L86,114L84,114L82,112L81,111L80,105L77,102L76,100L76,95L73,95L71,92Z"/><path d="M115,-37L109,-36L109,-30L95,-16L93,-11L91,-9L88,-7L84,-5L81,-3L77,-3L76,-4L73,-4L71,-2L71,2L72,7L75,10L76,12L76,15L78,18L79,30L78,34L78,36L80,39L80,41L78,42L78,44L84,50L87,51L89,53L89,55L87,61L87,66L85,68L83,69L76,69L75,67L73,67L72,66L65,65L65,50L64,49L64,47L60,47L56,49L54,50L53,52L49,53L49,55L50,60L52,64L54,66L56,68L56,70L58,72L59,77L64,87L66,89L68,89L68,83L67,81L65,79L64,75L61,72L62,68L65,68L67,69L68,70L68,71L69,72L71,73L76,74L82,82L84,88L89,93L91,93L93,91L93,85L91,82L90,78L91,74L93,69L94,65L94,59L93,52L92,48L91,43L89,40L88,37L87,32L86,17L86,9L87,7L89,5L94,4L94,0L95,-3L96,-6L100,-11L107,-17L108,-19L113,-22L114,-23L116,-26L116,-27L120,-29L120,-32L121,-33L121,-36L119,-36L118,-37Z"/><path d="M194,-50L187,-49L179,-45L174,-42L171,-40L167,-37L157,-28L154,-24L150,-22L147,-19L143,-19L143,-16L145,-15L144,-11L145,-8L150,-5L151,-2L150,0L147,1L146,-1L144,-2L141,-2L141,2L143,4L146,4L147,3L151,4L151,5L153,7L154,11L154,15L157,15L157,9L159,3L160,0L162,-2L162,-4L163,-6L167,-13L169,-16L176,-23L180,-26L184,-28L190,-31L196,-33L202,-34L205,-36L210,-37L221,-38L231,-38L232,-37L243,-37L253,-35L263,-35L271,-36L272,-37L275,-37L275,-39L274,-40L274,-42L264,-42L256,-44L256,-46L249,-46L248,-47L235,-48L202,-48L201,-50Z"/><path d="M342,-51L340,-50L338,-48L330,-47L327,-45L325,-45L323,-46L322,-49L319,-49L316,-46L310,-46L307,-44L295,-44L294,-43L289,-43L289,-41L287,-39L284,-38L284,-36L289,-36L290,-35L306,-35L313,-34L315,-32L320,-32L321,-33L328,-34L337,-34L343,-33L349,-32L352,-31L354,-29L356,-29L365,-23L366,-20L367,-18L369,-16L371,-14L373,-13L375,-13L375,-15L374,-16L374,-19L372,-21L372,-23L374,-25L378,-25L380,-23L381,-23L382,-22L382,-21L384,-18L388,-14L390,-10L391,-6L392,-4L394,-2L395,0L395,6L398,13L398,22L396,24L395,28L395,34L394,37L391,42L390,43L387,44L386,46L386,50L388,51L388,53L386,55L384,56L380,57L378,55L376,55L372,57L369,61L365,62L364,65L363,66L359,68L356,69L347,69L340,70L339,71L337,71L336,73L332,73L331,74L328,74L325,73L320,70L309,69L282,69L282,72L282,78L277,77L276,76L275,75L268,76L264,76L258,70L250,69L248,69L226,71L204,71L195,73L193,73L191,72L188,69L186,68L184,67L181,66L177,66L174,65L171,62L168,61L165,59L159,53L156,48L155,46L155,40L151,37L149,34L142,21L142,19L140,17L138,17L137,20L135,20L135,27L136,34L137,37L138,39L142,40L142,46L145,52L147,55L151,59L154,60L157,63L157,66L159,68L162,70L167,73L169,73L173,76L177,78L180,79L183,80L189,80L196,81L197,83L199,84L202,85L207,85L211,82L213,81L217,81L221,79L226,78L235,77L241,78L241,81L254,81L262,82L266,84L279,83L279,82L280,81L282,80L284,80L294,82L335,81L337,81L339,83L346,83L347,82L349,82L351,79L361,78L365,76L369,77L369,79L361,88L350,98L349,103L353,103L356,101L364,94L376,87L398,65L401,61L401,54L404,49L404,47L401,46L401,43L405,36L408,26L409,21L409,5L406,4L405,1L405,-6L407,-7L407,-9L406,-11L404,-13L404,-16L400,-24L395,-24L391,-28L386,-28L376,-38L373,-40L362,-46L356,-49L354,-49L353,-48L351,-48L348,-50L345,-50L344,-51Z"/></g></svg>