<svg xmlns="http://www.w3.org/2000/svg" viewBox="0 0 420 420" preserveAspectRatio="none"><g fill="#fff5a0" fill-rule="evenodd"><path d="M61,387L60,389L61,392L65,393L71,393L76,395L81,396L93,396L94,394L94,391L91,389L84,388L64,387Z"/><path d="M300,346L297,347L295,348L291,351L288,352L286,353L285,354L284,356L284,358L290,358L294,356L303,356L305,355L305,349L304,347Z"/><path d="M338,344L335,345L332,347L329,350L326,351L319,359L313,364L312,364L308,368L308,370L310,372L310,373L317,374L321,373L323,371L326,370L334,368L336,367L338,366L343,363L346,360L348,360L349,358L349,356L347,356L340,359L336,362L333,362L332,364L329,363L330,360L335,353L340,347L340,344Z"/><path d="M-365,324L-365,326L-364,328L-359,332L-359,333L-356,334L-352,338L-349,339L-344,344L-340,345L-338,347L-336,348L-331,349L-326,352L-321,353L-312,358L-303,362L-300,362L-295,365L-290,366L-284,367L-277,367L-271,369L-265,369L-260,370L-256,371L-252,373L-253,377L-265,378L-267,378L-280,376L-296,375L-315,374L-317,374L-328,376L-333,376L-338,374L-346,373L-365,373L-379,371L-385,371L-389,372L-394,373L-394,375L-388,375L-387,376L-377,376L-367,378L-352,378L-346,379L-345,380L-341,380L-335,378L-331,378L-328,379L-324,380L-322,382L-301,382L-276,381L-255,382L-248,384L-239,384L-237,386L-235,386L-234,385L-232,385L-231,386L-229,386L-226,384L-175,384L-160,386L-149,386L-147,385L-145,383L-143,382L-140,382L-138,381L-137,377L-135,376L-120,376L-111,375L-106,373L-82,374L-67,374L-63,373L-59,372L-54,368L-49,368L-47,366L-43,366L-42,364L-39,363L-36,362L-32,362L-29,360L-25,359L-15,359L-13,360L-11,362L-11,365L-8,371L-1,378L2,380L4,380L6,382L5,385L3,385L0,387L-6,388L-11,388L-31,387L-35,386L-39,385L-43,381L-43,373L-45,373L-48,374L-57,378L-59,380L-65,382L-66,387L-66,389L-63,392L-44,393L-34,393L-13,391L-9,392L-9,394L7,393L14,392L18,394L30,395L39,395L45,394L48,393L51,391L51,387L48,385L47,385L47,381L49,380L62,380L66,379L74,376L82,375L91,375L98,374L103,373L110,370L114,370L117,368L123,367L130,367L133,370L133,373L134,375L136,378L139,380L143,381L154,381L163,380L170,379L175,378L180,376L185,375L190,374L217,373L223,374L222,377L217,378L212,380L208,383L205,383L199,386L197,388L197,391L198,392L198,394L200,394L208,390L212,390L214,388L218,387L222,387L230,384L234,383L236,383L237,384L239,384L241,383L242,380L244,378L247,377L251,376L260,376L264,375L268,374L271,373L273,372L273,369L275,367L277,367L279,366L279,364L277,364L276,365L272,364L272,362L269,362L268,367L265,367L255,366L252,363L248,362L244,362L228,363L214,365L206,364L203,364L199,366L191,367L184,367L175,368L171,369L169,371L160,373L156,372L156,367L152,366L152,364L154,362L155,362L158,359L162,357L166,354L170,350L169,347L164,347L158,349L146,353L139,357L135,357L124,362L120,363L116,364L98,367L91,367L85,369L77,370L70,371L61,371L49,374L35,374L10,373L0,370L-2,369L-4,367L-4,365L-3,363L5,355L11,352L14,350L17,347L17,344L16,342L13,342L9,343L5,345L-2,346L-6,347L-8,349L-13,350L-15,352L-18,353L-29,352L-31,352L-37,354L-42,354L-46,356L-51,357L-58,357L-63,358L-65,360L-68,361L-77,363L-84,364L-95,365L-109,366L-122,367L-151,368L-157,367L-160,367L-162,369L-171,370L-190,370L-202,369L-210,367L-218,367L-221,365L-232,365L-239,363L-256,363L-259,361L-261,361L-262,362L-264,362L-270,361L-276,360L-281,359L-292,355L-296,355L-311,351L-315,350L-319,348L-323,345L-327,344L-329,343L-332,340L-337,337L-343,334L-348,333L-351,332L-357,327L-362,324Z"/><path d="M366,300L365,304L363,306L362,309L358,309L354,312L352,312L351,310L348,310L340,314L333,321L330,322L327,324L320,331L317,335L315,338L312,344L311,347L311,349L313,349L316,345L317,344L323,340L323,338L322,337L322,334L324,332L326,331L329,330L335,330L336,332L338,332L341,330L345,330L345,327L347,325L350,323L354,323L359,319L361,318L364,318L365,316L365,309L366,307L367,305L371,304L371,302L369,302L368,300Z"/><path d="M351,295L349,296L348,297L346,301L347,304L349,305L353,305L354,301L355,298L355,295Z"/><path d="M254,287L253,288L250,288L248,289L247,291L246,298L246,300L248,300L250,297L254,296L254,292L256,290L256,287Z"/><path d="M10,283L8,285L8,289L12,290L15,289L15,287L14,283Z"/><path d="M233,277L231,279L227,279L227,285L231,290L236,290L238,289L239,288L240,286L240,283L239,281L237,278L235,277Z"/><path d="M323,266L319,267L313,270L313,274L314,276L316,278L318,278L320,277L332,269L332,267L330,266Z"/><path d="M56,264L48,271L47,271L45,273L44,276L43,276L40,278L40,283L49,283L52,284L54,285L54,289L48,289L44,290L40,292L40,298L38,302L38,304L40,306L43,306L47,303L52,297L55,296L55,294L59,289L61,287L65,287L67,285L76,279L79,276L80,272L85,271L86,268L87,268L88,265L85,265L84,266L80,266L76,268L68,272L63,276L61,277L58,276L58,274L59,272L61,270L62,268L62,265L60,264Z"/><path d="M372,178L371,182L370,187L367,190L367,197L368,199L370,199L370,196L372,191L372,186L374,181L374,178Z"/><path d="M335,164L332,166L328,166L328,168L329,171L330,173L335,174L335,178L336,179L336,182L335,183L335,185L338,186L341,189L344,193L344,196L342,198L338,199L331,206L330,208L329,211L327,212L327,213L325,215L322,223L322,228L325,229L325,232L323,234L320,236L317,236L314,238L313,241L312,242L306,247L302,253L298,257L294,260L293,260L291,262L291,264L289,265L288,267L287,269L286,273L284,273L281,276L281,278L284,278L285,280L289,281L292,284L295,284L298,281L300,278L300,274L302,269L303,265L307,260L316,251L319,247L321,244L324,239L327,233L328,230L331,231L331,233L333,233L335,231L336,229L341,218L344,209L345,207L349,204L350,201L353,198L356,197L356,195L355,193L351,192L348,189L347,185L345,183L344,181L342,174L337,164Z"/><path d="M91,162L91,164L90,165L90,168L93,173L96,182L96,184L98,184L101,187L102,191L106,194L107,197L107,200L105,202L95,202L95,205L93,210L90,214L91,218L90,221L86,221L86,223L90,224L90,226L92,227L96,227L97,222L99,221L100,219L100,217L104,209L108,205L108,203L109,201L111,199L113,198L115,198L117,197L118,193L115,193L113,192L111,190L110,190L109,189L109,188L107,185L104,182L100,174L100,172L95,162Z"/><path d="M68,107L67,109L63,109L47,108L47,113L50,117L50,121L49,128L51,128L52,124L55,125L55,130L56,132L65,140L70,146L72,148L75,150L77,150L77,148L76,145L72,141L70,138L69,134L66,129L61,124L59,124L58,125L55,124L54,122L53,119L54,118L55,114L58,114L61,115L66,118L72,119L78,122L80,123L81,126L85,126L86,127L92,127L99,129L105,128L105,126L104,124L100,124L91,121L87,119L81,116L78,114L74,111L70,107Z"/><path d="M68,89L63,92L60,93L52,95L49,95L46,94L44,92L41,91L38,90L31,90L30,91L27,91L27,93L30,95L29,98L13,98L8,93L5,93L3,94L0,97L-7,98L-9,100L-9,104L-10,106L-12,107L-13,109L-13,113L-11,113L-8,112L-3,108L-1,107L4,107L8,109L12,109L15,111L20,111L21,112L26,111L26,106L28,102L30,102L32,101L33,99L35,98L38,98L41,101L59,102L62,102L66,97L70,95L72,93L73,91L73,89Z"/><path d="M290,79L289,80L287,80L287,86L288,87L287,94L285,94L280,91L277,90L270,90L269,94L267,96L263,98L254,98L252,97L251,94L247,89L247,88L244,87L242,90L239,92L237,93L233,94L233,95L231,97L225,98L222,97L222,94L224,93L224,91L219,89L216,89L215,90L211,90L206,93L203,94L197,93L198,88L198,85L194,85L191,87L187,91L184,96L179,98L172,104L170,104L166,107L161,113L158,114L154,118L147,121L144,125L141,126L141,128L151,128L156,127L161,126L165,125L167,124L169,123L170,122L174,117L180,114L183,113L187,114L187,117L186,119L183,123L181,127L181,131L180,134L179,136L178,138L177,139L172,143L170,145L168,148L163,158L162,161L159,160L159,156L157,156L151,158L150,160L148,164L145,172L144,174L138,185L131,192L128,193L128,195L129,196L129,198L133,200L134,201L134,202L139,210L142,213L143,215L144,220L145,222L146,224L148,225L148,228L151,228L155,231L158,234L160,237L161,239L161,242L164,244L168,249L177,262L182,267L185,271L186,273L185,276L180,276L175,272L166,267L160,264L158,264L154,267L155,270L161,275L166,279L170,282L174,284L183,292L187,294L193,299L200,306L205,306L205,303L202,298L203,295L208,295L208,293L206,293L202,290L198,286L198,284L200,282L201,281L204,280L207,283L208,287L210,290L212,290L215,289L217,288L219,284L219,282L215,278L213,278L211,276L209,276L207,275L201,269L197,266L194,265L192,264L191,263L190,262L189,261L188,259L188,257L187,255L186,253L184,250L180,246L180,244L177,240L172,233L169,231L166,230L164,228L160,226L159,223L159,221L155,220L155,215L154,210L152,207L152,204L149,203L147,201L144,201L141,203L139,203L136,200L137,197L142,193L146,192L149,189L151,184L155,179L156,177L156,174L158,169L161,170L161,175L164,174L165,171L165,168L167,163L170,157L173,152L175,149L179,144L184,139L187,135L188,133L188,130L190,128L191,128L192,127L195,123L196,121L199,114L200,111L200,107L198,105L191,104L192,101L199,101L203,100L204,99L206,99L214,100L217,103L219,103L221,105L222,105L223,109L220,112L221,115L226,115L231,114L233,113L234,112L235,110L235,107L236,105L240,104L245,108L249,109L252,109L253,108L258,109L258,111L257,112L257,114L259,115L261,116L278,116L278,114L276,112L273,110L272,110L269,108L267,106L268,102L270,101L288,101L294,102L296,103L296,107L291,107L287,108L285,109L285,112L286,114L289,117L290,117L292,119L292,122L290,123L290,128L293,131L307,144L310,148L311,151L312,151L315,153L320,158L326,158L326,156L325,154L324,153L323,153L322,149L320,146L318,143L313,136L310,132L306,128L306,127L303,124L301,123L298,123L296,122L296,113L300,113L303,114L305,115L313,121L321,125L324,126L328,127L333,128L337,128L338,126L342,126L341,123L339,123L334,121L332,120L329,118L326,116L322,113L311,104L306,99L301,93L299,89L295,85L294,82L293,80Z"/><path d="M374,16L374,23L373,29L371,31L369,31L369,46L367,53L366,77L366,84L367,85L367,92L365,143L365,146L366,154L368,159L370,160L374,160L374,158L377,154L381,154L381,157L379,162L376,162L375,167L375,169L380,173L379,186L377,186L377,188L376,189L376,193L378,197L384,198L384,202L387,204L386,207L385,222L388,224L388,232L386,236L384,236L384,241L383,246L382,251L379,259L379,261L382,262L382,270L380,273L379,276L379,285L381,285L382,284L386,283L390,283L392,278L392,274L393,270L394,268L397,267L397,263L398,262L399,254L400,243L400,231L398,230L397,227L397,224L398,212L400,211L400,206L397,203L398,197L400,197L400,194L396,193L397,188L399,188L399,185L398,184L398,182L396,182L395,183L392,183L390,181L389,175L389,168L392,165L394,165L394,163L390,163L388,161L387,159L386,155L384,152L381,152L379,151L377,147L376,146L375,144L373,133L373,129L374,124L377,119L377,116L383,110L387,108L387,105L386,104L384,94L383,85L383,64L382,55L380,47L379,39L379,30L377,25L377,20L376,19L376,16Z"/><path d="M394,14L394,16L393,17L394,28L394,31L393,38L396,39L396,45L395,54L396,65L395,66L395,77L393,90L392,91L392,95L393,103L395,103L395,101L396,100L397,89L402,79L404,68L404,63L403,62L402,55L402,48L401,42L399,39L399,30L398,26L396,24L396,14Z"/></g></svg>