<svg xmlns="http://www.w3.org/2000/svg" viewBox="0 0 420 420" preserveAspectRatio="none"><g fill="#fff5a0" fill-rule="evenodd"><path d="M354,387L350,388L347,390L344,391L325,391L320,393L321,396L335,395L345,395L367,396L368,395L383,395L384,393L386,393L388,392L388,389L378,389L372,387Z"/><path d="M134,344L135,347L139,350L141,350L143,352L147,353L150,354L155,355L161,354L161,351L159,350L156,350L153,347L149,346L143,344Z"/><path d="M86,341L84,343L84,349L82,351L78,352L74,352L70,354L71,358L76,362L80,362L84,364L86,364L87,361L95,362L94,366L94,368L96,369L101,370L108,374L114,375L118,376L119,378L124,378L125,379L131,379L136,380L143,382L146,384L150,384L157,386L160,387L165,391L178,391L181,393L184,393L185,391L191,391L191,389L182,388L181,386L178,385L175,385L163,381L158,378L155,377L153,377L152,378L149,378L146,377L140,374L137,371L137,369L132,369L130,367L128,365L126,365L125,364L123,364L122,366L119,366L114,363L112,361L111,357L108,356L104,351L102,351L98,347L95,347L88,341Z"/><path d="M104,329L103,331L103,333L108,338L110,338L111,340L117,341L120,343L123,344L130,344L130,341L128,340L125,339L120,335L116,334L112,331L108,329Z"/><path d="M803,303L801,304L800,305L799,308L796,313L793,317L791,319L786,321L783,323L777,328L772,331L765,335L759,337L753,341L751,341L737,349L732,351L729,351L726,352L721,355L718,356L715,357L708,358L704,359L701,361L694,363L689,364L678,365L660,365L653,367L631,367L620,368L616,369L611,371L609,373L603,373L587,372L580,370L570,369L559,369L551,367L516,368L513,368L484,367L480,365L471,364L451,363L432,361L424,360L420,358L409,357L399,357L390,356L382,353L377,353L372,351L364,351L358,350L351,347L338,347L338,349L337,350L337,352L341,353L341,355L344,357L347,359L352,362L354,362L355,364L361,365L361,369L359,371L354,371L350,373L348,373L347,372L344,372L342,374L335,374L327,373L319,371L295,368L285,368L274,367L268,366L263,364L261,364L257,365L248,364L242,362L220,362L213,361L207,359L199,359L192,358L188,356L186,356L180,358L179,363L178,363L176,365L175,365L175,371L180,372L183,375L185,375L186,376L189,376L196,379L203,380L216,385L220,384L222,384L225,386L231,386L235,388L244,388L251,390L255,391L257,393L262,393L267,395L275,395L276,394L279,394L279,391L275,387L272,385L269,383L263,382L256,381L248,381L245,379L242,378L243,374L261,374L269,376L279,376L287,377L292,379L299,379L306,381L321,382L348,382L355,380L359,379L361,378L364,375L364,366L366,364L368,363L371,362L380,362L385,364L387,366L392,368L395,369L395,378L396,380L401,385L402,387L402,391L404,392L411,393L427,393L430,391L433,390L432,387L430,386L428,385L419,382L415,380L413,379L413,375L415,374L418,374L427,376L437,376L441,378L450,378L453,380L492,380L500,382L508,382L514,384L562,384L569,383L574,381L574,379L576,377L583,377L589,379L590,382L592,382L593,377L597,378L597,382L600,382L601,376L604,375L607,375L609,376L611,377L611,381L608,381L608,383L622,384L626,384L638,383L659,383L675,383L681,385L690,385L691,383L693,383L715,384L733,383L750,381L769,381L781,380L805,377L821,376L839,376L851,374L865,374L875,372L895,371L923,371L927,370L929,369L931,367L931,365L930,363L928,361L922,358L917,356L903,352L899,350L896,347L894,346L883,341L880,341L879,339L877,338L875,337L870,335L867,334L863,333L860,333L860,335L861,336L861,339L863,339L866,340L868,342L873,342L876,344L880,347L884,351L891,355L894,358L894,361L892,363L890,364L886,365L876,365L867,367L853,367L844,369L834,370L808,370L792,372L773,372L760,374L735,375L702,376L677,376L671,374L672,371L675,370L683,370L698,368L705,367L711,366L715,365L724,362L749,354L755,351L760,347L770,343L775,340L781,335L787,329L790,328L792,326L794,323L796,320L798,315L800,315L802,314L806,309L806,303Z"/><path d="M44,295L44,298L45,299L45,303L47,306L46,309L43,308L42,305L40,305L40,308L41,312L43,316L45,317L52,318L56,321L59,321L61,322L65,326L67,326L69,328L72,328L75,325L81,325L91,325L91,322L89,319L89,316L88,314L84,313L82,311L81,305L79,305L75,300L73,299L70,298L68,298L68,300L69,303L71,307L72,311L71,318L66,317L65,315L65,314L64,312L59,311L57,309L57,307L55,304L51,299L47,295Z"/><path d="M353,223L349,228L348,230L348,236L346,242L346,254L348,258L348,261L347,263L344,266L343,268L343,270L337,281L336,283L333,284L330,287L328,287L320,292L312,295L310,296L305,301L302,304L302,306L304,306L306,305L308,303L310,302L320,299L322,298L325,296L328,294L333,290L344,280L348,277L350,276L353,276L359,279L361,279L361,274L355,268L353,263L352,253L352,249L353,244L355,240L356,235L355,223Z"/><path d="M384,208L384,212L385,219L386,225L387,228L390,234L391,237L391,241L393,248L394,251L395,254L398,259L400,264L400,270L398,273L393,278L390,279L390,281L391,282L391,284L404,284L407,285L409,286L416,293L418,297L422,301L427,301L427,299L427,294L429,294L431,295L437,299L443,302L451,305L454,305L457,307L460,308L460,310L458,312L456,313L454,314L451,315L448,315L448,317L450,319L461,319L469,318L475,317L479,316L481,314L485,313L488,313L489,312L491,312L491,310L484,311L482,311L479,308L476,307L475,306L474,303L472,303L471,307L465,306L464,302L463,296L448,296L444,295L441,294L433,289L430,288L426,288L420,284L414,282L411,279L410,276L407,275L403,272L403,267L406,267L408,265L408,257L405,251L402,246L397,240L395,237L395,234L396,227L397,225L400,224L400,221L398,219L396,217L393,217L391,215L390,213L390,211L389,209L387,209L386,208Z"/><path d="M81,169L81,172L80,173L79,182L79,195L78,200L77,201L77,204L78,208L80,211L81,214L82,219L83,230L83,243L85,254L84,265L80,266L79,268L79,272L77,273L77,275L78,277L84,277L86,278L90,282L95,284L98,287L98,289L101,290L105,294L108,296L114,296L116,298L116,300L119,300L120,301L124,301L131,304L134,304L139,306L139,308L134,312L134,317L139,317L144,316L149,314L156,313L162,312L169,311L266,311L271,309L278,310L283,309L285,309L288,312L288,314L290,314L297,317L299,317L300,313L300,311L299,309L297,307L297,305L295,305L281,306L276,303L274,303L268,305L220,305L214,303L205,303L175,304L165,305L161,306L158,308L149,308L147,306L146,303L143,302L142,299L137,299L136,298L126,298L120,296L119,293L114,289L111,288L107,285L103,282L96,275L94,272L92,269L91,267L90,265L90,259L88,257L88,255L86,253L87,248L89,248L89,240L87,230L87,226L89,218L89,216L88,209L87,206L86,203L84,201L84,188L82,181L83,172L83,169Z"/><path d="M98,111L98,116L97,117L97,126L99,126L99,122L101,121L101,113L100,111Z"/><path d="M397,93L395,94L394,116L397,117L398,123L398,128L396,129L396,136L397,138L400,138L399,120L399,118L401,101L401,97L399,93Z"/><path d="M348,73L348,78L346,79L346,86L347,87L347,89L349,89L349,87L348,81L350,80L350,73Z"/><path d="M84,54L85,61L85,64L84,66L82,68L78,68L78,119L80,119L81,111L83,111L85,114L88,115L90,121L90,126L92,126L92,116L90,115L90,109L89,107L87,107L86,105L84,105L83,106L80,105L81,85L84,84L86,84L87,74L90,73L90,71L91,70L91,67L87,66L87,63L88,55L86,54Z"/><path d="M49,52L48,69L47,99L47,105L49,117L49,130L51,140L51,143L51,169L50,181L48,181L46,179L44,173L44,171L42,171L41,170L37,171L37,182L35,186L32,187L30,189L29,191L27,197L25,197L25,199L27,200L27,202L26,203L25,207L25,209L26,213L25,238L23,253L23,257L25,258L25,270L26,277L27,282L28,286L29,288L32,289L32,291L34,293L36,293L39,290L41,290L42,291L44,291L44,286L46,285L46,283L43,277L42,273L41,269L40,264L40,256L38,249L38,228L40,220L40,212L41,207L42,204L43,201L46,196L46,189L48,187L48,186L52,186L53,188L53,199L51,200L51,202L55,209L56,213L57,216L59,216L59,214L61,213L62,196L62,183L59,174L58,166L57,155L57,133L55,132L56,123L55,116L55,112L56,68L55,59L53,57L53,53L52,51Z"/><path d="M396,10L394,12L392,12L390,14L389,17L390,26L391,26L393,28L396,29L399,29L399,25L401,23L404,23L406,21L407,13L405,11L403,10Z"/><path d="M351,8L350,11L349,15L348,19L347,34L348,43L348,46L347,47L347,50L348,57L350,58L349,62L347,62L347,69L349,71L351,71L351,67L352,64L354,62L355,60L356,56L357,48L357,8L355,8L354,7Z"/><path d="M44,-5L43,5L43,10L44,11L44,14L46,14L46,9L48,7L48,3L46,2L46,-5Z"/><path d="M94,-32L94,-30L92,-29L91,-28L90,-26L90,-24L88,-22L84,-21L78,-22L78,-25L75,-25L75,-22L77,-21L78,-17L79,-14L80,2L81,10L79,17L78,26L78,29L80,29L81,26L83,26L86,29L85,32L83,32L84,36L86,36L87,31L90,31L90,28L91,27L90,4L90,2L90,-9L90,-12L92,-14L93,-16L95,-23L95,-29L97,-31L97,-33Z"/><path d="M21,-540L19,-538L18,-535L19,-506L19,-488L19,-446L18,-429L18,-427L18,-407L18,-390L19,-366L17,-275L17,-272L18,-229L16,-198L16,-196L18,-173L18,-152L16,-139L15,-126L15,-118L17,-108L17,-91L16,-48L18,-42L17,-30L17,-28L17,-16L17,-7L18,-1L19,6L20,10L21,11L21,13L20,31L18,35L18,38L19,41L22,44L21,53L21,58L21,75L21,88L22,92L23,94L29,95L29,75L28,74L27,68L26,62L28,61L28,59L26,58L25,51L25,43L27,38L27,34L25,18L25,9L27,-6L27,-47L26,-76L24,-83L24,-85L25,-86L25,-88L23,-146L23,-148L24,-149L24,-151L22,-160L22,-165L24,-180L25,-193L25,-196L23,-205L23,-222L25,-239L25,-247L25,-259L25,-261L24,-274L24,-290L25,-295L25,-297L25,-347L25,-355L23,-369L23,-375L23,-420L24,-428L24,-432L23,-540Z"/></g></svg>