<svg xmlns="http://www.w3.org/2000/svg" viewBox="0 0 640 290" preserveAspectRatio="none"><g fill="#fff5a0" fill-rule="evenodd"><path d="M334,261L334,263L333,264L333,266L336,267L340,268L342,270L343,270L343,274L341,275L337,277L334,278L330,279L326,280L321,279L321,276L320,274L313,274L311,277L311,279L312,281L315,283L316,291L320,291L327,288L331,288L335,287L339,285L339,284L340,283L342,282L351,277L356,277L366,279L377,278L381,278L382,280L385,281L391,282L400,283L408,284L410,284L431,282L435,282L445,283L448,280L457,279L459,279L463,280L464,278L469,278L473,279L477,280L480,282L486,282L493,285L495,287L500,288L502,288L503,287L505,287L506,285L507,282L507,280L504,279L504,277L502,277L500,275L494,275L493,277L491,278L485,279L483,277L483,275L478,275L474,274L471,271L472,265L472,263L470,263L469,262L466,262L464,264L462,264L462,266L458,270L453,271L445,271L443,273L440,273L438,275L425,275L424,274L411,275L403,274L400,274L396,276L385,276L377,274L377,271L369,270L368,268L366,268L365,269L363,269L361,268L359,265L357,263L349,263L341,261Z"/><path d="M355,211L347,212L344,214L339,214L338,215L334,215L334,217L336,217L337,218L340,218L343,221L345,222L348,223L361,224L361,227L363,227L367,225L372,224L377,224L379,226L382,226L384,228L384,230L405,230L418,229L420,228L420,226L409,227L407,227L399,225L399,222L397,218L391,219L389,219L388,218L385,218L380,216L378,214L375,213L367,212L357,211Z"/><path d="M497,195L496,197L494,197L492,199L492,200L489,202L489,207L487,208L487,210L489,210L490,207L495,208L495,210L497,210L497,208L494,207L494,205L497,202L499,202L502,204L505,203L506,201L506,198L501,198L500,196Z"/><path d="M248,194L248,196L249,201L250,205L251,207L255,211L260,214L263,215L267,216L273,217L280,217L287,220L296,221L300,222L308,225L312,225L313,222L315,221L320,221L320,216L318,215L315,215L312,213L309,213L308,212L306,212L299,213L294,212L278,208L273,207L271,206L269,205L264,202L259,198L256,196L250,194Z"/><path d="M598,179L587,180L585,181L583,183L582,186L577,191L575,195L573,197L570,199L567,201L564,202L561,201L560,199L560,196L558,194L559,189L559,187L558,185L555,185L555,188L553,191L552,194L551,198L550,210L550,213L552,218L552,223L556,223L558,219L563,213L567,212L570,210L572,208L572,207L575,204L575,201L579,197L583,198L583,208L581,212L582,218L584,218L586,216L588,213L590,208L593,205L594,202L596,199L597,194L597,188L598,184L600,181L600,179Z"/><path d="M511,177L508,180L507,185L507,189L509,190L512,190L513,188L515,182L515,180L514,178Z"/><path d="M236,156L235,158L234,165L234,168L235,171L236,173L239,178L242,178L242,176L241,175L239,167L239,155Z"/><path d="M420,133L417,134L415,135L412,138L411,142L410,147L410,156L411,171L413,175L417,175L418,176L422,176L466,175L469,172L470,168L470,146L469,141L468,137L466,135L462,134L448,133L442,133L428,133Z"/><path d="M567,132L565,134L563,141L559,141L556,138L551,138L551,146L555,147L556,149L557,154L557,160L559,161L560,167L559,170L557,170L557,174L559,175L560,178L562,178L562,176L564,175L566,170L569,165L569,157L572,155L572,151L573,150L573,144L572,143L572,136L571,135L571,133L569,132Z"/><path d="M238,131L238,134L236,136L235,138L236,141L237,141L238,144L237,148L239,148L240,146L240,139L241,138L240,131Z"/><path d="M503,117L502,118L499,118L499,123L501,126L503,128L507,128L507,124L506,120L505,119L505,117Z"/><path d="M250,111L247,114L245,117L245,124L247,125L249,125L251,124L256,119L257,117L257,113L255,113L253,111Z"/><path d="M365,85L360,89L356,88L356,86L341,86L335,87L329,89L328,92L315,93L312,93L311,92L308,92L307,93L304,93L303,92L299,92L295,94L283,100L282,102L277,104L275,108L276,111L279,111L282,110L285,109L289,106L293,105L297,105L300,104L303,102L310,101L312,100L314,98L317,98L329,100L331,100L336,99L345,101L356,102L369,103L383,103L405,103L419,103L423,101L425,101L426,94L431,94L431,92L418,92L415,90L410,90L404,89L403,87L397,87L389,85L380,86L379,91L369,90L369,85Z"/><path d="M424,64L418,65L414,66L404,70L401,70L392,69L385,70L381,72L375,72L374,70L372,70L370,72L368,72L367,73L366,75L364,76L364,78L383,78L384,77L386,77L389,74L400,74L402,72L413,72L418,74L435,74L447,75L456,76L464,78L474,78L481,81L487,81L488,80L494,80L494,78L492,76L490,75L488,75L487,73L478,73L477,71L470,70L464,69L456,68L445,68L439,67L438,65L433,65L432,64Z"/><path d="M520,56L518,57L517,59L517,61L520,62L524,66L527,66L530,65L532,63L532,61L530,59L524,56Z"/><path d="M45,18L38,20L35,21L33,22L28,26L26,27L12,27L10,25L0,25L-2,26L-2,28L1,31L0,34L-1,34L-2,35L-9,43L-9,45L-7,46L-5,46L-4,45L4,43L9,42L13,42L14,39L16,38L19,37L28,36L33,33L36,33L37,30L39,30L44,27L47,26L51,25L57,26L57,28L53,32L49,34L39,40L33,43L28,43L27,45L25,45L22,48L17,50L12,53L5,60L0,64L-3,65L-5,67L-5,68L-8,71L-10,72L-14,73L-19,78L-21,79L-24,79L-27,81L-41,94L-52,106L-55,108L-55,110L-58,114L-62,118L-64,118L-64,120L-67,124L-69,124L-69,127L-70,129L-75,134L-76,136L-76,139L-78,142L-80,145L-81,146L-83,148L-85,149L-87,151L-88,156L-90,156L-90,158L-88,158L-87,155L-84,154L-84,152L-83,150L-79,148L-76,143L-53,120L-44,112L-43,111L-39,108L-35,105L-29,101L-26,99L-24,99L-21,97L-13,91L-5,86L2,82L6,81L8,80L19,74L22,71L30,67L35,65L44,62L48,62L51,61L54,60L59,57L66,56L74,52L78,51L85,51L89,50L93,49L100,46L104,45L108,44L114,44L117,42L120,42L125,39L139,39L144,38L148,37L150,35L154,34L165,33L176,32L191,32L201,30L222,29L236,29L264,31L298,31L305,32L311,33L313,34L315,36L314,41L314,43L316,44L316,46L315,50L319,50L325,47L328,47L331,46L339,42L342,42L343,41L346,42L346,45L344,47L338,52L332,56L328,59L328,61L327,62L327,65L331,65L334,64L339,62L344,60L346,58L349,57L352,56L358,55L361,54L367,51L370,50L374,49L388,46L395,45L404,44L415,44L422,43L430,39L437,39L441,38L444,36L447,36L450,35L452,34L452,31L438,31L429,33L420,32L418,32L409,33L401,35L388,35L383,36L366,41L362,40L363,35L363,33L357,33L353,35L349,35L348,36L345,36L338,35L334,34L331,31L329,30L327,29L324,29L317,25L314,25L311,23L308,22L304,21L300,20L289,19L274,18L248,18L236,19L214,22L203,22L192,23L182,26L176,27L161,27L153,28L147,29L142,31L135,31L132,33L127,34L121,34L117,36L112,37L105,37L101,39L93,39L84,42L79,43L74,43L69,44L65,45L60,48L57,48L54,49L49,52L43,53L41,55L34,58L31,57L32,54L33,54L35,52L44,48L51,44L54,42L59,38L65,33L67,31L67,26L56,25L56,22L55,20L53,19L50,18Z"/></g></svg>