<svg xmlns="http://www.w3.org/2000/svg" viewBox="0 0 830 516" preserveAspectRatio="none"><g fill="#fff5a0" fill-rule="evenodd"><path d="M471,483L470,485L471,488L475,489L481,489L486,491L491,492L503,492L504,490L504,487L501,485L494,484L474,483Z"/><path d="M710,442L707,443L705,444L701,447L698,448L696,449L695,450L694,452L694,454L700,454L704,452L713,452L715,451L715,445L714,443Z"/><path d="M748,440L745,441L742,443L739,446L736,447L729,455L723,460L722,460L718,464L718,466L720,468L720,469L727,470L731,469L733,467L736,466L744,464L746,463L748,462L753,459L756,456L758,456L759,454L759,452L757,452L750,455L746,458L743,458L742,460L739,459L740,456L745,449L750,443L750,440Z"/><path d="M45,420L45,422L46,424L51,428L51,429L54,430L58,434L61,435L66,440L70,441L72,443L74,444L79,445L84,448L89,449L98,454L107,458L110,458L115,461L120,462L126,463L133,463L139,465L145,465L150,466L154,467L158,469L157,473L145,474L143,474L130,472L114,471L95,470L93,470L82,472L77,472L72,470L64,469L45,469L31,467L25,467L21,468L16,469L16,471L22,471L23,472L33,472L43,474L58,474L64,475L65,476L69,476L75,474L79,474L82,475L86,476L88,478L109,478L134,477L155,478L162,480L171,480L173,482L175,482L176,481L178,481L179,482L181,482L184,480L235,480L250,482L261,482L263,481L265,479L267,478L270,478L272,477L273,473L275,472L290,472L299,471L304,469L328,470L343,470L347,469L351,468L356,464L361,464L363,462L367,462L368,460L371,459L374,458L378,458L381,456L385,455L395,455L397,456L399,458L399,461L402,467L409,474L412,476L414,476L416,478L415,481L413,481L410,483L404,484L399,484L379,483L375,482L371,481L367,477L367,469L365,469L362,470L353,474L351,476L345,478L344,483L344,485L347,488L366,489L376,489L397,487L401,488L401,490L417,489L424,488L428,490L440,491L449,491L455,490L458,489L461,487L461,483L458,481L457,481L457,477L459,476L472,476L476,475L484,472L492,471L501,471L508,470L513,469L520,466L524,466L527,464L533,463L540,463L543,466L543,469L544,471L546,474L549,476L553,477L564,477L573,476L580,475L585,474L590,472L595,471L600,470L627,469L633,470L632,473L627,474L622,476L618,479L615,479L609,482L607,484L607,487L608,488L608,490L610,490L618,486L622,486L624,484L628,483L632,483L640,480L644,479L646,479L647,480L649,480L651,479L652,476L654,474L657,473L661,472L670,472L674,471L678,470L681,469L683,468L683,465L685,463L687,463L689,462L689,460L687,460L686,461L682,460L682,458L679,458L678,463L675,463L665,462L662,459L658,458L654,458L638,459L624,461L616,460L613,460L609,462L601,463L594,463L585,464L581,465L579,467L570,469L566,468L566,463L562,462L562,460L564,458L565,458L568,455L572,453L576,450L580,446L579,443L574,443L568,445L556,449L549,453L545,453L534,458L530,459L526,460L508,463L501,463L495,465L487,466L480,467L471,467L459,470L445,470L420,469L410,466L408,465L406,463L406,461L407,459L415,451L421,448L424,446L427,443L427,440L426,438L423,438L419,439L415,441L408,442L404,443L402,445L397,446L395,448L392,449L381,448L379,448L373,450L368,450L364,452L359,453L352,453L347,454L345,456L342,457L333,459L326,460L315,461L301,462L288,463L259,464L253,463L250,463L248,465L239,466L220,466L208,465L200,463L192,463L189,461L178,461L171,459L154,459L151,457L149,457L148,458L146,458L140,457L134,456L129,455L118,451L114,451L99,447L95,446L91,444L87,441L83,440L81,439L78,436L73,433L67,430L62,429L59,428L53,423L48,420Z"/><path d="M776,396L775,400L773,402L772,405L768,405L764,408L762,408L761,406L758,406L750,410L743,417L740,418L737,420L730,427L727,431L725,434L722,440L721,443L721,445L723,445L726,441L727,440L733,436L733,434L732,433L732,430L734,428L736,427L739,426L745,426L746,428L748,428L751,426L755,426L755,423L757,421L760,419L764,419L769,415L771,414L774,414L775,412L775,405L776,403L777,401L781,400L781,398L779,398L778,396Z"/><path d="M761,391L759,392L758,393L756,397L757,400L759,401L763,401L764,397L765,394L765,391Z"/><path d="M664,383L663,384L660,384L658,385L657,387L656,394L656,396L658,396L660,393L664,392L664,388L666,386L666,383Z"/><path d="M361,381L361,384L360,385L360,387L363,389L363,392L363,400L365,400L372,396L379,395L384,394L384,388L386,387L387,385L387,383L384,383L381,384L378,386L371,386L368,385L363,381Z"/><path d="M420,379L418,381L418,385L422,386L425,385L425,383L424,379Z"/><path d="M227,377L223,381L218,383L216,385L215,385L214,386L212,388L212,392L210,394L210,397L212,401L214,401L218,398L224,392L228,387L228,385L230,383L231,381L231,379L229,377Z"/><path d="M41,375L40,377L40,379L44,383L46,383L49,382L51,381L51,379L48,376L46,375Z"/><path d="M643,373L641,375L637,375L637,381L641,386L646,386L648,385L649,384L650,382L650,379L649,377L647,374L645,373Z"/><path d="M342,370L342,373L344,375L345,375L348,378L352,378L354,375L356,375L356,373L353,373L352,371L350,371L349,372L347,372L344,370Z"/><path d="M96,366L96,369L97,371L101,374L108,376L117,384L120,387L122,390L122,392L126,395L130,398L135,398L135,395L134,389L133,387L132,386L127,383L124,380L124,377L122,375L117,374L110,373L109,371L107,369L103,368L100,366Z"/><path d="M-37,364L-60,365L-67,366L-70,367L-73,368L-77,370L-77,373L-75,374L-61,374L-52,375L-48,377L-43,380L-29,386L-22,385L-22,383L-24,380L-27,377L-26,373L-14,373L-7,375L-2,378L2,379L22,379L22,377L23,376L23,372L20,369L17,368L8,366L0,365L-8,364Z"/><path d="M733,362L729,363L723,366L723,370L724,372L726,374L728,374L730,373L742,365L742,363L740,362Z"/><path d="M466,360L458,367L457,367L455,369L454,372L453,372L450,374L450,379L459,379L462,380L464,381L464,385L458,385L454,386L450,388L450,394L448,398L448,400L450,402L453,402L457,399L462,393L465,392L465,390L469,385L471,383L475,383L477,381L486,375L489,372L490,368L495,367L496,364L497,364L498,361L495,361L494,362L490,362L486,364L478,368L473,372L471,373L468,372L468,370L469,368L471,366L472,364L472,361L470,360Z"/><path d="M228,360L225,361L223,363L223,364L220,365L215,370L208,378L205,380L199,381L200,386L207,386L209,385L210,383L214,381L216,379L220,374L227,373L227,371L228,370L229,366L232,365L232,360Z"/><path d="M782,274L781,278L780,283L777,286L777,293L778,295L780,295L780,292L782,287L782,282L784,277L784,274Z"/><path d="M315,268L314,270L313,272L311,279L310,281L303,288L303,290L300,292L300,294L303,295L306,298L309,303L311,308L313,309L313,310L315,313L318,317L321,320L324,319L324,312L323,307L322,301L319,298L318,298L314,294L314,291L315,289L318,286L321,280L322,274L322,269L319,269L318,267Z"/><path d="M83,265L80,268L79,271L74,277L73,280L70,283L68,283L64,287L64,290L63,291L63,293L64,295L66,298L68,300L71,301L71,305L73,308L75,310L76,311L80,314L80,319L81,321L84,322L86,324L90,325L91,327L91,331L93,334L95,336L100,340L103,340L103,338L102,335L101,333L99,330L95,327L94,326L91,321L89,320L89,313L88,312L88,307L86,306L86,302L84,302L81,299L78,296L75,292L76,289L80,288L82,286L83,282L83,275L85,273L86,270L86,267L85,265Z"/><path d="M263,264L263,268L265,272L265,276L266,277L266,279L273,280L273,287L275,289L275,292L274,294L273,295L271,296L269,296L267,298L267,301L265,303L265,306L264,308L263,309L262,309L261,313L259,317L259,321L262,322L262,324L261,328L263,328L264,329L266,329L268,326L272,318L274,310L275,307L280,301L284,295L284,292L286,291L286,289L280,284L277,280L275,277L274,275L273,273L272,268L270,264Z"/><path d="M745,260L742,262L738,262L738,264L739,267L740,269L745,270L745,274L746,275L746,278L745,279L745,281L748,282L751,285L754,289L754,292L752,294L748,295L741,302L740,304L739,307L737,308L737,309L735,311L732,319L732,324L735,325L735,328L733,330L730,332L727,332L724,334L723,337L722,338L716,343L712,349L708,353L704,356L703,356L701,358L701,360L699,361L698,363L697,365L696,369L694,369L691,372L691,374L694,374L695,376L699,377L702,380L705,380L708,377L710,374L710,370L712,365L713,361L717,356L726,347L729,343L731,340L734,335L737,329L738,326L741,327L741,329L743,329L745,327L746,325L751,314L754,305L755,303L759,300L760,297L763,294L766,293L766,291L765,289L761,288L758,285L757,281L755,279L754,277L752,270L747,260Z"/><path d="M501,258L501,260L500,261L500,264L503,269L506,278L506,280L508,280L511,283L512,287L516,290L517,293L517,296L515,298L505,298L505,301L503,306L500,310L501,314L500,317L496,317L496,319L500,320L500,322L502,323L506,323L507,318L509,317L510,315L510,313L514,305L518,301L518,299L519,297L521,295L523,294L525,294L527,293L528,289L525,289L523,288L521,286L520,286L519,285L519,284L517,281L514,278L510,270L510,268L505,258Z"/><path d="M212,235L212,238L214,240L217,241L217,243L222,251L223,254L222,260L222,262L223,269L221,272L220,279L218,281L217,287L217,292L216,294L213,295L213,303L211,304L211,309L210,313L207,315L206,319L205,320L199,321L197,323L195,326L179,326L179,322L177,322L176,324L173,324L172,329L169,329L168,327L164,328L160,328L160,323L157,323L156,325L153,324L153,321L151,321L150,319L148,319L148,323L146,327L142,326L138,324L138,321L133,321L129,320L127,318L127,315L122,314L121,313L120,299L118,298L117,295L115,290L115,287L112,286L112,277L108,278L107,280L106,289L106,303L107,306L109,308L111,313L113,321L114,323L115,325L118,330L124,338L131,344L133,347L134,348L137,350L138,350L139,352L143,354L149,357L152,357L154,359L160,359L161,357L165,358L167,358L169,356L171,354L172,354L174,348L176,348L178,350L179,352L179,355L180,357L183,361L190,361L194,360L197,359L202,357L207,354L216,348L220,345L229,336L233,331L236,326L237,324L238,320L240,318L242,313L243,309L243,303L245,298L245,287L244,280L243,275L242,271L241,268L239,264L236,258L231,253L231,251L230,249L226,246L224,244L224,242L222,240L222,238L221,236L219,235L217,234Z"/><path d="M120,221L117,223L115,225L111,229L109,236L107,238L106,240L106,243L108,243L116,234L118,232L123,229L123,227L124,226L124,223L122,221Z"/><path d="M226,219L224,221L224,223L225,225L228,229L235,236L240,244L246,249L248,251L248,252L252,253L252,248L250,244L245,234L242,229L240,226L234,221L231,219Z"/><path d="M478,203L477,205L473,205L457,204L457,209L460,213L460,217L459,224L461,224L462,220L465,221L465,226L466,228L475,236L480,242L482,244L485,246L487,246L487,244L486,241L482,237L480,234L479,230L476,225L471,220L469,220L468,221L465,220L464,218L463,215L464,214L465,210L468,210L471,211L476,214L482,215L488,218L490,219L491,222L495,222L496,223L502,223L509,225L515,224L515,222L514,220L510,220L501,217L497,215L491,212L488,210L484,207L480,203Z"/><path d="M347,188L347,190L350,193L350,195L353,197L353,199L350,202L345,205L341,208L340,214L341,216L343,216L345,215L352,211L356,208L359,209L360,215L360,217L352,224L351,225L351,226L349,228L346,233L345,235L344,238L344,240L346,240L350,235L352,233L353,232L354,232L356,230L359,229L362,227L366,224L369,221L370,219L371,210L371,205L369,205L366,204L364,202L361,201L361,199L362,198L362,195L361,193L359,191L357,190L355,189L352,188Z"/><path d="M201,187L199,188L198,193L191,193L186,194L185,195L182,195L180,193L178,193L175,195L175,197L174,198L174,201L171,204L169,205L160,205L158,206L157,208L155,208L155,210L174,210L193,211L204,213L206,213L206,210L201,205L199,204L197,203L188,202L188,200L190,198L192,198L194,196L201,196L205,198L222,199L221,202L219,203L216,203L216,209L217,211L221,215L223,216L227,216L226,212L227,209L230,209L233,210L238,212L245,216L248,216L250,214L250,212L248,210L247,210L240,204L236,202L233,199L234,196L237,195L237,192L238,191L238,189L236,188L231,188L221,192L218,192L213,189L210,188L207,187Z"/><path d="M139,187L135,188L132,190L128,191L124,191L115,189L112,189L112,194L115,195L115,200L110,204L105,207L101,210L101,212L100,213L100,215L101,217L103,217L105,216L119,208L123,209L123,211L122,212L122,215L124,217L126,217L128,216L130,215L133,212L134,212L136,210L137,208L137,204L134,204L130,203L128,202L125,199L126,196L135,197L141,198L142,199L150,200L162,200L162,193L149,192L149,187Z"/><path d="M478,185L473,188L470,189L462,191L459,191L456,190L454,188L451,187L448,186L441,186L440,187L437,187L437,189L440,191L439,194L423,194L418,189L415,189L413,190L410,193L403,194L401,196L401,200L400,202L398,203L397,205L397,209L399,209L402,208L407,204L409,203L414,203L418,205L422,205L425,207L430,207L431,208L436,207L436,202L438,198L440,198L442,197L443,195L445,194L448,194L451,197L469,198L472,198L476,193L480,191L482,189L483,187L483,185Z"/><path d="M388,184L387,185L382,185L378,186L375,188L373,188L371,189L372,194L374,194L379,197L383,198L390,199L392,199L393,198L395,198L395,194L391,193L391,191L395,188L394,185L392,184Z"/><path d="M700,175L699,176L697,176L697,182L698,183L697,190L695,190L690,187L687,186L680,186L679,190L677,192L673,194L664,194L662,193L661,190L657,185L657,184L654,183L652,186L649,188L647,189L643,190L643,191L641,193L635,194L632,193L632,190L634,189L634,187L629,185L626,185L625,186L621,186L616,189L613,190L607,189L608,184L608,181L604,181L601,183L597,187L594,192L589,194L582,200L580,200L576,203L571,209L568,210L564,214L557,217L554,221L551,222L551,224L561,224L566,223L571,222L575,221L577,220L579,219L580,218L584,213L590,210L593,209L597,210L597,213L596,215L593,219L591,223L591,227L590,230L589,232L588,234L587,235L582,239L580,241L578,244L573,254L572,257L569,256L569,252L567,252L561,254L560,256L558,260L555,268L554,270L548,281L541,288L538,289L538,291L539,292L539,294L543,296L544,297L544,298L549,306L552,309L553,311L554,316L555,318L556,320L558,321L558,324L561,324L565,327L568,330L570,333L571,335L571,338L574,340L578,345L587,358L592,363L595,367L596,369L595,372L590,372L585,368L576,363L570,360L568,360L564,363L565,366L571,371L576,375L580,378L584,380L593,388L597,390L603,395L610,402L615,402L615,399L612,394L613,391L618,391L618,389L616,389L612,386L608,382L608,380L610,378L611,377L614,376L617,379L618,383L620,386L622,386L625,385L627,384L629,380L629,378L625,374L623,374L621,372L619,372L617,371L611,365L607,362L604,361L602,360L601,359L600,358L599,357L598,355L598,353L597,351L596,349L594,346L590,342L590,340L587,336L582,329L579,327L576,326L574,324L570,322L569,319L569,317L565,316L565,311L564,306L562,303L562,300L559,299L557,297L554,297L551,299L549,299L546,296L547,293L552,289L556,288L559,285L561,280L565,275L566,273L566,270L568,265L571,266L571,271L574,270L575,267L575,264L577,259L580,253L583,248L585,245L589,240L594,235L597,231L598,229L598,226L600,224L601,224L602,223L605,219L606,217L609,210L610,207L610,203L608,201L601,200L602,197L609,197L613,196L614,195L616,195L624,196L627,199L629,199L631,201L632,201L633,205L630,208L631,211L636,211L641,210L643,209L644,208L645,206L645,203L646,201L650,200L655,204L659,205L662,205L663,204L668,205L668,207L667,208L667,210L669,211L671,212L688,212L688,210L686,208L683,206L682,206L679,204L677,202L678,198L680,197L698,197L704,198L706,199L706,203L701,203L697,204L695,205L695,208L696,210L699,213L700,213L702,215L702,218L700,219L700,224L703,227L717,240L720,244L721,247L722,247L725,249L730,254L736,254L736,252L735,250L734,249L733,249L732,245L730,242L728,239L723,232L720,228L716,224L716,223L713,220L711,219L708,219L706,218L706,209L710,209L713,210L715,211L723,217L731,221L734,222L738,223L743,224L747,224L748,222L752,222L751,219L749,219L744,217L742,216L739,214L736,212L732,209L721,200L716,195L711,189L709,185L705,181L704,178L703,176Z"/><path d="M784,112L784,119L783,125L781,127L779,127L779,142L777,149L776,173L776,180L777,181L777,188L775,239L775,242L776,250L778,255L780,256L784,256L784,254L787,250L791,250L791,253L789,258L786,258L785,263L785,265L790,269L789,282L787,282L787,284L786,285L786,289L788,293L794,294L794,298L797,300L796,303L795,318L798,320L798,328L796,332L794,332L794,337L793,342L792,347L789,355L789,357L792,358L792,366L790,369L789,372L789,381L791,381L792,380L796,379L800,379L802,374L802,370L803,366L804,364L807,363L807,359L808,358L809,350L810,339L810,327L808,326L807,323L807,320L808,308L810,307L810,302L807,299L808,293L810,293L810,290L806,289L807,284L809,284L809,281L808,280L808,278L806,278L805,279L802,279L800,277L799,271L799,264L802,261L804,261L804,259L800,259L798,257L797,255L796,251L794,248L791,248L789,247L787,243L786,242L785,240L783,229L783,225L784,220L787,215L787,212L793,206L797,204L797,201L796,200L794,190L793,181L793,160L792,151L790,143L789,135L789,126L787,121L787,116L786,115L786,112Z"/><path d="M804,110L804,112L803,113L804,124L804,127L803,134L806,135L806,141L805,150L806,161L805,162L805,173L803,186L802,187L802,191L803,199L805,199L805,197L806,196L807,185L812,175L814,164L814,159L813,158L812,151L812,144L811,138L809,135L809,126L808,122L806,120L806,110Z"/><path d="M811,-142L810,-139L809,-135L810,-118L810,-115L809,-97L807,-93L806,-86L806,-78L808,-71L808,-68L807,-40L805,-34L805,2L807,37L807,39L805,46L805,48L806,50L808,50L809,48L809,35L810,27L812,19L813,10L813,-1L815,-10L816,-21L817,-44L816,-62L816,-73L818,-93L818,-95L817,-137L816,-141L814,-143Z"/></g></svg>