<svg xmlns="http://www.w3.org/2000/svg" viewBox="0 0 420 420" preserveAspectRatio="none"><g fill="#fff5a0" fill-rule="evenodd"><path d="M173,399L165,400L163,401L164,404L180,404L179,400L177,399Z"/><path d="M246,396L232,401L226,401L225,405L224,405L223,408L224,410L231,410L232,403L234,403L240,404L243,407L242,411L242,413L244,413L245,412L248,412L249,408L250,408L252,404L252,400L250,396Z"/><path d="M282,388L281,394L277,394L272,397L269,398L270,407L271,407L273,409L278,408L279,396L282,395L284,395L287,398L292,398L292,394L291,391L289,387Z"/><path d="M72,363L71,366L67,369L68,373L70,373L71,372L73,372L75,374L75,375L77,377L80,378L85,379L85,381L85,387L87,389L92,391L94,392L101,397L104,398L104,401L102,402L102,404L109,404L110,406L115,406L119,408L119,411L122,415L122,419L126,419L129,418L131,417L132,413L138,411L138,409L134,405L132,405L127,405L125,405L124,407L120,406L120,404L121,403L121,401L119,399L117,399L115,397L111,397L109,394L104,392L102,391L101,390L98,386L97,386L95,384L95,380L91,379L90,376L90,374L88,374L86,372L85,370L78,364L76,363Z"/><path d="M345,350L345,354L344,356L341,357L341,361L340,362L340,371L341,372L341,382L342,387L343,391L344,395L345,396L345,398L348,397L350,395L350,392L348,387L347,380L346,373L347,356L347,350Z"/><path d="M78,312L76,315L72,315L69,318L68,321L67,321L61,327L60,329L59,330L58,331L53,334L51,334L49,336L45,336L43,338L37,340L37,342L39,344L39,348L43,348L53,347L57,348L59,349L66,357L70,361L72,361L72,357L70,355L70,353L68,350L66,348L64,346L62,346L60,344L58,344L55,341L56,338L58,338L63,334L67,331L72,326L75,322L76,317L79,317L81,315L80,312Z"/><path d="M282,297L282,300L283,327L287,335L290,338L291,340L290,345L288,346L287,346L285,347L284,348L282,350L282,353L285,354L285,359L287,360L286,363L283,362L283,359L279,360L279,366L277,368L277,373L279,379L281,381L285,381L286,383L288,383L288,376L285,375L286,372L289,372L289,369L286,368L287,365L289,365L290,356L293,356L293,350L295,346L296,346L301,343L302,340L301,338L298,337L293,332L291,329L290,327L289,309L290,299L290,297L287,297L286,296Z"/><path d="M77,295L77,297L77,304L77,307L79,307L80,309L82,309L87,308L90,306L90,303L92,301L94,299L94,297L90,297L87,300L82,299L81,298L80,294Z"/><path d="M114,261L114,263L113,264L113,266L116,267L120,268L122,270L123,270L123,274L121,275L117,277L114,278L110,279L106,280L101,279L101,276L100,274L93,274L91,277L91,279L92,281L95,283L96,291L100,291L107,288L111,288L115,287L119,285L119,284L120,283L122,282L131,277L136,277L146,279L157,278L161,278L162,280L165,281L171,282L180,283L188,284L190,284L211,282L215,282L225,283L228,280L237,279L239,279L243,280L244,278L249,278L253,279L257,280L260,282L266,282L273,285L275,287L280,288L282,288L283,287L285,287L286,285L287,282L287,280L284,279L284,277L282,277L280,275L274,275L273,277L271,278L265,279L263,277L263,275L258,275L254,274L251,271L252,265L252,263L250,263L249,262L246,262L244,264L242,264L242,266L238,270L233,271L225,271L223,273L220,273L218,275L205,275L204,274L191,275L183,274L180,274L176,276L165,276L157,274L157,271L149,270L148,268L146,268L145,269L143,269L141,268L139,265L137,263L129,263L121,261Z"/><path d="M135,211L127,212L124,214L119,214L118,215L114,215L114,217L116,217L117,218L120,218L123,221L125,222L128,223L141,224L141,227L143,227L147,225L152,224L157,224L159,226L162,226L164,228L164,230L185,230L198,229L200,228L200,226L189,227L187,227L179,225L179,222L177,218L171,219L169,219L168,218L165,218L160,216L158,214L155,213L147,212L137,211Z"/><path d="M277,195L276,197L274,197L272,199L272,200L269,202L269,207L267,208L267,210L269,210L270,207L275,208L275,210L277,210L277,208L274,207L274,205L277,202L279,202L282,204L285,203L286,201L286,198L281,198L280,196Z"/><path d="M28,194L28,196L29,201L30,205L31,207L35,211L40,214L43,215L47,216L53,217L60,217L67,220L76,221L80,222L88,225L92,225L93,222L95,221L100,221L100,216L98,215L95,215L92,213L89,213L88,212L86,212L79,213L74,212L58,208L53,207L51,206L49,205L44,202L39,198L36,196L30,194Z"/><path d="M378,179L367,180L365,181L363,183L362,186L357,191L355,195L353,197L350,199L347,201L344,202L341,201L340,199L340,196L338,194L339,189L339,187L338,185L335,185L335,188L333,191L332,194L331,198L330,210L330,213L332,218L332,223L336,223L338,219L343,213L347,212L350,210L352,208L352,207L355,204L355,201L359,197L363,198L363,208L361,212L362,218L364,218L366,216L368,213L370,208L373,205L374,202L376,199L377,194L377,188L378,184L380,181L380,179Z"/><path d="M291,177L288,180L287,185L287,189L289,190L292,190L293,188L295,182L295,180L294,178Z"/><path d="M16,156L15,158L14,165L14,168L15,171L16,173L19,178L22,178L22,176L21,175L19,167L19,155Z"/><path d="M200,133L197,134L195,135L192,138L191,142L190,147L190,156L191,171L193,175L197,175L198,176L202,176L246,175L249,172L250,168L250,146L249,141L248,137L246,135L242,134L228,133L222,133L208,133Z"/><path d="M347,132L345,134L343,141L339,141L336,138L331,138L331,146L335,147L336,149L337,154L337,160L339,161L340,167L339,170L337,170L337,174L339,175L340,178L342,178L342,176L344,175L346,170L349,165L349,157L352,155L352,151L353,150L353,144L352,143L352,136L351,135L351,133L349,132Z"/><path d="M18,131L18,134L16,136L15,138L16,141L17,141L18,144L17,148L19,148L20,146L20,139L21,138L20,131Z"/><path d="M283,117L282,118L279,118L279,123L281,126L283,128L287,128L287,124L286,120L285,119L285,117Z"/><path d="M30,111L27,114L25,117L25,124L27,125L29,125L31,124L36,119L37,117L37,113L35,113L33,111Z"/><path d="M145,85L140,89L136,88L136,86L121,86L115,87L109,89L108,92L95,93L92,93L91,92L88,92L87,93L84,93L83,92L79,92L75,94L63,100L62,102L57,104L55,108L56,111L59,111L62,110L65,109L69,106L73,105L77,105L80,104L83,102L90,101L92,100L94,98L97,98L109,100L111,100L116,99L125,101L136,102L149,103L163,103L185,103L199,103L203,101L205,101L206,94L211,94L211,92L198,92L195,90L190,90L184,89L183,87L177,87L169,85L160,86L159,91L149,90L149,85Z"/><path d="M204,64L198,65L194,66L184,70L181,70L172,69L165,70L161,72L155,72L154,70L152,70L150,72L148,72L147,73L146,75L144,76L144,78L163,78L164,77L166,77L169,74L180,74L182,72L193,72L198,74L215,74L227,75L236,76L244,78L254,78L261,81L267,81L268,80L274,80L274,78L272,76L270,75L268,75L267,73L258,73L257,71L250,70L244,69L236,68L225,68L219,67L218,65L213,65L212,64Z"/><path d="M300,56L298,57L297,59L297,61L300,62L304,66L307,66L310,65L312,63L312,61L310,59L304,56Z"/><path d="M-175,18L-182,20L-185,21L-187,22L-192,26L-194,27L-208,27L-210,25L-220,25L-222,26L-222,28L-219,31L-220,34L-221,34L-222,35L-229,43L-229,45L-227,46L-225,46L-224,45L-216,43L-211,42L-207,42L-206,39L-204,38L-201,37L-192,36L-187,33L-184,33L-183,30L-181,30L-176,27L-173,26L-169,25L-163,26L-163,28L-167,32L-171,34L-181,40L-187,43L-192,43L-193,45L-195,45L-198,48L-203,50L-208,53L-215,60L-220,64L-223,65L-225,67L-225,68L-228,71L-230,72L-234,73L-239,78L-241,79L-244,79L-247,81L-261,94L-272,106L-275,108L-275,110L-278,114L-282,118L-284,118L-284,120L-287,124L-289,124L-289,127L-290,129L-295,134L-296,136L-296,139L-298,142L-300,145L-301,146L-303,148L-305,149L-307,151L-308,156L-310,156L-310,158L-308,158L-307,155L-304,154L-304,152L-303,150L-299,148L-296,143L-273,120L-264,112L-263,111L-259,108L-255,105L-249,101L-246,99L-244,99L-241,97L-233,91L-225,86L-218,82L-214,81L-212,80L-201,74L-198,71L-190,67L-185,65L-176,62L-172,62L-169,61L-166,60L-161,57L-154,56L-146,52L-142,51L-135,51L-131,50L-127,49L-120,46L-116,45L-112,44L-106,44L-103,42L-100,42L-95,39L-81,39L-76,38L-72,37L-70,35L-66,34L-55,33L-44,32L-29,32L-19,30L2,29L16,29L44,31L78,31L85,32L91,33L93,34L95,36L94,41L94,43L96,44L96,46L95,50L99,50L105,47L108,47L111,46L119,42L122,42L123,41L126,42L126,45L124,47L118,52L112,56L108,59L108,61L107,62L107,65L111,65L114,64L119,62L124,60L126,58L129,57L132,56L138,55L141,54L147,51L150,50L154,49L168,46L175,45L184,44L195,44L202,43L210,39L217,39L221,38L224,36L227,36L230,35L232,34L232,31L218,31L209,33L200,32L198,32L189,33L181,35L168,35L163,36L146,41L142,40L143,35L143,33L137,33L133,35L129,35L128,36L125,36L118,35L114,34L111,31L109,30L107,29L104,29L97,25L94,25L91,23L88,22L84,21L80,20L69,19L54,18L28,18L16,19L-6,22L-17,22L-28,23L-38,26L-44,27L-59,27L-67,28L-73,29L-78,31L-85,31L-88,33L-93,34L-99,34L-103,36L-108,37L-115,37L-119,39L-127,39L-136,42L-141,43L-146,43L-151,44L-155,45L-160,48L-163,48L-166,49L-171,52L-177,53L-179,55L-186,58L-189,57L-188,54L-187,54L-185,52L-176,48L-169,44L-166,42L-161,38L-155,33L-153,31L-153,26L-164,25L-164,22L-165,20L-167,19L-170,18Z"/></g></svg>