<svg xmlns="http://www.w3.org/2000/svg" viewBox="0 0 610 160" preserveAspectRatio="none"><g fill="#fff5a0" fill-rule="evenodd"><path d="M129,111L128,113L125,120L121,125L120,128L119,131L118,135L117,139L116,145L115,153L115,161L119,160L120,157L120,154L123,145L125,142L128,133L129,129L130,121L133,117L134,112L134,110Z"/><path d="M539,107L537,109L538,118L538,122L537,123L537,127L540,126L540,121L542,117L542,115L541,107Z"/><path d="M160,92L158,94L156,94L154,95L154,101L158,101L160,100L165,96L166,94L166,92Z"/><path d="M437,77L435,78L435,80L438,84L438,87L437,88L437,91L440,91L444,93L447,96L449,96L451,95L451,92L450,90L447,88L445,88L443,86L444,81L444,79L442,77Z"/><path d="M447,68L447,70L446,71L446,74L447,75L447,77L450,77L453,79L455,79L455,75L452,72L450,68Z"/><path d="M227,61L227,63L226,64L226,66L230,65L232,65L236,67L241,67L240,64L234,63L232,61Z"/><path d="M388,52L379,55L377,56L373,59L368,63L359,71L358,72L358,73L356,75L356,79L357,80L358,86L362,86L365,82L368,81L369,79L370,77L370,75L371,73L373,71L373,70L376,69L377,65L379,63L381,62L383,62L387,59L389,58L392,58L392,52Z"/><path d="M491,49L491,53L495,64L495,70L499,75L502,75L507,79L516,88L517,90L517,92L518,94L520,96L520,97L521,98L522,98L523,99L523,100L525,102L525,106L528,113L532,113L532,107L530,104L530,98L529,95L528,93L526,91L525,89L524,87L523,84L524,80L526,80L526,78L525,75L522,69L514,68L513,63L512,63L511,62L511,61L509,58L503,52L497,49Z"/><path d="M114,46L108,52L105,56L105,64L109,65L109,67L105,74L101,79L101,80L99,81L97,86L95,88L92,89L90,91L83,91L80,88L79,85L78,73L76,73L74,75L74,78L76,79L76,81L74,82L74,84L76,85L75,89L74,101L71,104L72,109L72,112L71,113L71,115L74,116L75,118L75,121L77,123L77,132L79,134L81,134L81,132L83,128L86,118L89,112L96,99L97,95L99,95L101,93L101,91L103,90L103,87L106,84L112,78L113,77L117,76L117,74L119,73L120,71L120,65L119,63L115,62L115,60L116,55L117,51L118,50L118,48L117,46Z"/><path d="M586,33L585,35L585,38L587,40L591,42L597,44L603,47L606,50L605,53L600,53L596,54L594,56L591,57L583,57L581,58L580,59L580,60L575,61L572,62L565,66L563,66L560,65L558,63L558,62L556,60L553,58L551,56L547,56L547,58L549,60L549,66L550,68L555,72L556,75L560,76L563,74L566,74L568,71L570,71L575,67L577,66L587,62L591,61L605,61L609,62L613,63L616,64L621,66L623,67L625,68L626,71L631,71L634,72L640,75L652,81L654,83L657,84L658,85L668,96L675,104L675,105L682,113L683,114L691,122L694,124L697,125L699,125L703,122L708,116L710,116L710,114L709,112L704,112L699,115L697,115L695,114L693,112L692,110L691,108L689,100L685,92L681,81L679,74L679,70L678,67L677,63L675,63L675,67L673,71L673,81L675,85L674,88L672,88L669,85L664,78L657,72L657,65L657,62L656,60L654,58L653,56L653,54L654,48L649,44L647,44L641,45L635,42L628,42L624,39L620,38L618,37L616,36L615,33L613,33L604,34L600,36L596,36L589,33Z"/><path d="M545,34L545,41L546,42L546,44L548,46L552,51L552,54L557,54L558,49L562,49L563,51L566,53L568,54L570,54L571,53L573,53L573,51L571,49L570,41L567,41L564,40L561,37L555,37L551,34L548,33Z"/><path d="M140,33L138,34L136,36L137,40L141,40L143,38L142,33Z"/><path d="M67,29L59,30L58,31L55,31L54,33L54,35L55,37L56,38L57,38L58,39L59,41L60,43L60,46L58,51L58,55L60,55L60,53L62,51L66,51L66,46L68,43L70,41L72,38L73,35L72,30L69,29Z"/><path d="M232,25L228,26L225,27L222,28L214,31L212,32L210,33L209,34L208,37L206,39L202,42L197,43L192,43L188,45L186,46L185,51L184,53L180,54L179,52L177,52L172,56L165,62L158,69L154,71L153,76L153,78L154,80L158,81L161,80L166,76L170,72L174,70L180,64L181,62L183,56L184,55L185,54L187,53L192,51L195,48L199,45L203,46L203,50L204,52L210,53L212,55L215,55L216,54L219,54L222,58L225,57L225,54L223,50L221,49L217,49L211,47L211,44L213,42L215,41L221,38L224,37L229,36L234,36L237,40L240,42L245,43L247,44L256,53L258,56L259,58L260,64L260,69L259,71L250,72L250,75L251,77L254,80L255,83L259,85L267,84L267,82L265,81L265,79L262,78L261,72L262,69L265,69L266,67L266,61L267,56L269,55L269,51L268,49L265,45L261,40L259,38L258,38L255,35L253,34L251,33L246,32L245,26L240,25Z"/><path d="M371,24L369,25L367,26L366,27L365,29L365,32L363,34L360,35L355,42L351,45L351,47L349,48L347,51L346,54L346,57L344,60L344,64L346,68L348,69L351,69L352,70L355,69L356,60L358,60L357,56L357,54L359,50L360,49L363,48L366,44L367,41L371,38L377,38L378,36L380,36L382,37L389,44L392,45L396,45L398,47L401,47L405,50L407,51L413,51L414,53L416,54L419,55L422,55L428,58L433,57L433,54L431,52L430,52L427,49L427,48L423,44L422,40L420,39L415,37L409,33L400,29L397,28L393,27L389,26L378,26L374,25L373,24Z"/><path d="M-130,-8L-132,-7L-131,-2L-129,-1L-120,3L-117,5L-113,9L-109,11L-105,15L-102,16L-102,18L-103,19L-103,21L-100,23L-98,27L-97,31L-95,34L-92,37L-89,44L-88,46L-87,47L-85,48L-82,48L-81,46L-77,45L-77,33L-75,31L-71,32L-71,34L-68,37L-66,40L-66,47L-64,51L-63,55L-63,65L-64,68L-69,78L-71,85L-73,91L-75,101L-76,104L-79,110L-80,112L-81,113L-83,114L-86,114L-88,113L-90,112L-92,109L-93,106L-95,103L-97,102L-97,101L-99,99L-99,98L-103,97L-103,101L-102,104L-99,110L-97,113L-94,115L-93,118L-88,124L-85,130L-80,130L-78,128L-77,125L-74,122L-72,119L-70,114L-67,110L-59,102L-58,99L-55,95L-54,94L-51,93L-46,90L-41,85L-34,80L-29,77L-24,75L-21,72L-15,69L-10,67L-7,66L-3,65L2,64L10,63L24,63L28,64L38,67L41,68L44,71L51,74L57,79L59,80L61,80L61,76L62,73L64,70L65,67L65,63L63,63L61,65L54,65L52,64L49,61L44,58L39,56L32,53L28,53L26,52L26,48L31,47L36,47L41,46L44,45L46,43L47,43L48,42L51,38L51,36L50,34L48,33L46,33L40,36L21,36L9,37L5,39L-3,43L-6,45L-9,48L-10,54L-12,55L-18,58L-21,57L-20,54L-17,53L-17,51L-19,51L-25,52L-26,55L-31,59L-31,61L-29,62L-29,64L-35,70L-37,71L-40,71L-40,73L-43,76L-46,77L-49,77L-54,82L-57,81L-57,74L-56,66L-55,64L-52,62L-51,60L-48,57L-46,54L-46,51L-48,49L-50,42L-51,40L-54,36L-58,34L-58,28L-61,28L-61,34L-63,36L-67,35L-67,34L-69,32L-72,31L-73,28L-75,26L-83,25L-84,22L-89,17L-90,14L-91,12L-92,11L-94,10L-96,9L-100,8L-103,5L-103,3L-100,-1L-101,-4L-103,-4L-106,-6L-119,-6L-121,-8Z"/></g></svg>