<svg xmlns="http://www.w3.org/2000/svg" viewBox="0 0 1090 616" preserveAspectRatio="none"><g fill="#fff5a0" fill-rule="evenodd"><path d="M680,549L677,550L675,552L674,558L673,561L672,563L671,565L668,569L667,570L663,573L661,574L658,575L655,576L649,576L644,578L642,579L640,581L640,585L641,588L643,591L645,591L646,589L649,588L655,588L656,590L658,590L660,589L665,586L673,578L680,569L682,566L684,562L686,559L685,550L683,549Z"/><path d="M874,533L872,535L872,537L874,539L876,540L880,541L886,542L889,541L888,538L883,537L879,534L877,533Z"/><path d="M1047,531L1040,534L1036,534L1034,535L1031,538L1024,541L1021,543L1018,546L1012,549L1007,554L998,558L996,560L996,562L997,567L999,567L1000,568L1002,568L1013,567L1029,567L1031,567L1039,569L1050,570L1066,570L1067,569L1070,569L1070,567L1067,567L1065,565L1061,564L1055,564L1051,562L1046,561L1035,560L1030,559L1027,558L1024,555L1024,553L1026,551L1026,550L1027,549L1028,549L1030,547L1032,547L1034,546L1036,544L1038,543L1040,542L1044,541L1050,538L1052,536L1052,533L1050,533L1049,531Z"/><path d="M339,529L339,532L344,538L346,538L346,532L344,529L342,528Z"/><path d="M606,521L603,524L601,527L597,534L596,536L595,541L592,543L591,547L591,549L592,560L593,563L594,565L597,568L598,571L608,582L610,583L612,584L614,584L616,585L620,588L623,589L631,589L633,588L636,585L636,581L634,581L633,580L630,580L625,578L624,576L622,575L618,573L613,572L609,569L608,568L604,563L603,561L602,559L601,556L601,551L602,545L603,542L604,540L607,536L609,532L610,529L609,521Z"/><path d="M95,520L95,523L97,524L98,527L100,528L101,528L103,529L105,540L107,540L118,546L124,551L127,553L135,557L138,560L141,562L149,566L162,570L167,573L173,575L182,578L186,579L194,580L197,582L214,586L219,586L223,587L237,592L266,592L273,589L277,589L278,588L281,588L282,589L285,589L288,588L290,587L292,586L294,584L295,584L296,583L297,581L298,579L299,575L299,568L295,564L287,559L281,556L276,554L272,553L262,552L246,552L239,551L236,550L232,549L230,547L226,547L217,547L217,545L211,545L206,543L202,543L196,544L197,550L199,551L201,552L204,553L212,554L219,557L223,558L228,558L232,561L235,562L239,561L240,559L247,558L254,558L261,559L266,561L270,563L276,566L281,571L281,573L278,576L273,579L271,580L267,581L257,581L255,579L254,578L253,575L254,574L254,571L252,569L249,568L245,568L244,572L237,571L234,571L225,572L222,571L219,569L208,569L192,566L183,564L174,561L166,557L163,557L160,556L155,554L153,553L151,551L151,549L154,546L157,545L156,542L154,541L146,541L146,543L145,544L144,549L133,549L123,544L120,541L117,538L117,536L119,534L123,534L122,531L121,531L118,529L114,525L112,525L105,520L101,519Z"/><path d="M697,504L692,505L690,507L689,510L683,518L681,523L679,526L677,529L673,534L667,540L666,542L667,545L671,545L674,542L676,542L681,537L682,537L686,533L694,524L695,522L696,520L696,518L697,516L699,514L700,512L699,504Z"/><path d="M-17,499L-19,500L-20,501L-21,504L-24,509L-27,513L-29,515L-34,517L-37,519L-43,524L-48,527L-55,531L-61,533L-67,537L-69,537L-83,545L-88,547L-91,547L-94,548L-99,551L-102,552L-105,553L-112,554L-116,555L-119,557L-126,559L-131,560L-142,561L-160,561L-167,563L-189,563L-200,564L-204,565L-209,567L-211,569L-217,569L-233,568L-240,566L-250,565L-261,565L-269,563L-304,564L-307,564L-336,563L-340,561L-349,560L-369,559L-388,557L-396,556L-400,554L-411,553L-421,553L-430,552L-438,549L-443,549L-448,547L-456,547L-462,546L-469,543L-482,543L-482,545L-483,546L-483,548L-479,549L-479,551L-476,553L-473,555L-468,558L-466,558L-465,560L-459,561L-459,565L-461,567L-466,567L-470,569L-472,569L-473,568L-476,568L-478,570L-485,570L-493,569L-501,567L-525,564L-535,564L-546,563L-552,562L-557,560L-559,560L-563,561L-572,560L-578,558L-600,558L-607,557L-613,555L-621,555L-628,554L-632,552L-634,552L-640,554L-641,559L-642,559L-644,561L-645,561L-645,567L-640,568L-637,571L-635,571L-634,572L-631,572L-624,575L-617,576L-604,581L-600,580L-598,580L-595,582L-589,582L-585,584L-576,584L-569,586L-565,587L-563,589L-558,589L-553,591L-545,591L-544,590L-541,590L-541,587L-545,583L-548,581L-551,579L-557,578L-564,577L-572,577L-575,575L-578,574L-577,570L-559,570L-551,572L-541,572L-533,573L-528,575L-521,575L-514,577L-499,578L-472,578L-465,576L-461,575L-459,574L-456,571L-456,562L-454,560L-452,559L-449,558L-440,558L-435,560L-433,562L-428,564L-425,565L-425,574L-424,576L-419,581L-418,583L-418,587L-416,588L-409,589L-393,589L-390,587L-387,586L-388,583L-390,582L-392,581L-401,578L-405,576L-407,575L-407,571L-405,570L-402,570L-393,572L-383,572L-379,574L-370,574L-367,576L-328,576L-320,578L-312,578L-306,580L-258,580L-251,579L-246,577L-246,575L-244,573L-237,573L-231,575L-230,578L-228,578L-227,573L-223,574L-223,578L-220,578L-219,572L-216,571L-213,571L-211,572L-209,573L-209,577L-212,577L-212,579L-198,580L-194,580L-182,579L-161,579L-145,579L-139,581L-130,581L-129,579L-127,579L-105,580L-87,579L-70,577L-51,577L-39,576L-15,573L1,572L19,572L31,570L45,570L55,568L75,567L103,567L107,566L109,565L111,563L111,561L110,559L108,557L102,554L97,552L83,548L79,546L76,543L74,542L63,537L60,537L59,535L57,534L55,533L50,531L47,530L43,529L40,529L40,531L41,532L41,535L43,535L46,536L48,538L53,538L56,540L60,543L64,547L71,551L74,554L74,557L72,559L70,560L66,561L56,561L47,563L33,563L24,565L14,566L-12,566L-28,568L-47,568L-60,570L-85,571L-118,572L-143,572L-149,570L-148,567L-145,566L-137,566L-122,564L-115,563L-109,562L-105,561L-96,558L-71,550L-65,547L-60,543L-50,539L-45,536L-39,531L-33,525L-30,524L-28,522L-26,519L-24,516L-22,511L-20,511L-18,510L-14,505L-14,499Z"/><path d="M750,499L750,507L752,511L753,513L754,514L756,515L761,515L763,514L765,510L765,505L762,502L762,501L760,499L757,498Z"/><path d="M341,490L339,491L332,498L330,501L330,503L332,505L332,506L336,507L342,506L344,505L346,503L347,501L347,490Z"/><path d="M874,485L875,489L878,490L887,493L891,494L896,494L896,492L895,490L893,489L890,489L884,486L879,485Z"/><path d="M930,484L931,488L932,488L934,490L936,490L938,492L943,494L946,495L952,496L955,497L960,500L964,501L970,502L982,502L986,503L989,504L995,507L997,507L1001,509L1001,512L999,514L992,517L982,525L976,528L972,532L968,533L964,533L961,535L955,536L952,537L950,539L947,540L948,544L951,544L952,543L956,543L957,542L961,543L961,546L959,548L956,550L951,553L947,554L937,557L932,557L929,558L914,564L898,568L892,569L886,570L876,570L866,572L856,572L850,574L848,574L847,573L844,574L844,576L853,577L854,579L854,583L851,584L840,584L833,583L827,582L820,579L816,579L812,578L809,576L806,573L806,571L808,569L814,566L819,565L824,562L827,561L830,560L837,558L841,557L846,556L870,556L872,558L875,558L881,555L884,554L893,553L897,552L899,551L901,550L902,547L900,546L895,546L882,548L858,548L849,549L835,552L824,552L820,554L817,558L814,560L812,561L810,562L799,562L799,564L797,568L797,571L795,575L796,578L797,578L799,580L803,586L806,586L811,588L815,588L819,589L821,591L848,591L857,590L862,588L869,587L883,586L888,585L892,584L899,582L902,581L905,580L907,579L908,576L910,574L915,573L924,573L932,572L935,570L938,570L944,567L947,564L950,563L951,561L954,560L960,559L967,556L975,551L978,549L981,546L982,546L984,544L984,543L987,540L988,538L988,536L987,535L987,533L991,529L994,527L997,525L1000,524L1006,519L1010,519L1010,521L1011,523L1018,523L1018,521L1014,520L1013,518L1013,516L1014,514L1018,512L1026,513L1028,513L1039,511L1049,511L1048,508L1046,507L1042,505L1039,504L1034,503L1017,503L1002,501L987,501L983,500L980,499L977,497L971,496L967,493L961,493L959,491L954,491L952,489L948,489L942,486L935,484Z"/><path d="M841,467L841,471L842,473L844,475L845,475L847,478L849,479L852,480L858,482L861,482L860,478L856,475L851,473L843,467Z"/><path d="M181,466L180,467L176,467L174,469L173,469L171,472L169,472L169,474L162,481L160,481L156,485L154,486L151,486L144,489L142,491L137,493L134,494L125,495L121,497L116,497L112,499L99,499L96,501L94,501L89,500L81,502L68,502L66,504L58,504L51,502L51,499L47,499L46,504L45,504L42,506L42,508L43,509L42,512L40,512L40,514L42,515L43,519L46,520L52,521L60,521L59,517L57,517L55,515L55,512L59,508L61,507L68,507L73,509L87,509L92,508L96,506L101,505L114,504L120,502L126,501L134,501L139,500L142,499L147,497L152,494L157,493L168,487L171,485L175,482L180,477L182,474L183,472L184,470L184,466Z"/><path d="M1043,464L1020,465L1013,466L1010,467L1007,468L1003,470L1003,473L1005,474L1019,474L1028,475L1032,477L1037,480L1051,486L1058,485L1058,483L1056,480L1053,477L1054,473L1066,473L1073,475L1078,478L1082,479L1102,479L1102,477L1103,476L1103,472L1100,469L1097,468L1088,466L1080,465L1072,464Z"/><path d="M32,463L25,465L9,465L3,467L-3,467L-8,469L-13,469L-17,470L-22,472L-26,475L-29,475L-30,477L-33,478L-36,478L-37,480L-37,484L-32,484L-26,483L-14,480L-10,479L-7,477L0,477L3,475L7,474L13,474L16,473L20,470L30,470L32,471L34,473L35,473L35,477L34,477L33,478L30,482L30,484L31,485L31,487L34,487L41,486L42,484L46,485L46,487L48,487L51,486L56,484L61,481L66,479L69,478L72,477L77,476L82,475L90,475L91,474L97,474L97,472L95,470L93,469L89,469L84,467L79,467L74,465L68,465L64,463Z"/><path d="M906,459L905,461L905,465L906,468L907,470L910,474L912,476L916,480L921,481L923,483L926,483L926,480L923,478L922,475L916,468L914,466L911,464L910,461L908,459Z"/><path d="M556,456L553,458L551,460L551,466L550,470L549,472L547,474L547,475L543,476L541,474L539,471L539,468L537,466L536,463L534,463L533,465L530,465L528,462L524,463L523,467L524,486L524,489L523,493L521,497L516,507L512,510L511,513L508,515L507,516L506,518L506,522L508,524L511,525L516,525L519,523L521,521L521,520L524,517L525,515L526,513L528,508L528,504L530,501L530,496L531,491L533,489L536,490L537,509L536,513L534,513L534,516L537,517L537,535L536,541L535,544L533,546L530,546L524,540L522,540L521,542L519,542L517,543L515,548L515,555L516,558L519,564L520,568L520,576L519,584L517,588L512,588L510,590L505,591L501,594L497,595L495,597L494,597L493,598L493,599L488,602L486,604L482,607L480,610L479,613L479,615L594,615L594,613L595,612L595,608L592,605L592,601L590,599L590,596L586,593L578,590L576,588L574,585L574,583L570,582L570,573L573,564L574,559L575,553L575,544L573,544L567,546L559,545L558,541L558,535L556,532L557,512L557,505L554,504L554,496L556,487L558,487L560,489L561,492L562,496L563,500L563,506L564,509L565,512L568,518L570,521L573,524L575,525L577,526L589,526L593,525L595,524L599,520L599,517L587,518L583,518L581,517L576,512L575,510L575,507L571,502L568,496L568,491L566,486L566,467L562,466L562,459L561,457L559,457L558,456Z"/><path d="M887,431L886,432L882,433L871,434L868,435L865,436L855,440L848,444L840,452L837,458L837,460L838,462L842,463L843,459L847,454L848,453L850,451L852,449L856,446L859,444L862,442L865,441L872,439L877,439L880,437L883,437L886,435L889,434L889,431Z"/><path d="M969,399L958,403L953,405L944,409L938,412L933,416L931,417L927,417L924,418L919,421L916,421L911,423L904,426L904,429L908,429L916,429L916,431L911,437L908,442L907,444L907,451L910,451L911,450L913,450L914,447L925,436L928,435L930,430L933,427L936,425L941,422L944,421L946,421L949,420L954,417L957,415L960,413L963,410L972,404L973,404L974,401L973,399Z"/><path d="M104,390L103,391L101,391L101,393L106,397L111,401L115,404L122,409L125,411L128,413L132,414L132,416L134,416L135,415L137,415L140,417L143,420L149,423L156,430L156,432L158,432L159,434L162,435L169,441L172,441L175,444L177,445L179,446L182,446L182,443L181,440L180,438L176,434L177,431L186,431L190,433L194,433L198,434L204,437L215,439L219,440L222,442L225,442L233,446L238,449L241,451L247,457L248,459L248,463L247,465L245,467L244,467L237,473L232,476L226,479L221,481L218,481L206,487L203,488L200,489L192,490L187,491L184,493L181,493L178,494L176,495L175,498L183,498L192,497L196,496L199,494L203,493L211,492L218,489L225,488L231,486L232,484L235,484L240,482L242,479L245,477L252,474L254,472L260,465L260,454L258,451L256,449L252,447L249,444L246,442L244,441L231,435L227,435L223,433L215,432L205,429L202,427L196,426L190,423L187,423L184,421L178,420L172,417L168,416L165,416L161,415L156,413L154,412L150,409L143,407L141,405L136,403L129,401L112,393L110,391L107,390Z"/><path d="M711,285L710,286L707,286L707,288L706,289L706,291L711,291L718,293L724,292L724,289L720,285Z"/><path d="M340,263L338,264L335,267L333,267L333,269L335,269L350,267L349,264L346,263Z"/><path d="M666,252L664,253L664,255L666,257L671,257L677,259L683,259L687,261L689,263L690,266L693,266L695,264L694,258L693,258L691,256L687,256L682,253L669,252Z"/><path d="M678,238L676,239L675,242L679,246L683,247L688,246L688,243L687,240L685,238Z"/><path d="M546,181L543,183L543,186L540,193L540,197L539,199L537,201L535,203L535,205L531,210L530,213L530,215L533,218L535,221L537,227L537,231L534,240L531,245L531,248L530,251L524,257L518,262L511,268L502,268L499,270L493,271L490,272L485,274L480,276L472,280L465,284L460,287L457,289L447,296L442,302L440,303L438,303L427,313L424,316L423,319L419,322L417,325L404,345L403,347L403,350L401,352L399,357L395,367L394,370L392,381L391,384L388,389L387,397L385,401L384,405L384,413L383,417L382,421L380,424L379,429L379,458L380,472L382,477L383,489L384,494L385,498L387,505L389,509L393,517L399,526L403,531L411,540L411,541L414,544L415,544L417,546L416,549L413,550L408,550L406,552L406,554L407,555L407,558L409,563L412,568L414,571L426,583L429,585L433,588L436,589L439,591L448,592L452,592L454,591L455,588L458,587L461,590L466,590L471,588L475,587L479,583L486,579L490,575L493,571L495,568L497,565L498,563L499,559L500,547L500,544L499,541L498,538L496,535L492,531L492,530L489,527L486,525L484,524L482,524L482,526L485,532L486,536L486,541L487,542L487,546L486,555L485,559L484,563L481,567L476,572L474,573L470,574L465,579L459,582L458,583L455,584L448,583L444,581L434,576L425,566L423,565L422,563L422,558L423,551L422,539L420,535L418,534L417,534L415,533L414,532L412,528L406,523L404,519L402,516L402,512L400,508L400,504L397,501L396,496L394,494L393,492L390,483L390,470L387,463L386,455L386,448L387,443L389,440L390,433L390,431L389,430L388,426L389,413L390,413L393,411L397,407L398,404L400,399L399,387L399,380L401,377L406,372L407,369L413,363L415,360L417,355L424,348L426,344L429,342L430,339L433,334L434,333L438,329L442,327L443,324L446,323L449,321L450,319L452,319L455,317L458,316L461,316L463,318L463,319L470,321L472,321L473,320L476,320L481,317L484,317L485,316L487,315L490,314L492,316L500,316L502,314L504,314L506,316L510,317L511,320L514,320L516,322L516,324L519,326L520,330L527,336L528,340L532,341L532,344L536,347L544,348L546,348L546,345L545,344L546,340L550,341L551,345L552,346L554,347L556,347L558,346L559,345L560,343L560,340L562,338L563,332L564,330L568,326L571,326L574,324L575,321L578,321L579,316L584,316L585,317L590,317L598,315L609,315L616,318L622,318L624,320L628,325L628,328L630,330L634,330L636,327L640,325L641,322L642,321L647,321L647,322L648,323L653,327L655,330L655,331L656,332L657,332L659,334L660,336L661,337L662,338L663,341L667,345L669,348L671,351L679,365L686,373L687,375L688,377L688,380L690,383L691,386L695,401L696,403L699,407L701,412L701,423L703,434L703,464L701,476L701,495L702,496L702,498L706,498L708,495L710,490L714,476L714,474L713,473L713,471L715,465L715,429L714,422L711,407L707,391L704,380L703,377L700,370L699,368L697,366L696,364L695,362L694,357L688,345L685,340L681,335L679,330L672,322L662,311L658,307L657,307L654,303L652,301L646,295L644,293L643,292L641,291L636,288L629,284L617,278L604,272L594,268L591,267L588,267L586,269L586,272L587,274L589,276L598,285L597,288L595,288L591,286L583,282L579,281L575,281L571,282L569,283L567,284L561,290L559,290L557,288L556,284L556,277L558,272L562,272L566,274L570,274L571,276L573,276L580,274L580,269L577,263L574,262L566,254L563,250L561,247L558,241L555,233L555,224L558,218L563,213L563,210L559,205L558,204L557,204L556,203L555,201L555,200L552,196L550,191L549,188L548,184L548,181Z"/></g></svg>