<svg xmlns="http://www.w3.org/2000/svg" viewBox="0 0 840 556" preserveAspectRatio="none"><g fill="#fff5a0" fill-rule="evenodd"><path d="M354,523L350,524L347,526L344,527L325,527L320,529L321,532L335,531L345,531L367,532L368,531L383,531L384,529L386,529L388,528L388,525L378,525L372,523Z"/><path d="M134,480L135,483L139,486L141,486L143,488L147,489L150,490L155,491L161,490L161,487L159,486L156,486L153,483L149,482L143,480Z"/><path d="M86,477L84,479L84,485L82,487L78,488L74,488L70,490L71,494L76,498L80,498L84,500L86,500L87,497L95,498L94,502L94,504L96,505L101,506L108,510L114,511L118,512L119,514L124,514L125,515L131,515L136,516L143,518L146,520L150,520L157,522L160,523L165,527L178,527L181,529L184,529L185,527L191,527L191,525L182,524L181,522L178,521L175,521L163,517L158,514L155,513L153,513L152,514L149,514L146,513L140,510L137,507L137,505L132,505L130,503L128,501L126,501L125,500L123,500L122,502L119,502L114,499L112,497L111,493L108,492L104,487L102,487L98,483L95,483L88,477Z"/><path d="M104,465L103,467L103,469L108,474L110,474L111,476L117,477L120,479L123,480L130,480L130,477L128,476L125,475L120,471L116,470L112,467L108,465Z"/><path d="M628,440L626,442L624,443L621,444L598,444L598,446L603,446L608,448L608,450L610,451L613,452L619,453L626,454L640,454L641,451L643,451L643,449L637,449L635,448L632,444L630,443L630,440Z"/><path d="M803,439L801,440L800,441L799,444L796,449L793,453L791,455L786,457L783,459L777,464L772,467L765,471L759,473L753,477L751,477L737,485L732,487L729,487L726,488L721,491L718,492L715,493L708,494L704,495L701,497L694,499L689,500L678,501L660,501L653,503L631,503L620,504L616,505L611,507L609,509L603,509L587,508L580,506L570,505L559,505L551,503L516,504L513,504L484,503L480,501L471,500L451,499L432,497L424,496L420,494L409,493L399,493L390,492L382,489L377,489L372,487L364,487L358,486L351,483L338,483L338,485L337,486L337,488L341,489L341,491L344,493L347,495L352,498L354,498L355,500L361,501L361,505L359,507L354,507L350,509L348,509L347,508L344,508L342,510L335,510L327,509L319,507L295,504L285,504L274,503L268,502L263,500L261,500L257,501L248,500L242,498L220,498L213,497L207,495L199,495L192,494L188,492L186,492L180,494L179,499L178,499L176,501L175,501L175,507L180,508L183,511L185,511L186,512L189,512L196,515L203,516L216,521L220,520L222,520L225,522L231,522L235,524L244,524L251,526L255,527L257,529L262,529L267,531L275,531L276,530L279,530L279,527L275,523L272,521L269,519L263,518L256,517L248,517L245,515L242,514L243,510L261,510L269,512L279,512L287,513L292,515L299,515L306,517L321,518L348,518L355,516L359,515L361,514L364,511L364,502L366,500L368,499L371,498L380,498L385,500L387,502L392,504L395,505L395,514L396,516L401,521L402,523L402,527L404,528L411,529L427,529L430,527L433,526L432,523L430,522L428,521L419,518L415,516L413,515L413,511L415,510L418,510L427,512L437,512L441,514L450,514L453,516L492,516L500,518L508,518L514,520L562,520L569,519L574,517L574,515L576,513L583,513L589,515L590,518L592,518L593,513L597,514L597,518L600,518L601,512L604,511L607,511L609,512L611,513L611,517L608,517L608,519L622,520L626,520L638,519L659,519L675,519L681,521L690,521L691,519L693,519L715,520L733,519L750,517L769,517L781,516L805,513L821,512L839,512L851,510L865,510L875,508L895,507L923,507L927,506L929,505L931,503L931,501L930,499L928,497L922,494L917,492L903,488L899,486L896,483L894,482L883,477L880,477L879,475L877,474L875,473L870,471L867,470L863,469L860,469L860,471L861,472L861,475L863,475L866,476L868,478L873,478L876,480L880,483L884,487L891,491L894,494L894,497L892,499L890,500L886,501L876,501L867,503L853,503L844,505L834,506L808,506L792,508L773,508L760,510L735,511L702,512L677,512L671,510L672,507L675,506L683,506L698,504L705,503L711,502L715,501L724,498L749,490L755,487L760,483L770,479L775,476L781,471L787,465L790,464L792,462L794,459L796,456L798,451L800,451L802,450L806,445L806,439Z"/><path d="M556,437L550,438L546,440L544,440L544,442L543,443L543,450L545,452L549,452L552,448L554,447L556,446L561,445L572,445L575,441L574,438L571,437Z"/><path d="M44,431L44,434L45,435L45,439L47,442L46,445L43,444L42,441L40,441L40,444L41,448L43,452L45,453L52,454L56,457L59,457L61,458L65,462L67,462L69,464L72,464L75,461L81,461L91,461L91,458L89,455L89,452L88,450L84,449L82,447L81,441L79,441L75,436L73,435L70,434L68,434L68,436L69,439L71,443L72,447L71,454L66,453L65,451L65,450L64,448L59,447L57,445L57,443L55,440L51,435L47,431Z"/><path d="M852,403L845,405L829,405L823,407L817,407L812,409L807,409L803,410L798,412L794,415L791,415L790,417L787,418L784,418L783,420L783,424L788,424L794,423L806,420L810,419L813,417L820,417L823,415L827,414L833,414L836,413L840,410L850,410L852,411L854,413L855,413L855,417L854,417L853,418L850,422L850,424L851,425L851,427L854,427L861,426L862,424L866,425L866,427L868,427L871,426L876,424L881,421L886,419L889,418L892,417L897,416L902,415L910,415L911,414L917,414L917,412L915,410L913,409L909,409L904,407L899,407L894,405L888,405L884,403Z"/><path d="M794,395L792,396L790,398L783,400L780,403L778,403L776,405L774,406L771,407L768,407L766,408L766,410L763,414L762,415L761,415L759,417L756,418L749,423L738,433L737,434L730,441L728,444L726,447L726,452L728,452L731,450L741,444L743,443L752,440L767,437L772,436L772,434L771,433L771,431L772,424L774,419L777,417L780,416L783,414L784,410L785,410L789,405L794,401L797,399L798,399L799,395Z"/><path d="M503,379L502,381L500,381L500,383L501,385L502,386L503,386L505,388L516,387L516,384L517,383L517,381L515,381L514,382L511,382L510,383L508,383L506,380Z"/><path d="M474,379L474,382L475,384L477,386L479,387L482,387L489,391L492,391L493,383L493,380L491,380L490,383L488,383L483,382L481,380L476,379Z"/><path d="M603,366L603,368L613,369L613,372L615,374L615,379L614,381L611,384L608,385L603,384L603,380L601,380L601,385L603,387L606,387L607,388L613,388L614,386L617,386L620,383L620,378L621,377L621,373L620,370L618,368L616,367L612,366Z"/><path d="M485,366L484,368L485,372L486,372L488,374L492,375L492,377L494,377L494,373L493,371L492,369L491,368L487,366Z"/><path d="M353,359L349,364L348,366L348,372L346,378L346,390L348,394L348,397L347,399L344,402L343,404L343,406L337,417L336,419L333,420L330,423L328,423L320,428L312,431L310,432L305,437L302,440L302,442L304,442L306,441L308,439L310,438L320,435L322,434L325,432L328,430L333,426L344,416L348,413L350,412L353,412L359,415L361,415L361,410L355,404L353,399L352,389L352,385L353,380L355,376L356,371L355,359Z"/><path d="M384,344L384,348L385,355L386,361L387,364L390,370L391,373L391,377L393,384L394,387L395,390L398,395L400,400L400,406L398,409L393,414L390,415L390,417L391,418L391,420L404,420L407,421L409,422L416,429L418,433L422,437L427,437L427,435L427,430L429,430L431,431L437,435L443,438L451,441L454,441L457,443L460,444L460,446L458,448L456,449L454,450L451,451L448,451L448,453L450,455L461,455L469,454L475,453L479,452L481,450L485,449L488,449L489,448L491,448L491,446L484,447L482,447L479,444L476,443L475,442L474,439L472,439L471,443L465,442L464,438L463,432L448,432L444,431L441,430L433,425L430,424L426,424L420,420L414,418L411,415L410,412L407,411L403,408L403,403L406,403L408,401L408,393L405,387L402,382L397,376L395,373L395,370L396,363L397,361L400,360L400,357L398,355L396,353L393,353L391,351L390,349L390,347L389,345L387,345L386,344Z"/><path d="M694,338L692,339L690,341L689,343L688,345L687,348L687,350L688,355L687,356L687,360L689,361L691,361L692,360L695,361L695,367L694,370L693,373L690,378L687,387L687,392L685,395L685,403L684,410L683,413L680,416L674,419L671,420L669,420L668,419L665,419L662,422L662,423L660,425L656,426L652,426L650,427L647,430L644,431L641,433L637,437L635,437L635,441L641,441L644,440L656,433L658,432L661,433L661,438L663,438L664,433L670,433L671,430L676,425L678,424L680,423L685,421L689,420L700,420L702,418L702,416L698,411L694,410L692,408L691,406L690,404L690,398L693,393L696,382L698,377L701,372L703,367L704,364L705,361L707,354L708,349L708,345L706,343L704,343L703,345L702,348L700,350L698,350L696,348L696,338Z"/><path d="M81,305L81,308L80,309L79,318L79,331L78,336L77,337L77,340L78,344L80,347L81,350L82,355L83,366L83,379L85,390L84,401L80,402L79,404L79,408L77,409L77,411L78,413L84,413L86,414L90,418L95,420L98,423L98,425L101,426L105,430L108,432L114,432L116,434L116,436L119,436L120,437L124,437L131,440L134,440L139,442L139,444L134,448L134,453L139,453L144,452L149,450L156,449L162,448L169,447L266,447L271,445L278,446L283,445L285,445L288,448L288,450L290,450L297,453L299,453L300,449L300,447L299,445L297,443L297,441L295,441L281,442L276,439L274,439L268,441L220,441L214,439L205,439L175,440L165,441L161,442L158,444L149,444L147,442L146,439L143,438L142,435L137,435L136,434L126,434L120,432L119,429L114,425L111,424L107,421L103,418L96,411L94,408L92,405L91,403L90,401L90,395L88,393L88,391L86,389L87,384L89,384L89,376L87,366L87,362L89,354L89,352L88,345L87,342L86,339L84,337L84,324L82,317L83,308L83,305Z"/><path d="M530,301L529,308L527,308L526,306L524,306L518,307L517,306L512,306L511,311L508,310L507,307L505,305L498,305L498,307L497,308L497,311L494,314L494,318L496,322L508,322L509,320L513,320L514,322L516,323L521,323L526,321L526,320L530,320L531,322L536,322L537,320L540,320L542,322L549,322L549,317L547,315L547,311L549,309L549,306L546,303L541,303L540,305L536,304L535,300Z"/><path d="M489,298L486,299L483,302L481,307L479,307L477,305L468,306L462,306L460,303L460,301L458,300L454,299L447,299L445,300L445,302L449,303L449,306L454,306L456,308L456,313L454,315L451,314L451,312L449,312L449,314L449,320L446,320L446,322L455,322L458,321L460,320L461,318L465,318L465,319L467,321L469,322L478,321L479,315L483,316L484,322L489,321L489,312L492,309L493,304L494,304L494,299L491,298Z"/><path d="M623,254L623,256L624,259L625,263L627,263L628,257L630,257L635,258L637,259L639,261L639,270L640,272L646,272L648,270L648,262L646,262L645,270L642,269L641,265L641,259L639,257L635,256L631,255L625,254Z"/><path d="M591,251L590,256L588,257L584,258L584,260L585,264L587,264L587,260L589,258L592,258L593,257L596,258L596,270L598,272L604,271L605,269L605,261L607,259L615,260L617,260L617,258L615,257L607,257L606,258L604,258L603,260L602,268L598,267L598,255L600,253L600,251L598,251L597,252L594,252L593,251Z"/><path d="M98,247L98,252L97,253L97,262L99,262L99,258L101,257L101,249L100,247Z"/><path d="M397,229L395,230L394,252L397,253L398,259L398,264L396,265L396,272L397,274L400,274L399,256L399,254L401,237L401,233L399,229Z"/><path d="M348,209L348,214L346,215L346,222L347,223L347,225L349,225L349,223L348,217L350,216L350,209Z"/><path d="M84,190L85,197L85,200L84,202L82,204L78,204L78,255L80,255L81,247L83,247L85,250L88,251L90,257L90,262L92,262L92,252L90,251L90,245L89,243L87,243L86,241L84,241L83,242L80,241L81,221L84,220L86,220L87,210L90,209L90,207L91,206L91,203L87,202L87,199L88,191L86,190Z"/><path d="M49,188L48,205L47,235L47,241L49,253L49,266L51,276L51,279L51,305L50,317L48,317L46,315L44,309L44,307L42,307L41,306L37,307L37,318L35,322L32,323L30,325L29,327L27,333L25,333L25,335L27,336L27,338L26,339L25,343L25,345L26,349L25,374L23,389L23,393L25,394L25,406L26,413L27,418L28,422L29,424L32,425L32,427L34,429L36,429L39,426L41,426L42,427L44,427L44,422L46,421L46,419L43,413L42,409L41,405L40,400L40,392L38,385L38,364L40,356L40,348L41,343L42,340L43,337L46,332L46,325L48,323L48,322L52,322L53,324L53,335L51,336L51,338L55,345L56,349L57,352L59,352L59,350L61,349L62,332L62,319L59,310L58,302L57,291L57,269L55,268L56,259L55,252L55,248L56,204L55,195L53,193L53,189L52,187Z"/><path d="M396,146L394,148L392,148L390,150L389,153L390,162L391,162L393,164L396,165L399,165L399,161L401,159L404,159L406,157L407,149L405,147L403,146Z"/><path d="M696,145L695,152L689,153L689,158L691,160L696,160L698,161L699,166L701,166L702,164L705,165L705,167L707,167L707,162L706,157L705,154L704,152L701,147L699,145Z"/><path d="M351,144L350,147L349,151L348,155L347,170L348,179L348,182L347,183L347,186L348,193L350,194L349,198L347,198L347,205L349,207L351,207L351,203L352,200L354,198L355,196L356,192L357,184L357,144L355,144L354,143Z"/><path d="M44,131L43,141L43,146L44,147L44,150L46,150L46,145L48,143L48,139L46,138L46,131Z"/><path d="M340,105L340,109L343,115L345,118L349,122L349,128L351,133L353,133L354,129L358,130L360,130L359,124L359,120L361,118L362,116L362,114L360,112L351,112L348,111L342,105Z"/><path d="M94,104L94,106L92,107L91,108L90,110L90,112L88,114L84,115L78,114L78,111L75,111L75,114L77,115L78,119L79,122L80,138L81,146L79,153L78,162L78,165L80,165L81,162L83,162L86,165L85,168L83,168L84,172L86,172L87,167L90,167L90,164L91,163L90,140L90,138L90,127L90,124L92,122L93,120L95,113L95,107L97,105L97,103Z"/><path d="M701,87L694,88L693,89L691,89L691,94L686,100L685,102L685,111L682,114L681,117L682,120L684,120L686,121L688,122L690,125L695,125L698,129L701,130L704,131L706,131L706,129L704,128L704,125L703,123L691,106L691,104L692,102L694,100L696,99L699,99L700,98L702,98L705,94L708,93L709,90L707,87Z"/><path d="M399,87L386,88L384,93L384,95L386,96L388,97L391,98L395,98L399,100L402,104L402,106L404,106L405,104L405,100L404,99L404,95L405,94L405,89L404,87Z"/><path d="M118,84L115,87L113,87L110,89L106,92L106,96L104,98L104,101L107,101L112,98L114,96L115,96L116,95L116,94L120,94L120,96L122,96L121,92L122,89L125,87L125,84Z"/><path d="M422,75L420,76L411,81L409,82L408,87L415,87L417,89L422,89L422,85L423,83L426,79L426,77L425,75Z"/><path d="M147,75L144,77L144,79L143,80L143,83L144,89L146,89L152,86L156,82L159,81L159,76L157,75Z"/><path d="M637,74L637,76L639,81L641,82L645,82L648,83L651,84L653,86L656,86L655,82L653,81L651,80L649,80L645,78L642,75L640,74Z"/><path d="M462,73L457,76L455,76L454,74L452,74L451,75L449,75L448,77L445,77L442,78L438,81L436,81L434,83L433,85L434,88L442,88L444,86L446,86L448,84L451,83L452,80L454,79L457,78L463,77L464,76L466,76L466,74L464,73Z"/><path d="M208,71L208,76L211,79L217,78L220,79L220,81L219,82L220,85L222,86L227,85L227,82L222,81L222,79L219,78L219,73L215,73L214,71Z"/><path d="M296,67L294,68L294,73L292,75L288,76L283,76L281,78L280,82L284,85L288,85L289,86L292,86L294,85L295,82L294,81L294,78L296,76L296,75L297,74L298,74L300,72L301,70L301,67Z"/><path d="M604,65L604,68L607,70L609,71L613,71L615,70L615,67L613,65L611,64Z"/><path d="M622,57L620,58L618,60L619,65L620,65L622,67L624,67L626,66L628,64L630,63L633,62L636,62L637,61L639,61L639,58L637,58L636,57Z"/><path d="M476,56L475,58L471,58L461,57L456,58L454,59L452,61L452,63L462,63L465,65L467,65L472,62L477,62L477,60L478,59L478,56Z"/><path d="M119,48L119,52L123,55L123,58L125,60L127,60L129,58L130,56L130,54L129,53L129,51L122,50L122,47Z"/><path d="M78,17L78,20L79,22L81,23L81,26L82,27L82,29L85,29L90,34L92,35L94,35L94,33L93,32L93,30L89,29L89,25L86,21L82,17Z"/><path d="M170,-3L168,-1L168,7L167,12L164,18L162,21L151,32L147,35L139,39L136,41L133,44L134,48L136,48L139,47L145,45L153,41L156,39L161,35L163,33L167,28L169,25L171,22L172,20L174,15L177,6L177,4L175,3L175,-2L173,-2L172,-3Z"/><path d="M21,-404L19,-402L18,-399L19,-370L19,-352L19,-310L18,-293L18,-291L18,-271L18,-254L19,-230L17,-139L17,-136L18,-93L16,-62L16,-60L18,-37L18,-16L16,-3L15,10L15,18L17,28L17,45L16,88L18,94L17,106L17,108L17,120L17,129L18,135L19,142L20,146L21,147L21,149L20,167L18,171L18,174L19,177L22,180L21,189L21,194L21,211L21,224L22,228L23,230L29,231L29,211L28,210L27,204L26,198L28,197L28,195L26,194L25,187L25,179L27,174L27,170L25,154L25,145L27,130L27,89L26,60L24,53L24,51L25,50L25,48L23,-10L23,-12L24,-13L24,-15L22,-24L22,-29L24,-44L25,-57L25,-60L23,-69L23,-86L25,-103L25,-111L25,-123L25,-125L24,-138L24,-154L25,-159L25,-161L25,-211L25,-219L23,-233L23,-239L23,-284L24,-292L24,-296L23,-404Z"/></g></svg>