<svg xmlns="http://www.w3.org/2000/svg" viewBox="0 0 420 420" preserveAspectRatio="none"><g fill="#fff5a0" fill-rule="evenodd"><path d="M165,382L163,384L162,386L162,392L163,394L169,400L170,402L173,410L174,413L175,417L175,420L174,423L168,434L168,438L165,445L163,447L163,448L158,449L156,451L156,481L154,484L155,560L155,565L154,593L155,607L157,611L158,619L158,621L157,624L155,629L155,641L159,642L160,644L160,647L159,654L157,655L157,660L159,661L159,663L156,665L156,668L156,675L156,678L158,678L159,674L163,675L164,677L163,680L159,680L159,682L163,683L163,686L161,687L161,689L164,692L164,697L166,697L167,692L171,692L171,687L170,686L171,680L170,676L170,674L171,656L170,655L170,651L167,650L167,640L169,636L169,633L167,630L166,621L167,607L169,607L171,604L171,595L170,586L168,579L167,571L166,562L165,543L165,511L166,501L168,500L168,497L166,496L166,473L167,466L168,460L170,458L171,450L172,447L173,445L177,440L177,437L180,435L180,431L181,430L181,421L180,414L179,407L178,401L177,398L175,396L172,389L172,385L169,382Z"/><path d="M155,361L152,363L149,363L149,370L150,372L158,373L160,373L162,369L166,365L166,363L164,361Z"/><path d="M63,324L62,326L62,328L63,329L63,332L65,335L68,336L68,347L70,347L70,324L68,324L67,323Z"/><path d="M137,317L137,322L135,323L135,335L138,336L138,348L140,350L142,351L142,352L145,353L144,349L144,347L146,345L146,343L149,339L150,335L149,331L146,330L145,327L144,322L141,318Z"/><path d="M96,292L96,296L95,297L95,301L96,302L96,306L94,310L93,325L92,341L92,344L93,357L92,359L90,361L88,363L88,366L90,369L90,372L91,373L91,375L90,376L89,380L87,380L85,381L83,382L82,385L77,391L76,393L76,396L77,398L80,398L82,397L92,390L97,385L98,383L99,380L99,375L101,373L102,370L102,368L100,367L101,364L103,364L107,358L108,357L110,356L112,354L112,351L110,350L109,344L110,335L112,335L113,331L112,328L109,328L108,331L103,330L104,323L110,323L115,320L116,319L117,317L117,315L114,315L112,317L109,316L108,313L108,307L106,305L104,299L104,297L102,297L99,293Z"/><path d="M87,269L87,273L88,276L89,278L93,278L93,276L91,271L89,269Z"/><path d="M123,260L123,276L122,284L120,290L119,297L119,300L121,303L124,305L125,308L126,308L128,310L129,310L130,311L131,314L134,314L135,315L137,315L137,309L135,309L133,307L132,304L131,299L130,283L128,276L127,269L127,262L126,260Z"/><path d="M69,232L67,234L67,236L68,237L68,240L69,242L73,246L74,249L77,252L78,254L78,256L81,261L83,263L83,264L84,265L86,266L88,266L88,259L86,254L84,254L82,252L81,251L80,245L77,242L76,240L76,235L73,235L71,232Z"/><path d="M381,148L381,154L380,161L379,168L377,173L376,175L372,179L371,181L371,184L367,189L366,192L362,193L362,197L365,197L370,195L370,193L372,191L374,191L377,187L379,184L380,180L381,177L381,171L383,165L383,162L382,161L382,159L383,148Z"/><path d="M335,132L308,133L306,134L304,136L302,139L301,142L300,145L300,173L301,175L304,178L306,179L325,178L335,178L357,179L359,178L360,177L360,176L362,174L363,170L363,160L363,147L363,143L362,139L361,137L359,135L357,134L355,133L346,132Z"/><path d="M115,103L109,104L109,110L95,124L93,129L91,131L88,133L84,135L81,137L77,137L76,136L73,136L71,138L71,142L72,147L75,150L76,152L76,155L78,158L79,170L78,174L78,176L80,179L80,181L78,182L78,184L84,190L87,191L89,193L89,195L87,201L87,206L85,208L83,209L76,209L75,207L73,207L72,206L65,205L65,190L64,189L64,187L60,187L56,189L54,190L53,192L49,193L49,195L50,200L52,204L54,206L56,208L56,210L58,212L59,217L64,227L66,229L68,229L68,223L67,221L65,219L64,215L61,212L62,208L65,208L67,209L68,210L68,211L69,212L71,213L76,214L82,222L84,228L89,233L91,233L93,231L93,225L91,222L90,218L91,214L93,209L94,205L94,199L93,192L92,188L91,183L89,180L88,177L87,172L86,157L86,149L87,147L89,145L94,144L94,140L95,137L96,134L100,129L107,123L108,121L113,118L114,117L116,114L116,113L120,111L120,108L121,107L121,104L119,104L118,103Z"/><path d="M194,90L187,91L179,95L174,98L171,100L167,103L157,112L154,116L150,118L147,121L143,121L143,124L145,125L144,129L145,132L150,135L151,138L150,140L147,141L146,139L144,138L141,138L141,142L143,144L146,144L147,143L151,144L151,145L153,147L154,151L154,155L157,155L157,149L159,143L160,140L162,138L162,136L163,134L167,127L169,124L176,117L180,114L184,112L190,109L196,107L202,106L205,104L210,103L221,102L231,102L232,103L243,103L253,105L263,105L271,104L272,103L275,103L275,101L274,100L274,98L264,98L256,96L256,94L249,94L248,93L235,92L202,92L201,90Z"/><path d="M342,89L340,90L338,92L330,93L327,95L325,95L323,94L322,91L319,91L316,94L310,94L307,96L295,96L294,97L289,97L289,99L287,101L284,102L284,104L289,104L290,105L306,105L313,106L315,108L320,108L321,107L328,106L337,106L343,107L349,108L352,109L354,111L356,111L365,117L366,120L367,122L369,124L371,126L373,127L375,127L375,125L374,124L374,121L372,119L372,117L374,115L378,115L380,117L381,117L382,118L382,119L384,122L388,126L390,130L391,134L392,136L394,138L395,140L395,146L398,153L398,162L396,164L395,168L395,174L394,177L391,182L390,183L387,184L386,186L386,190L388,191L388,193L386,195L384,196L380,197L378,195L376,195L372,197L369,201L365,202L364,205L363,206L359,208L356,209L347,209L340,210L339,211L337,211L336,213L332,213L331,214L328,214L325,213L320,210L309,209L282,209L282,212L282,218L277,217L276,216L275,215L268,216L264,216L258,210L250,209L248,209L226,211L204,211L195,213L193,213L191,212L188,209L186,208L184,207L181,206L177,206L174,205L171,202L168,201L165,199L159,193L156,188L155,186L155,180L151,177L149,174L142,161L142,159L140,157L138,157L137,160L135,160L135,167L136,174L137,177L138,179L142,180L142,186L145,192L147,195L151,199L154,200L157,203L157,206L159,208L162,210L167,213L169,213L173,216L177,218L180,219L183,220L189,220L196,221L197,223L199,224L202,225L207,225L211,222L213,221L217,221L221,219L226,218L235,217L241,218L241,221L254,221L262,222L266,224L279,223L279,222L280,221L282,220L284,220L294,222L335,221L337,221L339,223L346,223L347,222L349,222L351,219L361,218L365,216L369,217L369,219L361,228L350,238L349,243L353,243L356,241L364,234L376,227L398,205L401,201L401,194L404,189L404,187L401,186L401,183L405,176L408,166L409,161L409,145L406,144L405,141L405,134L407,133L407,131L406,129L404,127L404,124L400,116L395,116L391,112L386,112L376,102L373,100L362,94L356,91L354,91L353,92L351,92L348,90L345,90L344,89Z"/><path d="M275,70L275,72L276,73L276,75L278,76L282,77L287,77L287,75L286,74L286,72L282,71L279,70Z"/><path d="M236,62L209,63L197,64L189,65L182,66L176,67L171,68L162,70L158,71L152,73L143,76L133,80L131,81L130,83L127,83L126,87L125,87L124,88L123,90L123,92L127,95L128,99L132,99L133,98L136,98L137,100L139,100L140,98L142,98L143,95L147,95L151,92L153,91L159,89L167,87L176,83L178,83L179,80L182,79L187,79L189,78L191,76L194,75L202,75L204,73L209,72L211,72L212,73L214,73L221,71L227,72L229,72L232,71L236,69L253,70L253,72L259,72L259,70L254,69L254,67L252,65L249,64L246,63L238,62Z"/><path d="M162,43L152,44L148,45L146,46L143,50L142,52L142,54L139,56L138,59L140,61L146,61L148,61L153,62L154,61L158,61L159,59L161,59L163,58L164,57L165,55L165,53L154,52L155,49L161,48L166,48L167,45L170,45L171,47L173,47L173,45L172,43Z"/><path d="M251,23L251,25L254,25L257,28L260,29L265,29L267,28L268,24L266,23Z"/><path d="M390,20L381,22L342,22L337,23L332,24L328,26L327,28L326,28L324,30L317,31L310,31L296,36L293,36L292,35L287,34L285,34L285,36L287,37L286,41L284,42L280,42L276,40L276,39L269,38L265,36L260,36L257,34L247,34L239,32L231,32L223,30L214,29L212,29L211,31L206,31L197,30L195,31L193,33L193,38L192,41L189,43L189,45L204,45L209,44L216,41L221,41L224,42L227,44L241,45L253,45L259,46L264,48L269,48L273,50L278,50L282,52L287,52L291,53L295,54L298,55L304,58L308,61L310,62L314,63L318,66L320,67L323,68L323,70L325,70L326,69L329,69L328,66L325,65L324,64L311,52L304,45L305,42L308,42L315,46L320,47L323,50L327,50L330,52L334,53L343,54L349,54L349,51L344,48L339,46L333,42L330,40L328,38L329,35L332,35L335,33L344,32L355,32L359,30L374,30L375,29L389,29L390,30L406,31L431,31L451,33L471,33L476,35L487,35L496,36L511,41L524,42L533,44L549,48L560,52L564,52L568,53L575,55L578,56L581,57L588,60L590,62L592,62L594,63L597,66L602,67L610,72L613,73L616,74L620,74L623,75L630,78L639,83L644,88L647,90L650,92L655,95L658,96L663,97L665,98L672,104L679,107L683,110L694,121L699,124L707,132L712,136L714,136L715,138L718,139L718,136L714,132L714,129L711,125L708,121L703,115L697,108L688,99L684,96L681,95L679,94L678,93L674,88L674,86L669,83L659,74L654,70L648,66L639,60L637,59L631,58L630,57L628,55L628,53L626,51L625,49L626,44L629,42L635,40L637,40L640,44L642,45L645,45L649,47L652,47L653,48L655,48L656,46L656,44L653,40L652,39L647,35L646,35L643,32L644,29L645,28L647,26L652,26L652,23L653,22L653,20L649,20L648,23L640,24L638,26L636,27L629,27L621,25L613,22L608,21L602,20L593,20L588,22L589,25L591,25L597,28L601,32L602,32L605,35L604,39L596,39L591,37L591,35L585,35L586,38L591,39L591,42L596,46L599,48L609,52L612,55L619,58L622,61L630,64L633,67L635,67L637,68L639,70L638,73L634,73L632,72L630,71L626,68L618,65L617,63L615,62L611,61L609,59L604,58L597,54L594,53L584,51L581,50L575,47L572,46L565,44L550,40L546,39L541,39L532,36L527,35L520,34L506,32L495,32L492,30L485,30L466,27L461,25L449,25L440,24L433,22L424,21L414,20Z"/></g></svg>